<?xml version="1.0" encoding="UTF-8"?>
<svg id="_レイヤー_1" data-name="レイヤー 1" xmlns="http://www.w3.org/2000/svg" width="34.75mm" height="79.76mm" viewBox="0 0 98.5 226.11">
  <defs>
    <style>
      .cls-1 {
        fill: #040000;
      }
    </style>
  </defs>
  <path class="cls-1" d="M96.83.09c-.19-.04-.4-.07-.63-.08-.69-.04-1.56.05-2.63.28-.62.14-1.22.31-1.81.5-.15.05-.3.09-.44.15-.55.19-1.1.4-1.63.63-.14.06-.27.13-.41.19-.4.19-.79.38-1.17.59-.19.1-.39.21-.58.32-.44.25-.87.52-1.29.8-.22.15-.43.3-.65.46-.26.19-.52.38-.77.57-.21.16-.42.32-.62.49,0,0,0,0,0,0h0c-1.52,1.25-2.91,2.66-4.2,4.19v1.41c0,.66-.54,1.2-1.2,1.2h-.82c-.82,1.15-1.58,2.36-2.32,3.57h-.02c-.11.19-.21.39-.33.58-.46.77-.9,1.55-1.32,2.33-.15.29-.31.57-.46.85-.54,1.03-1.07,2.06-1.56,3.08-1.05,2.16-1.99,4.47-2.35,6.85-.13-.08-.2-.2-.23-.35-.02-.07-.03-.15-.03-.24-.02-.33.02-.73-.13-1.05-.04-.08-.08-.15-.14-.22-.12-.13-.34-.24-.59-.32-.17-.06-.35-.1-.53-.14-.09-.02-.18-.03-.26-.05-.17-.02-.33-.04-.45-.04v-.95h-.01c-.45.31-.61.47-.63.58-.02.07.03.12.1.17.1.08.24.17.27.36.03.19-.19.42-.34.67-.05.08-.09.17-.1.26-.06.31-.06.56-.02.78.04.22.12.4.23.57.05.09.11.17.17.26.12.17.26.35.38.55.06.1.13.21.18.34l-4.38-2.43c-1.89-.63-3.85-1.17-5.84-1.64-1.98-.46-3.99-.85-5.96-1.15-2.79-.43-7.24-.99-11.57-.98-4.33,0-8.53.58-10.83,2.41-.38.3-.58.6-.65.88-.02.09-.03.19-.03.28.01.28.14.55.34.8.07.09.14.17.22.25.16.17.34.33.53.48.57.46,1.23.87,1.59,1.21,2.03,1.9,4.45,4.86,7.1,5.81,1.7.61,2.75.31,4.26,1.72.42.39.79.8,1.14,1.2,1.06,1.22,1.96,2.43,3.7,3.28,2.49,1.21,3.94,1.4,6.34.02.21-.12.86-.63,1.48-1.09.62-.46,1.22-.87,1.31-.78-.09.15-.19.31-.29.47,0,.01-.02.03-.03.04-1.54,2.3-4.36,4.79-2.75,7.68.03.06.05.11.09.17.37.6,1.05,1.16,1.9,1.69,0,0,0,0,0,0,2.4,1.5,6.22,2.73,8.74,3.7.04.02.09.03.13.05.18.07.34.13.5.2.06.02.11.05.17.07.2.08.38.16.55.24.66.3,1.25.63,1.81.95.85.49,1.63.97,2.49,1.39s1.78.77,2.9.98c.63.12,2.04.36,3.28.42.14,0,.27.01.41.01.8,0,1.47-.09,1.74-.37,1.33-1.37-1-7.59-.59-9.56.14.13.29.27.43.43.05.05.1.11.15.16.1.11.2.22.31.34.06.07.11.13.17.2.1.12.2.24.31.37.06.07.11.14.17.21.15.19.31.38.47.58.06.07.12.15.18.22.11.13.22.27.33.4.08.1.16.2.25.3.09.11.17.21.26.31.11.13.22.25.33.38,1.73,1.95,3.72,3.48,6.05,2.04,1.09-.67,1.75-2.67,2.34-4.4.11-.33.22-.64.33-.94.01-.03.02-.06.03-.08.12-.31.23-.59.35-.84,2.79-5.81,5.52-8.37,5-15.58-.44-6.14-4.24-6.12-9.45-5.85l-.12-.47c3.17-2.3,10.34-1.32,10.28-6.57,0-.56-.25-1.3-.4-1.98-.09-.41-.14-.8-.09-1.13.06-.38.42-.69.76-1.02s.67-.68.66-1.15c0-.63-.74-1.43-1.03-2.34-.1-.3-.15-.62-.1-.95.03-.24.17-.57.36-.96.1-.2.21-.4.32-.62.24-.44.51-.91.76-1.37.39-.69.74-1.37.91-1.88,1.12-3.37,1.52-5.88-.77-6.39Z"/>
  <path class="cls-1" d="M40.65,86.5l-2.3,2.14c1.1-3.32,3.38-6.42,4.95-9.59.47-.95,1.02-2.1,1.61-3.37v-6.65c0-1.58,1.28-2.86,2.86-2.86h1.14c1.09-2.94,1.96-5.73,2.24-7.77.37-2.72-1.32-1.73-2.73-.88-3.49,2.11-14.61,12.36-17.11,15.66-1.93,2.55-1.65,4.02-.62,6.89l-5.13-8.18c-4.7-6.89-12.32-14.17-21.35-13.55-7.02.48-3.11,6.41-3.2,10.56-.03,1.31-.81,2.56-.63,3.65.09.57.7,1.13.91,1.89.3,1.09-.12,2.09.08,3.27.19,1.14,1.18,2.46,1.39,3.51.36,1.85-.14,3.2,1.04,5.08,1.15,1.83,4.03,2.73,7.1,3.24v-20.49c0-1.59,1.29-2.87,2.87-2.87h2.76c1.59,0,2.87,1.29,2.87,2.87v.68s0,0,0,0v37.48c2.44-.66,4.79-1.93,6.25-3.56,1.65-1.85,4.59-7.31,6.74-8.27.13-.06.5-.08.45.15-.76.43-4.67,6.47-2.3,5.97,1.62-1.38,1.93-4.25,3.08-5.8.87-1.17,2.17-1.18,2.9-2,1.29-1.44,1.45-4.07,3.82-6.3.24-.22,1.68-.65.3-.91Z"/>
  <path class="cls-1" d="M72,220.53c0-.27-.14-.51-.37-.64l-2.33-1.35c-.23-.13-.51-.13-.74,0-.23.13-.37.37-.37.64v2.24l-1.99-1.15c-.17-.1-.39-.04-.48.13-.1.17-.04.39.13.48l2.33,1.4-2.33,1.35c-.17.1-.23.31-.13.48.07.11.19.18.31.18.06,0,.12-.02.18-.05l1.99-1.15v2.27c0,.27.14.51.37.64.12.07.24.1.37.1s.25-.03.37-.1l2.33-1.35c.23-.13.37-.37.37-.64,0-.27-.14-.51-.37-.64l-1.91-1.11,1.91-1.1c.23-.13.37-.37.37-.64ZM71.27,223.99v.05l-2.38,1.32.05-2.72,2.33,1.35ZM71.27,220.56l-2.38,1.32.05-2.72,2.33,1.35.18-.31-.18.36Z"/>
  <path class="cls-1" d="M90.46,175.95l-2.33-1.35c-.17-.1-.39-.04-.48.13-.1.17-.04.39.13.48l2.33,1.4-2.33,1.35c-.17.1-.23.31-.13.48.07.11.19.18.31.18.06,0,.12-.02.18-.05l2.33-1.35c.23-.13.37-.37.37-.64,0-.27-.14-.51-.37-.64Z"/>
  <path class="cls-1" d="M88.21,176.53c0-.2-.16-.35-.35-.35h-2.71c-.2,0-.35.16-.35.35s.16.35.35.35h2.71c.2,0,.35-.16.35-.35Z"/>
  <path class="cls-1" d="M11.1,178.02l-2.33-1.4,2.33-1.35c.17-.1.23-.31.13-.48-.1-.17-.31-.23-.48-.13l-2.33,1.34c-.23.13-.37.37-.37.64,0,.27.14.51.37.64l2.33,1.35c.06.03.12.05.18.05.12,0,.24-.06.31-.18.1-.17.04-.39-.13-.48Z"/>
  <path class="cls-1" d="M13.73,176.23h-2.71c-.2,0-.35.16-.35.35s.16.35.35.35h2.71c.2,0,.35-.16.35-.35s-.16-.35-.35-.35Z"/>
  <path class="cls-1" d="M9.86,100.13c.33.41.69.88,1.03,1.35v-8.52c-1.51.97-2.8,2.3-3.11,3.86-.33,1.66,1.18,2.17,2.08,3.3Z"/>
  <path class="cls-1" d="M91.02,127.81c.26-1,.24-5.72-.24-6.56-.24-.42-1.2-1.26-1.64-1.54l-1.83-.76v16.38c.63-.52,1.34-.98,1.46-1.71.14-.92-.14-1.9.11-2.85.3-1.16,1.83-1.8,2.13-2.95Z"/>
  <path class="cls-1" d="M70.99,133.53c.01-1.49-1.02-2.69-1.66-3.95-.1-.19-.44-.56-.14-.71l6.99,8.48c.95.21,1.87.81,2.79,1.28-.09-.28-.15-.57-.15-.87v-33.07c-.53.51-1.04,1.04-1.57,1.63-.16.18-.33.5-.53.52.07-2.09-.07-4.19-.62-6.21l-.59-.31c-.17-.05-.33,0-.49.04-.93.27-4.49,5.2-5.17,6.29-2.67,4.27-4.58,9.33-5,14.39-1.81-2.59-3.19-5.46-4.91-8.12-.86-1.33-1.88-2.92-2.84-4.15-.45-.58-1.04-1.61-1.78-1.5-.63.64,2.13,2.82,2.63,3.41,2,2.38,2.9,4.57,4.21,7.23.3.61,1.21,1.57,1.34,2.06.19.69-.45,1.52.08,2.4.12.2.5.24.7.62.41.79.27,1.9.61,2.79.16.42,4.74,6.63,5.28,7.22.24.26.42.61.84.54Z"/>
  <path class="cls-1" d="M91.87,97.93c-.97-.06-2.73.58-4.55,1.41v18.79c.07.01.13.02.2.04.63.13,2.05.75,2.45.74.96-.02.69-2.23.82-2.97.36-2.09,1.54-4.32,2-6.9.24-1.34.69-2.91.86-4.01.2-1.31.34-4.62-.1-5.81-.35-.95-.7-1.22-1.68-1.28Z"/>
  <path class="cls-1" d="M22.28,150.91l-.08-.17-.25-.26-.23.11c-.4.19-.78.73-1.18,1.31-.32.46-.81,1.16-1.07,1.19l-.11-.06c-.15-.07-.29-.19-.44-.3-.39-.31-.94-.72-1.5-.38-.44.25-.84.72-1.24,1.18-.42.48-.85.98-1.22,1.11-.21.07-.57-.04-.93-.15-.49-.15-1.04-.32-1.55-.14-.44.15-.84.55-1.23.93-.34.34-.73.73-1.05.77-.25.06-.54,0-.84-.05-.17-.03-.35-.06-.47-.07-.62-.12-1.36.21-2.15.55-.2.09-.4.17-.61.26l-.38.16h-1.34v1.72h1.34l.38.16c.2.08.4.17.6.25.79.34,1.53.67,2.11.55.17-.01.34-.04.51-.07.31-.05.59-.11.88-.04.29.04.68.42,1.02.76.38.38.78.77,1.23.93.51.18,1.06,0,1.55-.14.35-.11.72-.22.93-.15.37.13.8.63,1.22,1.11.4.46.81.93,1.23,1.18.58.35,1.11-.07,1.51-.37.15-.11.29-.23.44-.3l.1-.06c.26.04.74.73,1.07,1.19.4.57.78,1.11,1.18,1.31l.29.05.25-.26.02-.11c0-.05.02-.12.02-.19v-13.18s0-.13,0-.13c0-.07-.02-.14-.02-.19ZM21.12,163.22c-.51-.72-.99-1.41-1.55-1.49-.04,0-.08,0-.11,0-.17,0-.32.05-.41.13-.19.1-.38.24-.55.38-.39.3-.57.41-.71.32-.33-.19-.7-.62-1.06-1.03-.48-.55-.97-1.12-1.52-1.31-.43-.16-.91,0-1.38.13-.4.12-.82.25-1.11.15-.29-.1-.63-.44-.96-.76-.44-.44-.9-.89-1.39-.96-.39-.09-.78-.02-1.13.04-.15.03-.3.05-.48.07-.41.09-1.08-.22-1.74-.5-.21-.09-.41-.18-.61-.26l-.44-.19-.84-.03v-.31h.7l.57-.21c.21-.08.41-.17.62-.26.65-.28,1.33-.58,1.78-.5.14.01.29.04.44.06.34.06.74.13,1.1.05.52-.07.98-.52,1.42-.96.33-.33.67-.66.96-.76.29-.1.71.03,1.11.15.46.14.94.29,1.37.14.55-.19,1.04-.76,1.52-1.32.36-.41.73-.84,1.06-1.03.14-.08.32.03.7.33.18.14.36.28.49.33.17.14.38.2.59.17.56-.08,1.04-.76,1.55-1.49.15-.22.33-.47.49-.67v12.25c-.16-.21-.34-.45-.49-.67Z"/>
  <path class="cls-1" d="M56.52,151.33c-.17,0-.4.06-.53.5-.22.92-.64,3.65-1.04,6.29-.28,1.86-.55,3.62-.74,4.67-.24-1.01-.53-2.77-.76-4.16-.7-4.22-.89-5-1.27-5.19l-.21-.08-.16.08c-.35.17-.53.8-1.19,4.25-.21,1.13-.49,2.6-.69,3.24-.05-.14-.1-.3-.13-.41l-.08-.25c-.13-.39-.26-.94-.39-1.52-.29-1.27-.57-2.47-1.06-2.95l-.12-.07c-.13-.05-.27-.04-.39.02-.35.18-.51.76-.79,1.86-.13.52-.34,1.33-.51,1.63-.01-.02-.03-.05-.05-.08-.43-.92-.87-1.87-1.57-1.93-.54-.06-.9.49-1.01.66-.45.64-.9.51-1.72.2-.54-.21-1.16-.44-1.77-.21l.25.66c.35-.13.79.03,1.26.21.75.29,1.77.68,2.56-.46.17-.26.3-.34.37-.35.28.02.75,1.03.99,1.54.21.39.47.56.75.53.55-.07.78-.85,1.13-2.24.09-.36.21-.85.32-1.15.25.53.47,1.48.66,2.28.14.6.27,1.16.41,1.59l.07.23c.17.58.33,1.08.72,1.16.11.02.34.02.54-.24.25-.3.48-1.4.94-3.83.2-1.07.46-2.42.66-3.2.23.94.53,2.73.76,4.13.79,4.77.97,5.44,1.51,5.44h0c.44,0,.52-.57.58-.93.19-.97.49-2.94.8-5.03.32-2.11.65-4.28.87-5.5.21.97.44,2.59.58,3.59.13.94.24,1.68.31,1.98l.69-.18c-.07-.26-.17-1.02-.3-1.9-.61-4.37-.8-4.85-1.28-4.89Z"/>
  <path class="cls-1" d="M82.49,160.79c-4.54.41-8.19.64-8.22.65l.04.71s3.69-.24,8.24-.65c4.71-.43,9.59-7.26,9.8-7.56l-.58-.41c-.05.07-4.9,6.86-9.28,7.26Z"/>
</svg>