  0
SECTION
  2
HEADER
  9
$ACADVER
  1
AC1032
  9
$ACADMAINTVER
 90
      327
  9
$DWGCODEPAGE
  3
ANSI_932
  9
$REQUIREDVERSIONS
160
                 0
  9
$INSBASE
 10
0.0
 20
0.0
 30
0.0
  9
$EXTMIN
 10
1.000000000000000E+20
 20
1.000000000000000E+20
 30
1.000000000000000E+20
  9
$EXTMAX
 10
-1.000000000000000E+20
 20
-1.000000000000000E+20
 30
-1.000000000000000E+20
  9
$LIMMIN
 10
0.0
 20
0.0
  9
$LIMMAX
 10
12.0
 20
9.0
  9
$ORTHOMODE
 70
     0
  9
$REGENMODE
 70
     1
  9
$FILLMODE
 70
     1
  9
$QTEXTMODE
 70
     0
  9
$MIRRTEXT
 70
     0
  9
$LTSCALE
 40
1.0
  9
$ATTMODE
 70
     1
  9
$TEXTSIZE
 40
0.2
  9
$TRACEWID
 40
0.05
  9
$TEXTSTYLE
  7
Standard
  9
$CLAYER
  8
0
  9
$CELTYPE
  6
ByLayer
  9
$CECOLOR
 62
   256
  9
$CELTSCALE
 40
1.0
  9
$DISPSILH
 70
     0
  9
$DIMSCALE
 40
1.0
  9
$DIMASZ
 40
0.18
  9
$DIMEXO
 40
0.0625
  9
$DIMDLI
 40
0.38
  9
$DIMRND
 40
0.0
  9
$DIMDLE
 40
0.0
  9
$DIMEXE
 40
0.18
  9
$DIMTP
 40
0.0
  9
$DIMTM
 40
0.0
  9
$DIMTXT
 40
0.18
  9
$DIMCEN
 40
0.09
  9
$DIMTSZ
 40
0.0
  9
$DIMTOL
 70
     0
  9
$DIMLIM
 70
     0
  9
$DIMTIH
 70
     1
  9
$DIMTOH
 70
     1
  9
$DIMSE1
 70
     0
  9
$DIMSE2
 70
     0
  9
$DIMTAD
 70
     0
  9
$DIMZIN
 70
     0
  9
$DIMBLK
  1

  9
$DIMASO
 70
     1
  9
$DIMSHO
 70
     1
  9
$DIMPOST
  1

  9
$DIMAPOST
  1

  9
$DIMALT
 70
     0
  9
$DIMALTD
 70
     2
  9
$DIMALTF
 40
25.4
  9
$DIMLFAC
 40
1.0
  9
$DIMTOFL
 70
     0
  9
$DIMTVP
 40
0.0
  9
$DIMTIX
 70
     0
  9
$DIMSOXD
 70
     0
  9
$DIMSAH
 70
     0
  9
$DIMBLK1
  1

  9
$DIMBLK2
  1

  9
$DIMSTYLE
  2
Standard
  9
$DIMCLRD
 70
     0
  9
$DIMCLRE
 70
     0
  9
$DIMCLRT
 70
     0
  9
$DIMTFAC
 40
1.0
  9
$DIMGAP
 40
0.09
  9
$DIMJUST
 70
     0
  9
$DIMSD1
 70
     0
  9
$DIMSD2
 70
     0
  9
$DIMTOLJ
 70
     1
  9
$DIMTZIN
 70
     0
  9
$DIMALTZ
 70
     0
  9
$DIMALTTZ
 70
     0
  9
$DIMUPT
 70
     0
  9
$DIMDEC
 70
     4
  9
$DIMTDEC
 70
     4
  9
$DIMALTU
 70
     2
  9
$DIMALTTD
 70
     2
  9
$DIMTXSTY
  7
Standard
  9
$DIMAUNIT
 70
     0
  9
$DIMADEC
 70
     0
  9
$DIMALTRND
 40
0.0
  9
$DIMAZIN
 70
     0
  9
$DIMDSEP
 70
    46
  9
$DIMATFIT
 70
     3
  9
$DIMFRAC
 70
     0
  9
$DIMLDRBLK
  1

  9
$DIMLUNIT
 70
     2
  9
$DIMLWD
 70
    -2
  9
$DIMLWE
 70
    -2
  9
$DIMTMOVE
 70
     0
  9
$DIMFXL
 40
1.0
  9
$DIMFXLON
 70
     0
  9
$DIMJOGANG
 40
0.7853981633974483
  9
$DIMTFILL
 70
     0
  9
$DIMTFILLCLR
 70
     0
  9
$DIMARCSYM
 70
     0
  9
$DIMLTYPE
  6

  9
$DIMLTEX1
  6

  9
$DIMLTEX2
  6

  9
$DIMTXTDIRECTION
 70
     0
  9
$LUNITS
 70
     2
  9
$LUPREC
 70
     4
  9
$SKETCHINC
 40
0.1
  9
$FILLETRAD
 40
0.0
  9
$AUNITS
 70
     0
  9
$AUPREC
 70
     0
  9
$MENU
  1
.
  9
$ELEVATION
 40
0.0
  9
$PELEVATION
 40
0.0
  9
$THICKNESS
 40
0.0
  9
$LIMCHECK
 70
     0
  9
$CHAMFERA
 40
0.0
  9
$CHAMFERB
 40
0.0
  9
$CHAMFERC
 40
0.0
  9
$CHAMFERD
 40
0.0
  9
$SKPOLY
 70
     0
  9
$TDCREATE
 40
2461021.796064815
  9
$TDUCREATE
 40
2461021.421064815
  9
$TDUPDATE
 40
2461021.796064815
  9
$TDUUPDATE
 40
2461021.421064815
  9
$TDINDWG
 40
0.0000000000
  9
$TDUSRTIMER
 40
0.0000000000
  9
$USRTIMER
 70
     1
  9
$ANGBASE
 50
0.0
  9
$ANGDIR
 70
     0
  9
$PDMODE
 70
     0
  9
$PDSIZE
 40
0.0
  9
$PLINEWID
 40
0.0
  9
$SPLFRAME
 70
     0
  9
$SPLINETYPE
 70
     6
  9
$SPLINESEGS
 70
     8
  9
$HANDSEED
  5
97
  9
$SURFTAB1
 70
     6
  9
$SURFTAB2
 70
     6
  9
$SURFTYPE
 70
     6
  9
$SURFU
 70
     6
  9
$SURFV
 70
     6
  9
$UCSBASE
  2

  9
$UCSNAME
  2

  9
$UCSORG
 10
0.0
 20
0.0
 30
0.0
  9
$UCSXDIR
 10
1.0
 20
0.0
 30
0.0
  9
$UCSYDIR
 10
0.0
 20
1.0
 30
0.0
  9
$UCSORTHOREF
  2

  9
$UCSORTHOVIEW
 70
     0
  9
$UCSORGTOP
 10
0.0
 20
0.0
 30
0.0
  9
$UCSORGBOTTOM
 10
0.0
 20
0.0
 30
0.0
  9
$UCSORGLEFT
 10
0.0
 20
0.0
 30
0.0
  9
$UCSORGRIGHT
 10
0.0
 20
0.0
 30
0.0
  9
$UCSORGFRONT
 10
0.0
 20
0.0
 30
0.0
  9
$UCSORGBACK
 10
0.0
 20
0.0
 30
0.0
  9
$PUCSBASE
  2

  9
$PUCSNAME
  2

  9
$PUCSORG
 10
0.0
 20
0.0
 30
0.0
  9
$PUCSXDIR
 10
1.0
 20
0.0
 30
0.0
  9
$PUCSYDIR
 10
0.0
 20
1.0
 30
0.0
  9
$PUCSORTHOREF
  2

  9
$PUCSORTHOVIEW
 70
     0
  9
$PUCSORGTOP
 10
0.0
 20
0.0
 30
0.0
  9
$PUCSORGBOTTOM
 10
0.0
 20
0.0
 30
0.0
  9
$PUCSORGLEFT
 10
0.0
 20
0.0
 30
0.0
  9
$PUCSORGRIGHT
 10
0.0
 20
0.0
 30
0.0
  9
$PUCSORGFRONT
 10
0.0
 20
0.0
 30
0.0
  9
$PUCSORGBACK
 10
0.0
 20
0.0
 30
0.0
  9
$USERI1
 70
     0
  9
$USERI2
 70
     0
  9
$USERI3
 70
     0
  9
$USERI4
 70
     0
  9
$USERI5
 70
     0
  9
$USERR1
 40
0.0
  9
$USERR2
 40
0.0
  9
$USERR3
 40
0.0
  9
$USERR4
 40
0.0
  9
$USERR5
 40
0.0
  9
$WORLDVIEW
 70
     1
  9
$SHADEDGE
 70
     3
  9
$SHADEDIF
 70
    70
  9
$TILEMODE
 70
     1
  9
$MAXACTVP
 70
    64
  9
$PINSBASE
 10
0.0
 20
0.0
 30
0.0
  9
$PLIMCHECK
 70
     0
  9
$PEXTMIN
 10
1.000000000000000E+20
 20
1.000000000000000E+20
 30
1.000000000000000E+20
  9
$PEXTMAX
 10
-1.000000000000000E+20
 20
-1.000000000000000E+20
 30
-1.000000000000000E+20
  9
$PLIMMIN
 10
0.0
 20
0.0
  9
$PLIMMAX
 10
12.0
 20
9.0
  9
$UNITMODE
 70
     0
  9
$VISRETAIN
 70
     1
  9
$PLINEGEN
 70
     0
  9
$PSLTSCALE
 70
     1
  9
$TREEDEPTH
 70
  3020
  9
$CMLSTYLE
  2
Standard
  9
$CMLJUST
 70
     0
  9
$CMLSCALE
 40
1.0
  9
$PROXYGRAPHICS
 70
     1
  9
$MEASUREMENT
 70
     0
  9
$CELWEIGHT
370
    -1
  9
$ENDCAPS
280
     0
  9
$JOINSTYLE
280
     0
  9
$LWDISPLAY
290
     1
  9
$INSUNITS
 70
     4
  9
$HYPERLINKBASE
  1

  9
$STYLESHEET
  1

  9
$XEDIT
290
     1
  9
$CEPSNTYPE
380
     0
  9
$PSTYLEMODE
290
     1
  9
$FINGERPRINTGUID
  2
{7ED6224C-CECF-1948-8CF6-39EB25B9A996}
  9
$VERSIONGUID
  2
{012222FD-662B-8C45-97DA-0C6E92F15441}
  9
$EXTNAMES
290
     1
  9
$PSVPSCALE
 40
0.0
  9
$OLESTARTUP
290
     0
  9
$SORTENTS
280
   127
  9
$INDEXCTL
280
     0
  9
$HIDETEXT
280
     1
  9
$XCLIPFRAME
280
     2
  9
$HALOGAP
280
     0
  9
$OBSCOLOR
 70
   257
  9
$OBSLTYPE
280
     0
  9
$INTERSECTIONDISPLAY
280
     0
  9
$INTERSECTIONCOLOR
 70
   257
  9
$DIMASSOC
280
     2
  9
$PROJECTNAME
  1

  9
$CAMERADISPLAY
290
     0
  9
$LENSLENGTH
 40
50.0
  9
$CAMERAHEIGHT
 40
0.0
  9
$STEPSPERSEC
 40
2.0
  9
$STEPSIZE
 40
6.0
  9
$3DDWFPREC
 40
2.0
  9
$PSOLWIDTH
 40
0.25
  9
$PSOLHEIGHT
 40
4.0
  9
$LOFTANG1
 40
1.570796326794896
  9
$LOFTANG2
 40
1.570796326794896
  9
$LOFTMAG1
 40
0.0
  9
$LOFTMAG2
 40
0.0
  9
$LOFTPARAM
 70
     7
  9
$LOFTNORMALS
280
     1
  9
$LATITUDE
 40
37.795
  9
$LONGITUDE
 40
-122.394
  9
$NORTHDIRECTION
 40
0.0
  9
$TIMEZONE
 70
 -8000
  9
$LIGHTGLYPHDISPLAY
280
     1
  9
$TILEMODELIGHTSYNCH
280
     1
  9
$CMATERIAL
347
11
  9
$SOLIDHIST
280
     0
  9
$SHOWHIST
280
     1
  9
$DWFFRAME
280
     2
  9
$DGNFRAME
280
     0
  9
$REALWORLDSCALE
290
     1
  9
$INTERFERECOLOR
 62
     1
  9
$INTERFEREOBJVS
345
33
  9
$INTERFEREVPVS
346
30
  9
$CSHADOW
280
     0
  9
$SHADOWPLANELOCATION
 40
0.0
  0
ENDSEC
  0
SECTION
  2
CLASSES
  0
CLASS
  1
ACDBDICTIONARYWDFLT
  2
AcDbDictionaryWithDefault
  3
ObjectDBX Classes
 90
        0
 91
        1
280
     0
281
     0
  0
CLASS
  1
MATERIAL
  2
AcDbMaterial
  3
ObjectDBX Classes
 90
     1153
 91
        3
280
     0
281
     0
  0
CLASS
  1
VISUALSTYLE
  2
AcDbVisualStyle
  3
ObjectDBX Classes
 90
     4095
 91
       24
280
     0
281
     0
  0
CLASS
  1
SCALE
  2
AcDbScale
  3
ObjectDBX Classes
 90
     1153
 91
       17
280
     0
281
     0
  0
CLASS
  1
TABLESTYLE
  2
AcDbTableStyle
  3
ObjectDBX Classes
 90
     4095
 91
        1
280
     0
281
     0
  0
CLASS
  1
MLEADERSTYLE
  2
AcDbMLeaderStyle
  3
ACDB_MLEADERSTYLE_CLASS
 90
     4095
 91
        1
280
     0
281
     0
  0
CLASS
  1
ACDBSECTIONVIEWSTYLE
  2
AcDbSectionViewStyle
  3
ObjectDBX Classes
 90
     1025
 91
        1
280
     0
281
     0
  0
CLASS
  1
ACDBDETAILVIEWSTYLE
  2
AcDbDetailViewStyle
  3
ObjectDBX Classes
 90
     1025
 91
        1
280
     0
281
     0
  0
CLASS
  1
DICTIONARYVAR
  2
AcDbDictionaryVar
  3
ObjectDBX Classes
 90
        0
 91
        5
280
     0
281
     0
  0
CLASS
  1
CELLSTYLEMAP
  2
AcDbCellStyleMap
  3
ObjectDBX Classes
 90
     1152
 91
        1
280
     0
281
     0
  0
ENDSEC
  0
SECTION
  2
TABLES
  0
TABLE
  2
VPORT
  5
8
330
0
100
AcDbSymbolTable
 70
     1
  0
VPORT
  5
57
330
8
100
AcDbSymbolTableRecord
100
AcDbViewportTableRecord
  2
*Active
 70
     0
 10
0.0
 20
0.0
 11
1.0
 21
1.0
 12
0.0
 22
0.0
 13
0.0
 23
0.0
 14
1.0
 24
1.0
 15
0.0
 25
0.0
 16
0.0
 26
0.0
 36
1.0
 17
19.24999999518745
 27
-51.19999998719991
 37
0.0
 40
104.4479999738878
 41
0.3759765624999998
 42
50.0
 43
0.0
 44
0.0
 50
0.0
 51
0.0
 71
     0
 72
   100
 73
     1
 74
     1
 75
     0
 76
     0
 77
     0
 78
     0
281
     0
 65
     1
110
0.0
120
0.0
130
0.0
111
1.0
121
0.0
131
0.0
112
0.0
122
1.0
132
0.0
 79
     0
146
0.0
 60
     3
 61
     5
292
     1
282
     1
141
0.0
142
0.0
 63
   250
421
  3355443
  0
ENDTAB
  0
TABLE
  2
LTYPE
  5
5
330
0
100
AcDbSymbolTable
 70
     1
  0
LTYPE
  5
5B
330
5
100
AcDbSymbolTableRecord
100
AcDbLinetypeTableRecord
  2
ByBlock
 70
     0
  3

 72
    65
 73
     0
 40
0.0
  0
LTYPE
  5
5C
330
5
100
AcDbSymbolTableRecord
100
AcDbLinetypeTableRecord
  2
ByLayer
 70
     0
  3

 72
    65
 73
     0
 40
0.0
  0
LTYPE
  5
5D
330
5
100
AcDbSymbolTableRecord
100
AcDbLinetypeTableRecord
  2
Continuous
 70
     0
  3
Solid line
 72
    65
 73
     0
 40
0.0
  0
ENDTAB
  0
TABLE
  2
LAYER
  5
2
330
0
100
AcDbSymbolTable
 70
     2
  0
LAYER
  5
54
330
2
100
AcDbSymbolTableRecord
100
AcDbLayerTableRecord
  2
0
 70
     0
 62
     7
  6
Continuous
370
    -3
390
F
347
21
348
0
  0
LAYER
  5
78
330
2
100
AcDbSymbolTableRecord
100
AcDbLayerTableRecord
  2
レイヤー 1
 70
     0
 62
     7
  6
Continuous
370
     0
390
F
347
21
348
0
  0
ENDTAB
  0
TABLE
  2
STYLE
  5
3
330
0
100
AcDbSymbolTable
 70
     2
  0
STYLE
  5
55
330
3
100
AcDbSymbolTableRecord
100
AcDbTextStyleTableRecord
  2
Standard
 70
     0
 40
0.0
 41
1.0
 50
0.0
 71
     0
 42
0.2
  3
txt
  4

  0
STYLE
  5
5A
330
3
100
AcDbSymbolTableRecord
100
AcDbTextStyleTableRecord
  2
Annotative
 70
     0
 40
0.0
 41
1.0
 50
0.0
 71
     0
 42
0.2
  3
txt
  4

1001
AcadAnnotative
1000
AnnotativeData
1002
{
1070
     1
1070
     1
1002
}
  0
ENDTAB
  0
TABLE
  2
VIEW
  5
6
330
0
100
AcDbSymbolTable
 70
     0
  0
ENDTAB
  0
TABLE
  2
UCS
  5
7
330
0
100
AcDbSymbolTable
 70
     0
  0
ENDTAB
  0
TABLE
  2
APPID
  5
9
330
0
100
AcDbSymbolTable
 70
     2
  0
APPID
  5
56
330
9
100
AcDbSymbolTableRecord
100
AcDbRegAppTableRecord
  2
ACAD
 70
     0
  0
APPID
  5
5E
330
9
100
AcDbSymbolTableRecord
100
AcDbRegAppTableRecord
  2
AcadAnnotative
 70
     0
  0
ENDTAB
  0
TABLE
  2
DIMSTYLE
  5
A
330
0
100
AcDbSymbolTable
 70
     2
100
AcDbDimStyleTable
 71
     0
  0
DIMSTYLE
105
58
330
A
100
AcDbSymbolTableRecord
100
AcDbDimStyleTableRecord
  2
Standard
 70
     0
340
55
  0
DIMSTYLE
105
59
330
A
100
AcDbSymbolTableRecord
100
AcDbDimStyleTableRecord
  2
Annotative
 70
     0
340
55
1001
AcadAnnotative
1000
AnnotativeData
1002
{
1070
     1
1070
     1
1002
}
  0
ENDTAB
  0
TABLE
  2
BLOCK_RECORD
  5
1
330
0
100
AcDbSymbolTable
 70
     2
  0
BLOCK_RECORD
  5
70
330
1
100
AcDbSymbolTableRecord
100
AcDbBlockTableRecord
  2
*Model_Space
340
73
 70
     0
280
     1
281
     0
  0
BLOCK_RECORD
  5
6C
330
1
100
AcDbSymbolTableRecord
100
AcDbBlockTableRecord
  2
*Paper_Space
340
6F
 70
     0
280
     1
281
     0
  0
BLOCK_RECORD
  5
74
330
1
100
AcDbSymbolTableRecord
100
AcDbBlockTableRecord
  2
*Paper_Space0
340
77
 70
     0
280
     1
281
     0
  0
BLOCK_RECORD
  5
79
330
1
100
AcDbSymbolTableRecord
100
AcDbBlockTableRecord
  2
Block_0
340
0
102
{BLKREFS
331
7A
102
}
 70
     0
280
     1
281
     0
  0
ENDTAB
  0
ENDSEC
  0
SECTION
  2
BLOCKS
  0
BLOCK
  5
71
330
70
100
AcDbEntity
  8
0
100
AcDbBlockBegin
  2
*Model_Space
 70
     0
 10
0.0
 20
0.0
 30
0.0
  3
*Model_Space
  1

  0
ENDBLK
  5
72
330
70
100
AcDbEntity
  8
0
100
AcDbBlockEnd
  0
BLOCK
  5
6D
330
6C
100
AcDbEntity
 67
     1
  8
0
100
AcDbBlockBegin
  2
*Paper_Space
 70
     0
 10
0.0
 20
0.0
 30
0.0
  3
*Paper_Space
  1

  0
ENDBLK
  5
6E
330
6C
100
AcDbEntity
 67
     1
  8
0
100
AcDbBlockEnd
  0
BLOCK
  5
75
330
74
100
AcDbEntity
 67
     1
  8
0
100
AcDbBlockBegin
  2
*Paper_Space0
 70
     0
 10
0.0
 20
0.0
 30
0.0
  3
*Paper_Space0
  1

  0
ENDBLK
  5
76
330
74
100
AcDbEntity
 67
     1
  8
0
100
AcDbBlockEnd
  0
BLOCK
  5
7B
330
79
100
AcDbEntity
  8
0
100
AcDbBlockBegin
  2
Block_0
 70
     0
 10
0.0
 20
0.0
 30
0.0
  3
Block_0
  1

  0
SPLINE
  5
7D
330
79
100
AcDbEntity
  8
レイヤー 1
 62
   250
420
  2299925
370
     9
100
AcDbSpline
210
0.0
220
0.0
230
1.0
 70
     9
 71
     3
 72
   344
 73
   340
 74
     0
 42
0.0000000001
 43
0.0000000001
 40
0.0
 40
0.0
 40
0.0
 40
0.0
 40
1.0
 40
1.0
 40
1.0
 40
2.0
 40
2.0
 40
2.0
 40
3.0
 40
3.0
 40
3.0
 40
4.0
 40
4.0
 40
4.0
 40
5.0
 40
5.0
 40
5.0
 40
6.0
 40
6.0
 40
6.0
 40
7.0
 40
7.0
 40
7.0
 40
8.0
 40
8.0
 40
8.0
 40
9.0
 40
9.0
 40
9.0
 40
10.0
 40
10.0
 40
10.0
 40
11.0
 40
11.0
 40
11.0
 40
12.0
 40
12.0
 40
12.0
 40
13.0
 40
13.0
 40
13.0
 40
14.0
 40
14.0
 40
14.0
 40
15.0
 40
15.0
 40
15.0
 40
16.0
 40
16.0
 40
16.0
 40
17.0
 40
17.0
 40
17.0
 40
18.0
 40
18.0
 40
18.0
 40
19.0
 40
19.0
 40
19.0
 40
20.0
 40
20.0
 40
20.0
 40
21.0
 40
21.0
 40
21.0
 40
22.0
 40
22.0
 40
22.0
 40
23.0
 40
23.0
 40
23.0
 40
24.0
 40
24.0
 40
24.0
 40
25.0
 40
25.0
 40
25.0
 40
26.0
 40
26.0
 40
26.0
 40
27.0
 40
27.0
 40
27.0
 40
28.0
 40
28.0
 40
28.0
 40
29.0
 40
29.0
 40
29.0
 40
30.0
 40
30.0
 40
30.0
 40
31.0
 40
31.0
 40
31.0
 40
32.0
 40
32.0
 40
32.0
 40
33.0
 40
33.0
 40
33.0
 40
34.0
 40
34.0
 40
34.0
 40
35.0
 40
35.0
 40
35.0
 40
36.0
 40
36.0
 40
36.0
 40
37.0
 40
37.0
 40
37.0
 40
38.0
 40
38.0
 40
38.0
 40
39.0
 40
39.0
 40
39.0
 40
40.0
 40
40.0
 40
40.0
 40
41.0
 40
41.0
 40
41.0
 40
42.0
 40
42.0
 40
42.0
 40
43.0
 40
43.0
 40
43.0
 40
44.0
 40
44.0
 40
44.0
 40
45.0
 40
45.0
 40
45.0
 40
46.0
 40
46.0
 40
46.0
 40
47.0
 40
47.0
 40
47.0
 40
48.0
 40
48.0
 40
48.0
 40
49.0
 40
49.0
 40
49.0
 40
50.0
 40
50.0
 40
50.0
 40
51.0
 40
51.0
 40
51.0
 40
52.0
 40
52.0
 40
52.0
 40
53.0
 40
53.0
 40
53.0
 40
54.0
 40
54.0
 40
54.0
 40
55.0
 40
55.0
 40
55.0
 40
56.0
 40
56.0
 40
56.0
 40
57.0
 40
57.0
 40
57.0
 40
58.0
 40
58.0
 40
58.0
 40
59.0
 40
59.0
 40
59.0
 40
60.0
 40
60.0
 40
60.0
 40
61.0
 40
61.0
 40
61.0
 40
62.0
 40
62.0
 40
62.0
 40
63.0
 40
63.0
 40
63.0
 40
64.0
 40
64.0
 40
64.0
 40
65.0
 40
65.0
 40
65.0
 40
66.0
 40
66.0
 40
66.0
 40
67.0
 40
67.0
 40
67.0
 40
68.0
 40
68.0
 40
68.0
 40
69.0
 40
69.0
 40
69.0
 40
70.0
 40
70.0
 40
70.0
 40
71.0
 40
71.0
 40
71.0
 40
72.0
 40
72.0
 40
72.0
 40
73.0
 40
73.0
 40
73.0
 40
74.0
 40
74.0
 40
74.0
 40
75.0
 40
75.0
 40
75.0
 40
76.0
 40
76.0
 40
76.0
 40
77.0
 40
77.0
 40
77.0
 40
78.0
 40
78.0
 40
78.0
 40
79.0
 40
79.0
 40
79.0
 40
80.0
 40
80.0
 40
80.0
 40
81.0
 40
81.0
 40
81.0
 40
82.0
 40
82.0
 40
82.0
 40
83.0
 40
83.0
 40
83.0
 40
84.0
 40
84.0
 40
84.0
 40
85.0
 40
85.0
 40
85.0
 40
86.0
 40
86.0
 40
86.0
 40
87.0
 40
87.0
 40
87.0
 40
88.0
 40
88.0
 40
88.0
 40
89.0
 40
89.0
 40
89.0
 40
90.0
 40
90.0
 40
90.0
 40
91.0
 40
91.0
 40
91.0
 40
92.0
 40
92.0
 40
92.0
 40
93.0
 40
93.0
 40
93.0
 40
94.0
 40
94.0
 40
94.0
 40
95.0
 40
95.0
 40
95.0
 40
96.0
 40
96.0
 40
96.0
 40
97.0
 40
97.0
 40
97.0
 40
98.0
 40
98.0
 40
98.0
 40
99.0
 40
99.0
 40
99.0
 40
100.0
 40
100.0
 40
100.0
 40
101.0
 40
101.0
 40
101.0
 40
102.0
 40
102.0
 40
102.0
 40
103.0
 40
103.0
 40
103.0
 40
104.0
 40
104.0
 40
104.0
 40
105.0
 40
105.0
 40
105.0
 40
106.0
 40
106.0
 40
106.0
 40
107.0
 40
107.0
 40
107.0
 40
108.0
 40
108.0
 40
108.0
 40
109.0
 40
109.0
 40
109.0
 40
110.0
 40
110.0
 40
110.0
 40
111.0
 40
111.0
 40
111.0
 40
112.0
 40
112.0
 40
112.0
 40
113.0
 40
113.0
 40
113.0
 40
113.0
 10
36.07538196933402
 20
-20.51625416560661
 30
0.0
 10
36.00798728890382
 20
-20.50131106393934
 30
0.0
 10
35.93402539520486
 20
-20.49127722333855
 30
0.0
 10
35.85304411945471
 20
-20.48636796227207
 30
0.0
 10
35.61014335589781
 20
-20.4715540516855
 30
0.0
 10
35.30430500419476
 20
-20.50290442060127
 30
0.0
 10
34.92467701356701
 20
-20.58657717719928
 30
0.0
 10
34.70651634196356
 20
-20.63467932291208
 30
0.0
 10
34.49543964795167
 20
-20.69535606714604
 30
0.0
 10
34.28752813541684
 20
-20.7615449641564
 30
0.0
 10
34.23509808850069
 20
-20.7782106135663
 30
0.0
 10
34.18279723266524
 20
-20.79500545405689
 30
0.0
 10
34.1309916093058
 20
-20.81274769580593
 30
0.0
 10
33.93546090867108
 20
-20.8799270577683
 30
0.0
 10
33.74322458059415
 20
-20.9527046998942
 30
0.0
 10
33.55652193714039
 20
-21.03482716352385
 30
0.0
 10
33.50798915449193
 20
-21.05610062814526
 30
0.0
 10
33.46137270620714
 20
-21.08043161500984
 30
0.0
 10
33.4134428152686
 20
-21.10269554458327
 30
0.0
 10
33.27290445131719
 20
-21.16806623141588
 30
0.0
 10
33.13479918605224
 20
-21.2374418417501
 30
0.0
 10
32.99917008316731
 20
-21.31077931189236
 30
0.0
 10
32.9306557467044
 20
-21.34772796097166
 30
0.0
 10
32.86196915546724
 20
-21.38424597311531
 30
0.0
 10
32.79470366611774
 20
-21.42313248840507
 30
0.0
 10
32.64027726099141
 20
-21.51261884363443
 30
0.0
 10
32.48869305964042
 20
-21.60645463191393
 30
0.0
 10
32.34053242192789
 20
-21.70558725450199
 30
0.0
 10
32.26299624166298
 20
-21.75734981416787
 30
0.0
 10
32.18761324607636
 20
-21.81221295977048
 30
0.0
 10
32.11175654986052
 20
-21.86651627735672
 30
0.0
 10
32.02018160549322
 20
-21.93210228265717
 30
0.0
 10
31.92981244454576
 20
-21.99936777200667
 30
0.0
 10
31.84058447147779
 20
-22.06844193648593
 30
0.0
 10
31.76724700133553
 20
-22.12519988460542
 30
0.0
 10
31.69319898024945
 20
-22.18070898561151
 30
0.0
 10
31.6214763986159
 20
-22.23974930948998
 30
0.0
 10
31.62059359289781
 20
-22.24043832858702
 30
0.0
 10
31.61964619163936
 20
-22.24112734768408
 30
0.0
 10
31.61876338592127
 20
-22.24185943047469
 30
0.0
 10
31.61876338592127
 20
-22.24185943047469
 30
0.0
 10
31.61876338592127
 20
-22.24207474894252
 30
0.0
 10
31.61876338592127
 20
-22.24207474894252
 30
0.0
 10
31.08427835323154
 20
-22.68209956979605
 30
0.0
 10
30.59184501730864
 20
-23.18060488651171
 30
0.0
 10
30.13877189730472
 20
-23.72135568661524
 30
0.0
 10
30.13877189730472
 20
-23.72135568661524
 30
0.0
 10
30.13877189730472
 20
-24.21706186324912
 30
0.0
 10
30.13877189730472
 20
-24.21706186324912
 30
0.0
 10
30.13877189730472
 20
-24.45072546453619
 30
0.0
 10
29.94935624115633
 20
-24.6401195888378
 30
0.0
 10
29.71569263986926
 20
-24.6401195888378
 30
0.0
 10
29.71569263986926
 20
-24.6401195888378
 30
0.0
 10
29.42507730384165
 20
-24.6401195888378
 30
0.0
 10
29.42507730384165
 20
-24.6401195888378
 30
0.0
 10
29.13428971303978
 20
-25.04741600258146
 30
0.0
 10
28.86630434798091
 20
-25.47146419312215
 30
0.0
 10
28.60798678212752
 20
-25.90012019887437
 30
0.0
 10
28.60798678212752
 20
-25.90012019887437
 30
0.0
 10
28.60152722809268
 20
-25.90012019887437
 30
0.0
 10
28.60152722809268
 20
-25.90012019887437
 30
0.0
 10
28.56096122875386
 20
-25.967471815611
 30
0.0
 10
28.52599350957857
 20
-26.03658904378383
 30
0.0
 10
28.48615959303037
 20
-26.10428517006898
 30
0.0
 10
28.32531669756277
 20
-26.37752430574286
 30
0.0
 10
28.17030893257331
 20
-26.65140939682022
 30
0.0
 10
28.02096404328773
 20
-26.92757686365656
 30
0.0
 10
27.96642387538687
 20
-27.02838897029369
 30
0.0
 10
27.91097936992113
 20
-27.12782303873671
 30
0.0
 10
27.85788183575471
 20
-27.2286782090674
 30
0.0
 10
27.66614074015378
 20
-27.5930831840197
 30
0.0
 10
27.48070847566021
 20
-27.95705752203634
 30
0.0
 10
27.30627898487265
 20
-28.31685468177712
 30
0.0
 10
26.93728772655561
 20
-29.07791933816238
 30
0.0
 10
26.60375941988986
 20
-29.89341650321458
 30
0.0
 10
26.47713062896015
 20
-30.73496720287399
 30
0.0
 10
26.43113860423206
 20
-30.70719112052416
 30
0.0
 10
26.40723825430314
 20
-30.66421355434567
 30
0.0
 10
26.39453446470128
 20
-30.61245099467979
 30
0.0
 10
26.38816103805357
 20
-30.58656971484685
 30
0.0
 10
26.38460828333441
 20
-30.55849218664207
 30
0.0
 10
26.38247663050291
 20
-30.52903662024318
 30
0.0
 10
26.37395001917691
 20
-30.41117129095407
 30
0.0
 10
26.38826869728748
 20
-30.2709559047044
 30
0.0
 10
26.33818562167066
 20
-30.1595931931437
 30
0.0
 10
26.32565408684307
 20
-30.13177404710031
 30
0.0
 10
26.30911762851387
 20
-30.1057205124931
 30
0.0
 10
26.28717667664218
 20
-30.08229386319341
 30
0.0
 10
26.24471587478648
 20
-30.0369477938688
 30
0.0
 10
26.16726582190871
 20
-29.99853497920827
 30
0.0
 10
26.07786559406648
 20
-29.96821813893807
 30
0.0
 10
26.01826544217165
 20
-29.94797820296223
 30
0.0
 10
25.95332539227469
 20
-29.93126948985877
 30
0.0
 10
25.88995716719288
 20
-29.91856570025691
 30
0.0
 10
25.85826228872858
 20
-29.9121922736092
 30
0.0
 10
25.82695498350637
 20
-29.90680931191349
 30
0.0
 10
25.79687499355078
 20
-29.9024168151698
 30
0.0
 10
25.73671501363961
 20
-29.89371794906954
 30
0.0
 10
25.68152889033526
 20
-29.88911013385802
 30
0.0
 10
25.63807762352755
 20
-29.88893787908376
 30
0.0
 10
25.63807762352755
 20
-29.88893787908376
 30
0.0
 10
25.63383584971134
 20
-29.55515119025661
 30
0.0
 10
25.63383584971134
 20
-29.55515119025661
 30
0.0
 10
25.63383584971134
 20
-29.55515119025661
 30
0.0
 10
25.63381431786455
 20
-29.55515119025661
 30
0.0
 10
25.63381431786455
 20
-29.55515119025661
 30
0.0
 10
25.4757920943255
 20
-29.66397314389694
 30
0.0
 10
25.41860350927035
 20
-29.72060190093574
 30
0.0
 10
25.4105290667268
 20
-29.75854101496705
 30
0.0
 10
25.40514610503109
 20
-29.78381940309007
 30
0.0
 10
25.42157490412638
 20
-29.80082956204849
 30
0.0
 10
25.44450632095007
 20
-29.81947614136241
 30
0.0
 10
25.47889268026223
 20
-29.84742447848649
 30
0.0
 10
25.52789916353991
 20
-29.87907629325723
 30
0.0
 10
25.53976321111723
 20
-29.94793513926866
 30
0.0
 10
25.55143347207352
 20
-30.01567432924739
 30
0.0
 10
25.47174410713033
 20
-30.09512684387596
 30
0.0
 10
25.42075669394864
 20
-30.18396724370184
 30
0.0
 10
25.40374653499021
 20
-30.21359506487499
 30
0.0
 10
25.38994462120243
 20
-30.24425641469371
 30
0.0
 10
25.38376498117576
 20
-30.27590822946445
 30
0.0
 10
25.36231926178008
 20
-30.38567758436322
 30
0.0
 10
25.36227619808652
 20
-30.47421653833414
 30
0.0
 10
25.37685325835848
 20
-30.55052540333242
 30
0.0
 10
25.39145185047722
 20
-30.62692039571784
 30
0.0
 10
25.42062750286794
 20
-30.69108529913062
 30
0.0
 10
25.45764074748759
 20
-30.7522357439938
 30
0.0
 10
25.47613660387402
 20
-30.78281096642539
 30
0.0
 10
25.49661339016448
 20
-30.81265410606637
 30
0.0
 10
25.51816676879407
 20
-30.84288481894944
 30
0.0
 10
25.56129505790004
 20
-30.903303181022
 30
0.0
 10
25.60879431190292
 20
-30.9653148997565
 30
0.0
 10
25.6539250627597
 20
-31.03804947818884
 30
0.0
 10
25.67649043818808
 20
-31.07439523555822
 30
0.0
 10
25.69845292190655
 20
-31.11341094192868
 30
0.0
 10
25.71897277189057
 20
-31.15625931702648
 30
0.0
 10
25.71897277189057
 20
-31.15625931702648
 30
0.0
 10
24.17404123337707
 20
-30.29855973227996
 30
0.0
 10
24.17404123337707
 20
-30.29855973227996
 30
0.0
 10
23.50724300220696
 20
-30.0770400925784
 30
0.0
 10
22.81490800075244
 20
-29.88458844603363
 30
0.0
 10
22.11525217139176
 20
-29.72086028309713
 30
0.0
 10
21.41559634203108
 20
-29.55721824754776
 30
0.0
 10
20.70864121661104
 20
-29.4222566319131
 30
0.0
 10
20.01253814196952
 20
-29.31576011772532
 30
0.0
 10
19.02764993827694
 20
-29.1650802539392
 30
0.0
 10
17.45748307533398
 20
-28.96733177308586
 30
0.0
 10
15.93093973397299
 20
-28.96905432082848
 30
0.0
 10
14.40437486076523
 20
-28.97077686857111
 30
0.0
 10
12.92141197729265
 20
-29.17205657229683
 30
0.0
 10
12.11088866884728
 20
-29.81943307766884
 30
0.0
 10
11.97715436847923
 20
-29.92627410140515
 30
0.0
 10
11.906293060717
 20
-30.03022985767257
 30
0.0
 10
11.88172522353781
 20
-30.13074051845473
 30
0.0
 10
11.87352158991356
 20
-30.16424407204878
 30
0.0
 10
11.8704640676704
 20
-30.19731698870718
 30
0.0
 10
11.87194976509842
 20
-30.23004539581706
 30
0.0
 10
11.87636379368889
 20
-30.32823061714668
 30
0.0
 10
11.92151607639245
 20
-30.42275542452322
 30
0.0
 10
11.99080555933954
 20
-30.51314611731746
 30
0.0
 10
12.01388769909071
 20
-30.54320457542627
 30
0.0
 10
12.03966131968974
 20
-30.57291852398654
 30
0.0
 10
12.06750199757991
 20
-30.60207264453048
 30
0.0
 10
12.12316182151348
 20
-30.66042394931189
 30
0.0
 10
12.18711140645843
 20
-30.71683738788286
 30
0.0
 10
12.25437689580793
 20
-30.77109764177555
 30
0.0
 10
12.45619489570322
 20
-30.93396453084073
 30
0.0
 10
12.68802829001376
 20
-31.07784033104348
 30
0.0
 10
12.81700405224279
 20
-31.19824641825296
 30
0.0
 10
13.53438059150573
 20
-31.86805910797266
 30
0.0
 10
14.3873647018068
 20
-32.9142484794559
 30
0.0
 10
15.32260046681822
 20
-33.24670019378251
 30
0.0
 10
15.92361890606684
 20
-33.460296113868
 30
0.0
 10
16.2930838650131
 20
-33.35578052958423
 30
0.0
 10
16.82558796779881
 20
-33.85200347054091
 30
0.0
 10
16.97409311505986
 20
-33.99036711796725
 30
0.0
 10
17.10399474670056
 20
-34.13355389907295
 30
0.0
 10
17.2280827797099
 20
-34.27669761648508
 30
0.0
 10
17.60032534689115
 20
-34.70612876872147
 30
0.0
 10
17.9202024626966
 20
-35.13525847510291
 30
0.0
 10
18.53243899411906
 20
-35.4341635721419
 30
0.0
 10
19.40996940975254
 20
-35.86256119573271
 30
0.0
 10
19.92104932498936
 20
-35.92681222653262
 30
0.0
 10
20.76888732390934
 20
-35.44148440004805
 30
0.0
 10
20.84144964756742
 20
-35.39992793575723
 30
0.0
 10
21.07147436674819
 20
-35.22000782404005
 30
0.0
 10
21.29165903194922
 20
-35.05826059100757
 30
0.0
 10
21.51182216530347
 20
-34.89659948536222
 30
0.0
 10
21.72210218098441
 20
-34.753068194708
 30
0.0
 10
21.7553042887235
 20
-34.78424630884951
 30
0.0
 10
21.72376013318668
 20
-34.83880800859715
 30
0.0
 10
21.68935224202775
 20
-34.8936280905062
 30
0.0
 10
21.65279116619053
 20
-34.94879268196376
 30
0.0
 10
21.64973364394738
 20
-34.95344356086885
 30
0.0
 10
21.646202421075
 20
-34.9581375034675
 30
0.0
 10
21.64310183513827
 20
-34.96278838237259
 30
0.0
 10
21.10108065607456
 20
-35.77311790419692
 30
0.0
 10
20.10434993665143
 20
-36.65213401725841
 30
0.0
 10
20.67369502928253
 20
-37.67201147197306
 30
0.0
 10
20.68484852591603
 20
-37.6919930257875
 30
0.0
 10
20.6921478219754
 20
-37.71158700635986
 30
0.0
 10
20.70452863387552
 20
-37.73169775125501
 30
0.0
 10
20.83453792475014
 20
-37.94275291342013
 30
0.0
 10
21.07392899728143
 20
-38.14093203120913
 30
0.0
 10
21.37309247648182
 20
-38.32778539759036
 30
0.0
 10
21.3731140083286
 20
-38.32782846128393
 30
0.0
 10
21.37315707202216
 20
-38.32782846128393
 30
0.0
 10
21.37317860386895
 20
-38.32782846128393
 30
0.0
 10
22.22002613783692
 20
-38.85665061826978
 30
0.0
 10
23.56865182923154
 20
-39.28987137553995
 30
0.0
 10
24.4567328497886
 20
-39.631797102451
 30
0.0
 10
24.47247262978683
 20
-39.63782601955018
 30
0.0
 10
24.48776024100263
 20
-39.64385493664937
 30
0.0
 10
24.5031985751459
 20
-39.64984079005499
 30
0.0
 10
24.56497344356579
 20
-39.67387033106461
 30
0.0
 10
24.62343240758113
 20
-39.69725391667074
 30
0.0
 10
24.68001810092635
 20
-39.72037912011548
 30
0.0
 10
24.69976280442619
 20
-39.72843203081225
 30
0.0
 10
24.72006733594238
 20
-39.73661413258972
 30
0.0
 10
24.73912302034517
 20
-39.74458091589936
 30
0.0
 10
24.8079818663566
 20
-39.77330439950763
 30
0.0
 10
24.87350327611669
 20
-39.80151111879312
 30
0.0
 10
24.93247900445482
 20
-39.82881350051372
 30
0.0
 10
25.16355878412795
 20
-39.93574065163716
 30
0.0
 10
25.37187940175165
 20
-40.04985943958605
 30
0.0
 10
25.57085519787161
 20
-40.1640643549221
 30
0.0
 10
25.86932965797494
 20
-40.33528560053901
 30
0.0
 10
26.14672444007791
 20
-40.50667910093019
 30
0.0
 10
26.44829948611796
 20
-40.65421531508601
 30
0.0
 10
26.74987453215802
 20
-40.80175152924184
 30
0.0
 10
27.07558677844161
 20
-40.9254304571623
 30
0.0
 10
27.47065310321263
 20
-41.00126562153136
 30
0.0
 10
27.69288329385803
 20
-41.0439417418549
 30
0.0
 10
28.18957993544393
 20
-41.12950930096979
 30
0.0
 10
28.62755923085309
 20
-41.14884489938076
 30
0.0
 10
28.67622120458225
 20
-41.15099808405903
 30
0.0
 10
28.72417262736757
 20
-41.15237612225313
 30
0.0
 10
28.77093979857983
 20
-41.15272063180166
 30
0.0
 10
29.05149976215987
 20
-41.15495994386708
 30
0.0
 10
29.28951279649707
 20
-41.12236072783789
 30
0.0
 10
29.38627691593902
 20
-41.02266827723348
 30
0.0
 10
29.8540562872956
 20
-40.54074248254059
 30
0.0
 10
29.03240101406352
 20
-38.34600133996863
 30
0.0
 10
29.17752566137967
 20
-37.65078107104521
 30
0.0
 10
29.22782405546432
 20
-37.69582569451485
 30
0.0
 10
29.27898372342027
 20
-37.74664085292228
 30
0.0
 10
29.3308108786265
 20
-37.80094417050854
 30
0.0
 10
29.34779950573814
 20
-37.81872947595114
 30
0.0
 10
29.36517570609187
 20
-37.83862490237846
 30
0.0
 10
29.38233658797777
 20
-37.85722841799881
 30
0.0
 10
29.41805792179046
 20
-37.89611493328856
 30
0.0
 10
29.45386538299027
 20
-37.93534595812685
 30
0.0
 10
29.49034033144035
 20
-37.97746225043403
 30
0.0
 10
29.5103218852548
 20
-38.0005443901852
 30
0.0
 10
29.53060488492421
 20
-38.02478924966264
 30
0.0
 10
29.55080175720649
 20
-38.04868959959156
 30
0.0
 10
29.58658768655952
 20
-38.09106427406014
 30
0.0
 10
29.6224382114529
 20
-38.13378345807723
 30
0.0
 10
29.65893469174977
 20
-38.17839744461122
 30
0.0
 10
29.67900237295135
 20
-38.20290068625006
 30
0.0
 10
29.69924230892719
 20
-38.22766231005029
 30
0.0
 10
29.7195253085966
 20
-38.25272537970548
 30
0.0
 10
29.77372096694893
 20
-38.31964635950646
 30
0.0
 10
29.82858411255154
 20
-38.38773005903372
 30
0.0
 10
29.88439465941258
 20
-38.45736405152933
 30
0.0
 10
29.90536667817904
 20
-38.48350371352366
 30
0.0
 10
29.92631716509872
 20
-38.5093849933566
 30
0.0
 10
29.94752603417979
 20
-38.53573997381876
 30
0.0
 10
29.98561587113858
 20
-38.58311003674094
 30
0.0
 10
30.02368417625059
 20
-38.63013559011461
 30
0.0
 10
30.06254915969357
 20
-38.67772097150462
 30
0.0
 10
30.09125111145506
 20
-38.71290400914773
 30
0.0
 10
30.12040523199898
 20
-38.74765640985519
 30
0.0
 10
30.14953782069613
 20
-38.78275332011117
 30
0.0
 10
30.18043602082946
 20
-38.81991728765831
 30
0.0
 10
30.2110758388014
 20
-38.85703819151187
 30
0.0
 10
30.24246927141074
 20
-38.89385764951048
 30
0.0
 10
30.28086055422449
 20
-38.93881614559299
 30
0.0
 10
30.32002698352243
 20
-38.9826549856428
 30
0.0
 10
30.35915034912679
 20
-39.02670914416043
 30
0.0
 10
30.97009496974229
 20
-39.7140918208549
 30
0.0
 10
31.67207623855551
 20
-40.2531200732158
 30
0.0
 10
32.49349466147298
 20
-39.74475317067362
 30
0.0
 10
32.87721370298946
 20
-39.50729996435278
 30
0.0
 10
33.10984377563097
 20
-38.80368227518406
 30
0.0
 10
33.31995153653764
 20
-38.1928237819557
 30
0.0
 10
33.35965626200514
 20
-38.0773269558127
 30
0.0
 10
33.39860737283525
 20
-37.96617956271983
 30
0.0
 10
33.43760154735892
 20
-37.86101802303258
 30
0.0
 10
33.44124042946521
 20
-37.85119950089962
 30
0.0
 10
33.4448793115715
 20
-37.84120872399239
 30
0.0
 10
33.4485181936778
 20
-37.83156245663369
 30
0.0
 10
33.48927797963766
 20
-37.72312807623546
 30
0.0
 10
33.53014542483144
 20
-37.62210065113051
 30
0.0
 10
33.57217558975149
 20
-37.53446603472446
 30
0.0
 10
34.55469529029796
 20
-35.48446196622654
 30
0.0
 10
35.52001104526496
 20
-34.58038278350985
 30
0.0
 10
35.33625826482045
 20
-32.0393664809767
 30
0.0
 10
35.1796140794755
 20
-29.87326269462587
 30
0.0
 10
33.83951499940688
 20
-29.87920548433793
 30
0.0
 10
32.00209485419566
 20
-29.97683087765119
 30
0.0
 10
32.00209485419566
 20
-29.97683087765119
 30
0.0
 10
31.960323071437
 20
-29.80935617337449
 30
0.0
 10
31.960323071437
 20
-29.80935617337449
 30
0.0
 10
33.07883791626372
 20
-28.99760554966249
 30
0.0
 10
35.60934667756685
 20
-29.342459607736
 30
0.0
 10
35.58815934033256
 20
-27.4926155869311
 30
0.0
 10
35.58589849642037
 20
-27.29521161562629
 30
0.0
 10
35.50037400099904
 20
-27.03570979819984
 30
0.0
 10
35.44822386809107
 20
-26.79442392315166
 30
0.0
 10
35.41693809471565
 20
-26.64964378538404
 30
0.0
 10
35.39766709184503
 20
-26.51140932903838
 30
0.0
 10
35.41560312021511
 20
-26.39703215892809
 30
0.0
 10
35.43681198929618
 20
-26.26181216113203
 30
0.0
 10
35.56249337896745
 20
-26.15342084442736
 30
0.0
 10
35.68274874324945
 20
-26.03757950873583
 30
0.0
 10
35.80300410753146
 20
-25.92173817304431
 30
0.0
 10
35.91785497827097
 20
-25.79844681836593
 30
0.0
 10
35.91733821394818
 20
-25.63351287200959
 30
0.0
 10
35.91664919485114
 20
-25.41130421321098
 30
0.0
 10
35.65645835832764
 20
-25.12940927513041
 30
0.0
 10
35.55276098422162
 20
-24.80815412113086
 30
0.0
 10
35.51820237013521
 20
-24.70109777892672
 30
0.0
 10
35.50104148824931
 20
-24.58964893997889
 30
0.0
 10
35.51665207716685
 20
-24.47462581446512
 30
0.0
 10
35.52793476488104
 20
-24.3914698221899
 30
0.0
 10
35.5755847418114
 20
-24.27338917443296
 30
0.0
 10
35.64321627255621
 20
-24.13549922763583
 30
0.0
 10
35.67704280385201
 20
-24.06659731793084
 30
0.0
 10
35.71584319175464
 20
-23.99265695607866
 30
0.0
 10
35.7575934426665
 20
-23.91570213567689
 30
0.0
 10
35.84111547633703
 20
-23.76179249487336
 30
0.0
 10
35.93639389835097
 20
-23.59573889248431
 30
0.0
 10
36.02704297330661
 20
-23.4325274938706
 30
0.0
 10
36.16303811758684
 20
-23.18779652333716
 30
0.0
 10
36.28863337987099
 20
-22.94969736161284
 30
0.0
 10
36.34847038208042
 20
-22.76938967665357
 30
0.0
 10
36.74351517500466
 20
-21.57932450496758
 30
0.0
 10
36.88398894341573
 20
-20.6955283219203
 30
0.0
 10
36.07538196933402
 20
-20.51625416560661
 30
0.0
  0
SPLINE
  5
7E
330
79
100
AcDbEntity
  8
レイヤー 1
 62
   250
420
  2299925
370
     9
100
AcDbSpline
210
0.0
220
0.0
230
1.0
 70
     9
 71
     3
 72
   113
 73
   109
 74
     0
 42
0.0000000001
 43
0.0000000001
 40
0.0
 40
0.0
 40
0.0
 40
0.0
 40
1.0
 40
1.0
 40
1.0
 40
2.0
 40
2.0
 40
2.0
 40
3.0
 40
3.0
 40
3.0
 40
4.0
 40
4.0
 40
4.0
 40
5.0
 40
5.0
 40
5.0
 40
6.0
 40
6.0
 40
6.0
 40
7.0
 40
7.0
 40
7.0
 40
8.0
 40
8.0
 40
8.0
 40
9.0
 40
9.0
 40
9.0
 40
10.0
 40
10.0
 40
10.0
 40
11.0
 40
11.0
 40
11.0
 40
12.0
 40
12.0
 40
12.0
 40
13.0
 40
13.0
 40
13.0
 40
14.0
 40
14.0
 40
14.0
 40
15.0
 40
15.0
 40
15.0
 40
16.0
 40
16.0
 40
16.0
 40
17.0
 40
17.0
 40
17.0
 40
18.0
 40
18.0
 40
18.0
 40
19.0
 40
19.0
 40
19.0
 40
20.0
 40
20.0
 40
20.0
 40
21.0
 40
21.0
 40
21.0
 40
22.0
 40
22.0
 40
22.0
 40
23.0
 40
23.0
 40
23.0
 40
24.0
 40
24.0
 40
24.0
 40
25.0
 40
25.0
 40
25.0
 40
26.0
 40
26.0
 40
26.0
 40
27.0
 40
27.0
 40
27.0
 40
28.0
 40
28.0
 40
28.0
 40
29.0
 40
29.0
 40
29.0
 40
30.0
 40
30.0
 40
30.0
 40
31.0
 40
31.0
 40
31.0
 40
32.0
 40
32.0
 40
32.0
 40
33.0
 40
33.0
 40
33.0
 40
34.0
 40
34.0
 40
34.0
 40
35.0
 40
35.0
 40
35.0
 40
36.0
 40
36.0
 40
36.0
 40
36.0
 10
16.25335760769881
 20
-50.99863127387144
 30
0.0
 10
16.25335760769881
 20
-50.99863127387144
 30
0.0
 10
15.44276970371309
 20
-51.75388233162533
 30
0.0
 10
15.44276970371309
 20
-51.75388233162533
 30
0.0
 10
15.8293309490049
 20
-50.58272212141465
 30
0.0
 10
16.63584933394868
 20
-49.49079910736472
 30
0.0
 10
17.18941158288798
 20
-48.3702818007872
 30
0.0
 10
17.35557284451093
 20
-48.03395435403969
 30
0.0
 10
17.54955325217728
 20
-47.62915563452283
 30
0.0
 10
17.75625898129227
 20
-47.18206836792453
 30
0.0
 10
17.75625898129227
 20
-47.18206836792453
 30
0.0
 10
17.75625898129227
 20
-45.07599537040418
 30
0.0
 10
17.75625898129227
 20
-45.07599537040418
 30
0.0
 10
17.75625898129227
 20
-45.07599537040418
 30
0.0
 10
17.75625898129227
 20
-44.83522625967878
 30
0.0
 10
17.75625898129227
 20
-44.83522625967878
 30
0.0
 10
17.75625898129227
 20
-44.27746530061683
 30
0.0
 10
18.20840623188453
 20
-43.82533958187136
 30
0.0
 10
18.76614565909969
 20
-43.82533958187136
 30
0.0
 10
18.76614565909969
 20
-43.82533958187136
 30
0.0
 10
19.16816677038157
 20
-43.82533958187136
 30
0.0
 10
19.16816677038157
 20
-43.82533958187136
 30
0.0
 10
19.55373755072137
 20
-42.78784907648836
 30
0.0
 10
19.85892994702094
 20
-41.8041881880624
 30
0.0
 10
19.95709363650378
 20
-41.08493837812937
 30
0.0
 10
20.08800726494328
 20
-40.12556541287443
 30
0.0
 10
19.49172583198688
 20
-40.47317554733613
 30
0.0
 10
18.99266068725487
 20
-40.77513816661828
 30
0.0
 10
17.76000552263248
 20
-41.52091521178774
 30
0.0
 10
13.83688150695745
 20
-45.13645679617031
 30
0.0
 10
12.95711177925855
 20
-46.29857363073221
 30
0.0
 10
12.27513359610656
 20
-47.19937997273791
 30
0.0
 10
12.37456766454959
 20
-47.71743620633236
 30
0.0
 10
12.73992004076033
 20
-48.72857173125319
 30
0.0
 10
12.73992004076033
 20
-48.72857173125319
 30
0.0
 10
10.92842423907562
 20
-45.84252911587227
 30
0.0
 10
10.92842423907562
 20
-45.84252911587227
 30
0.0
 10
9.269416976306777
 20
-43.41278939751268
 30
0.0
 10
6.580778332230673
 20
-40.84231752858065
 30
0.0
 10
3.397962272642263
 20
-41.06151172882968
 30
0.0
 10
0.9230487397323454
 20
-41.23195782796241
 30
0.0
 10
2.299450513476786
 20
-43.32442269831603
 30
0.0
 10
2.27014567000538
 20
-44.78721024135311
 30
0.0
 10
2.260865444041988
 20
-45.25014494718355
 30
0.0
 10
1.984461126891037
 20
-45.69197844316685
 30
0.0
 10
2.046731227786928
 20
-46.07481467896524
 30
0.0
 10
2.07922278458219
 20
-46.27463021710973
 30
0.0
 10
2.295380994434835
 20
-46.47453188264135
 30
0.0
 10
2.36901991043205
 20
-46.74144065536108
 30
0.0
 10
2.475236510611659
 20
-47.12625782106349
 30
0.0
 10
2.325999280559993
 20
-47.47903559875306
 30
0.0
 10
2.395633273055605
 20
-47.89391122256428
 30
0.0
 10
2.463307867493982
 20
-48.29707352172565
 30
0.0
 10
2.813028122940406
 20
-48.76035273710462
 30
0.0
 10
2.885504319211349
 20
-49.13225079473733
 30
0.0
 10
3.012456087842806
 20
-49.78363222361095
 30
0.0
 10
2.835033670352439
 20
-50.26224211389928
 30
0.0
 10
3.252406988390457
 20
-50.92585363174553
 30
0.0
 10
3.659380424432377
 20
-51.57292869126258
 30
0.0
 10
4.673896449298106
 20
-51.88789654600155
 30
0.0
 10
5.756259323376474
 20
-52.06902244113856
 30
0.0
 10
5.756259323376474
 20
-52.06902244113856
 30
0.0
 10
5.756259323376474
 20
-45.07978497543795
 30
0.0
 10
5.756259323376474
 20
-45.07978497543795
 30
0.0
 10
5.756259323376474
 20
-45.07978497543795
 30
0.0
 10
5.756259323376474
 20
-44.83897280101898
 30
0.0
 10
5.756259323376474
 20
-44.83897280101898
 30
0.0
 10
5.756259323376474
 20
-44.27914478466589
 30
0.0
 10
6.210086058017791
 20
-43.82533958187136
 30
0.0
 10
6.769914074370889
 20
-43.82533958187136
 30
0.0
 10
6.769914074370889
 20
-43.82533958187136
 30
0.0
 10
7.742593720937615
 20
-43.82533958187136
 30
0.0
 10
7.742593720937615
 20
-43.82533958187136
 30
0.0
 10
8.302421737290714
 20
-43.82533958187136
 30
0.0
 10
8.756248471932032
 20
-44.27914478466589
 30
0.0
 10
8.756248471932032
 20
-44.83897280101898
 30
0.0
 10
8.756248471932032
 20
-44.83897280101898
 30
0.0
 10
8.756248471932032
 20
-45.07952659327655
 30
0.0
 10
8.756248471932032
 20
-45.07952659327655
 30
0.0
 10
8.756248471932032
 20
-45.07961272066369
 30
0.0
 10
8.756270003778814
 20
-45.07969884805082
 30
0.0
 10
8.756270003778814
 20
-45.07978497543795
 30
0.0
 10
8.756270003778814
 20
-45.07978497543795
 30
0.0
 10
8.756270003778814
 20
-58.30257821214962
 30
0.0
 10
8.756270003778814
 20
-58.30257821214962
 30
0.0
 10
9.615972050276129
 20
-58.06925912041108
 30
0.0
 10
10.44559410681785
 20
-57.62320538245835
 30
0.0
 10
10.95971001245104
 20
-57.04839120074441
 30
0.0
 10
11.54244791378105
 20
-56.39683751709654
 30
0.0
 10
12.57942165484126
 20
-54.47034012174484
 30
0.0
 10
13.33658904695882
 20
-54.13134272599624
 30
0.0
 10
13.38374379141318
 20
-54.11024151614909
 30
0.0
 10
13.51377461413458
 20
-54.10386808950138
 30
0.0
 10
13.49663526409546
 20
-54.18396655953344
 30
0.0
 10
13.2302647875453
 20
-54.33632590736861
 30
0.0
 10
11.85078395971091
 20
-56.46539491725302
 30
0.0
 10
12.68548753209338
 20
-56.29055632137658
 30
0.0
 10
13.2561891310718
 20
-55.8027308006652
 30
0.0
 10
13.36475270255074
 20
-54.79237042222855
 30
0.0
 10
13.77368553664989
 20
-54.24494474962236
 30
0.0
 10
14.08131103163592
 20
-53.83308358436075
 30
0.0
 10
14.53765699235083
 20
-53.8291217245527
 30
0.0
 10
14.79702961869658
 20
-53.53981983117884
 30
0.0
 10
15.25285881508869
 20
-53.03149599233023
 30
0.0
 10
15.30879855303044
 20
-52.1046791794109
 30
0.0
 10
16.14634432918824
 20
-51.31885289922541
 30
0.0
 10
16.23006014947981
 20
-51.24039084954884
 30
0.0
 10
16.73745811891676
 20
-51.09121821503753
 30
0.0
 10
16.25335760769881
 20
-50.99863127387144
 30
0.0
  0
SPLINE
  5
7F
330
79
100
AcDbEntity
  8
レイヤー 1
 62
   250
420
  2299925
370
     9
100
AcDbSpline
210
0.0
220
0.0
230
1.0
 70
    11
 71
     3
 72
    20
 73
    16
 74
     0
 42
0.0000000001
 43
0.0000000001
 40
0.0
 40
0.0
 40
0.0
 40
0.0
 40
1.0
 40
1.0
 40
1.0
 40
2.0
 40
2.0
 40
2.0
 40
3.0
 40
3.0
 40
3.0
 40
4.0
 40
4.0
 40
4.0
 40
5.0
 40
5.0
 40
5.0
 40
5.0
 10
27.0575646226844
 20
-98.29023214638013
 30
0.0
 10
27.0575646226844
 20
-98.29023214638013
 30
0.0
 10
26.21920063634885
 20
-98.75566454643738
 30
0.0
 10
26.21920063634885
 20
-98.75566454643738
 30
0.0
 10
26.21920063634885
 20
-98.75566454643738
 30
0.0
 10
26.23522033035526
 20
-97.79689447289236
 30
0.0
 10
26.23522033035526
 20
-97.79689447289236
 30
0.0
 10
26.23522033035526
 20
-97.79689447289236
 30
0.0
 10
27.0575646226844
 20
-98.27162863075979
 30
0.0
 10
27.0575646226844
 20
-98.27162863075979
 30
0.0
 10
27.0575646226844
 20
-98.27162863075979
 30
0.0
 10
27.12009310574168
 20
-98.16345263252294
 30
0.0
 10
27.12009310574168
 20
-98.16345263252294
 30
0.0
 10
27.12009310574168
 20
-98.16345263252294
 30
0.0
 10
27.0575646226844
 20
-98.29023214638013
 30
0.0
 10
27.0575646226844
 20
-98.29023214638013
 30
0.0
  0
SPLINE
  5
80
330
79
100
AcDbEntity
  8
レイヤー 1
 62
   250
420
  2299925
370
     9
100
AcDbSpline
210
0.0
220
0.0
230
1.0
 70
    11
 71
     3
 72
    17
 73
    13
 74
     0
 42
0.0000000001
 43
0.0000000001
 40
0.0
 40
0.0
 40
0.0
 40
0.0
 40
1.0
 40
1.0
 40
1.0
 40
2.0
 40
2.0
 40
2.0
 40
3.0
 40
3.0
 40
3.0
 40
4.0
 40
4.0
 40
4.0
 40
4.0
 10
27.0575646226844
 20
-99.50256124763956
 30
0.0
 10
27.0575646226844
 20
-99.50256124763956
 30
0.0
 10
27.0575646226844
 20
-99.5211647632599
 30
0.0
 10
27.0575646226844
 20
-99.5211647632599
 30
0.0
 10
27.0575646226844
 20
-99.5211647632599
 30
0.0
 10
26.21920063634885
 20
-99.98659716331715
 30
0.0
 10
26.21920063634885
 20
-99.98659716331715
 30
0.0
 10
26.21920063634885
 20
-99.98659716331715
 30
0.0
 10
26.23522033035526
 20
-99.02748258022361
 30
0.0
 10
26.23522033035526
 20
-99.02748258022361
 30
0.0
 10
26.23522033035526
 20
-99.02748258022361
 30
0.0
 10
27.0575646226844
 20
-99.50256124763956
 30
0.0
 10
27.0575646226844
 20
-99.50256124763956
 30
0.0
  0
SPLINE
  5
81
330
79
100
AcDbEntity
  8
レイヤー 1
 62
   250
420
  2299925
370
     9
100
AcDbSpline
210
0.0
220
0.0
230
1.0
 70
     9
 71
     3
 72
    77
 73
    73
 74
     0
 42
0.0000000001
 43
0.0000000001
 40
0.0
 40
0.0
 40
0.0
 40
0.0
 40
1.0
 40
1.0
 40
1.0
 40
2.0
 40
2.0
 40
2.0
 40
3.0
 40
3.0
 40
3.0
 40
4.0
 40
4.0
 40
4.0
 40
5.0
 40
5.0
 40
5.0
 40
6.0
 40
6.0
 40
6.0
 40
7.0
 40
7.0
 40
7.0
 40
8.0
 40
8.0
 40
8.0
 40
9.0
 40
9.0
 40
9.0
 40
10.0
 40
10.0
 40
10.0
 40
11.0
 40
11.0
 40
11.0
 40
12.0
 40
12.0
 40
12.0
 40
13.0
 40
13.0
 40
13.0
 40
14.0
 40
14.0
 40
14.0
 40
15.0
 40
15.0
 40
15.0
 40
16.0
 40
16.0
 40
16.0
 40
17.0
 40
17.0
 40
17.0
 40
18.0
 40
18.0
 40
18.0
 40
19.0
 40
19.0
 40
19.0
 40
20.0
 40
20.0
 40
20.0
 40
21.0
 40
21.0
 40
21.0
 40
22.0
 40
22.0
 40
22.0
 40
23.0
 40
23.0
 40
23.0
 40
24.0
 40
24.0
 40
24.0
 40
24.0
 10
27.31301845291567
 20
-98.28127489811848
 30
0.0
 10
27.31319070768993
 20
-98.18722379137117
 30
0.0
 10
27.26444260657365
 20
-98.10247444243401
 30
0.0
 10
27.18279384357323
 20
-98.05527663428611
 30
0.0
 10
27.18279384357323
 20
-98.05527663428611
 30
0.0
 10
26.36010504169556
 20
-97.58019796687015
 30
0.0
 10
26.36010504169556
 20
-97.58019796687015
 30
0.0
 10
26.27811176914662
 20
-97.53334466827075
 30
0.0
 10
26.18061556691405
 20
-97.53368917781926
 30
0.0
 10
26.09931131346215
 20
-97.58054247641867
 30
0.0
 10
26.01766255046173
 20
-97.62774028456661
 30
0.0
 10
25.96908670411971
 20
-97.71214512395522
 30
0.0
 10
25.96908670411971
 20
-97.80619623070254
 30
0.0
 10
25.96908670411971
 20
-97.80619623070254
 30
0.0
 10
25.96908670411971
 20
-98.59688870826094
 30
0.0
 10
25.96908670411971
 20
-98.59688870826094
 30
0.0
 10
25.96908670411971
 20
-98.59688870826094
 30
0.0
 10
25.26663173467726
 20
-98.19135790595346
 30
0.0
 10
25.26663173467726
 20
-98.19135790595346
 30
0.0
 10
25.20720383755671
 20
-98.15725146064949
 30
0.0
 10
25.1305504630099
 20
-98.17723301446394
 30
0.0
 10
25.09575499860888
 20
-98.23717767590729
 30
0.0
 10
25.06130404375638
 20
-98.29677782780212
 30
0.0
 10
25.08180236189361
 20
-98.37325894757466
 30
0.0
 10
25.1415747685627
 20
-98.40770990242717
 30
0.0
 10
25.1415747685627
 20
-98.40770990242717
 30
0.0
 10
25.96391906089183
 20
-98.90104757591494
 30
0.0
 10
25.96391906089183
 20
-98.90104757591494
 30
0.0
 10
25.96391906089183
 20
-98.90104757591494
 30
0.0
 10
25.1415747685627
 20
-99.37578173378236
 30
0.0
 10
25.1415747685627
 20
-99.37578173378236
 30
0.0
 10
25.08180236189361
 20
-99.41023268863487
 30
0.0
 10
25.06130404375638
 20
-99.48671380840741
 30
0.0
 10
25.09575499860888
 20
-99.54631396030222
 30
0.0
 10
25.11900939313431
 20
-99.58662157747966
 30
0.0
 10
25.16103955805436
 20
-99.60901469813379
 30
0.0
 10
25.20427550639425
 20
-99.60901469813379
 30
0.0
 10
25.22546284362853
 20
-99.60901469813379
 30
0.0
 10
25.24699469041134
 20
-99.60350254535738
 30
0.0
 10
25.26663173467726
 20
-99.59213373025605
 30
0.0
 10
25.26663173467726
 20
-99.59213373025605
 30
0.0
 10
25.96908670411971
 20
-99.18668905533571
 30
0.0
 10
25.96908670411971
 20
-99.18668905533571
 30
0.0
 10
25.96908670411971
 20
-99.18668905533571
 30
0.0
 10
25.96908670411971
 20
-99.98659716331715
 30
0.0
 10
25.96908670411971
 20
-99.98659716331715
 30
0.0
 10
25.96908670411971
 20
-100.0806482700644
 30
0.0
 10
26.01766255046173
 20
-100.1650531094531
 30
0.0
 10
26.09931131346215
 20
-100.212250917601
 30
0.0
 10
26.14013569496237
 20
-100.2356775669007
 30
0.0
 10
26.18509419104487
 20
-100.2477354010991
 30
0.0
 10
26.22988043235312
 20
-100.2477354010991
 30
0.0
 10
26.27466667366137
 20
-100.2477354010991
 30
0.0
 10
26.31945291496962
 20
-100.2360220764492
 30
0.0
 10
26.36027729646983
 20
-100.212250917601
 30
0.0
 10
26.36027729646983
 20
-100.212250917601
 30
0.0
 10
27.18279384357323
 20
-99.7375167597336
 30
0.0
 10
27.18279384357323
 20
-99.7375167597336
 30
0.0
 10
27.26444260657365
 20
-99.69031895158567
 30
0.0
 10
27.31319070768993
 20
-99.60556960264852
 30
0.0
 10
27.31301845291567
 20
-99.5115184959012
 30
0.0
 10
27.31284619814141
 20
-99.41712287960536
 30
0.0
 10
27.26409809702512
 20
-99.33306254976526
 30
0.0
 10
27.18262158879896
 20
-99.28620925116588
 30
0.0
 10
27.18262158879896
 20
-99.28620925116588
 30
0.0
 10
26.50807189278705
 20
-98.89631056962272
 30
0.0
 10
26.50807189278705
 20
-98.89631056962272
 30
0.0
 10
26.50807189278705
 20
-98.89631056962272
 30
0.0
 10
27.1824493340247
 20
-98.50692865240235
 30
0.0
 10
27.1824493340247
 20
-98.50692865240235
 30
0.0
 10
27.26409809702512
 20
-98.45973084425443
 30
0.0
 10
27.31284619814141
 20
-98.37567051441434
 30
0.0
 10
27.31301845291567
 20
-98.28127489811848
 30
0.0
  0
SPLINE
  5
82
330
79
100
AcDbEntity
  8
レイヤー 1
 62
   250
420
  2299925
370
     9
100
AcDbSpline
210
0.0
220
0.0
230
1.0
 70
     9
 71
     3
 72
    38
 73
    34
 74
     0
 42
0.0000000001
 43
0.0000000001
 40
0.0
 40
0.0
 40
0.0
 40
0.0
 40
1.0
 40
1.0
 40
1.0
 40
2.0
 40
2.0
 40
2.0
 40
3.0
 40
3.0
 40
3.0
 40
4.0
 40
4.0
 40
4.0
 40
5.0
 40
5.0
 40
5.0
 40
6.0
 40
6.0
 40
6.0
 40
7.0
 40
7.0
 40
7.0
 40
8.0
 40
8.0
 40
8.0
 40
9.0
 40
9.0
 40
9.0
 40
10.0
 40
10.0
 40
10.0
 40
11.0
 40
11.0
 40
11.0
 40
11.0
 10
33.82734950597459
 20
-82.5533804793074
 30
0.0
 10
33.82734950597459
 20
-82.5533804793074
 30
0.0
 10
33.00517746841972
 20
-82.07830181189144
 30
0.0
 10
33.00517746841972
 20
-82.07830181189144
 30
0.0
 10
32.94574957129916
 20
-82.04419536658747
 30
0.0
 10
32.86909619675235
 20
-82.06452142995045
 30
0.0
 10
32.83430073235133
 20
-82.12377707229675
 30
0.0
 10
32.79984977749882
 20
-82.1837217337401
 30
0.0
 10
32.82034809563607
 20
-82.26020285351264
 30
0.0
 10
32.88012050230515
 20
-82.29465380836513
 30
0.0
 10
32.88012050230515
 20
-82.29465380836513
 30
0.0
 10
33.70229253986002
 20
-82.78833599140144
 30
0.0
 10
33.70229253986002
 20
-82.78833599140144
 30
0.0
 10
33.70229253986002
 20
-82.78833599140144
 30
0.0
 10
32.88012050230515
 20
-83.26307014926888
 30
0.0
 10
32.88012050230515
 20
-83.26307014926888
 30
0.0
 10
32.82034809563607
 20
-83.29752110412137
 30
0.0
 10
32.79984977749882
 20
-83.37400222389391
 30
0.0
 10
32.83430073235133
 20
-83.43394688533726
 30
0.0
 10
32.85755512687676
 20
-83.47390999296615
 30
0.0
 10
32.8995852917968
 20
-83.49630311362028
 30
0.0
 10
32.94282124013669
 20
-83.49630311362028
 30
0.0
 10
32.96400857737098
 20
-83.49630311362028
 30
0.0
 10
32.98554042415379
 20
-83.49079096084388
 30
0.0
 10
33.00517746841972
 20
-83.47942214574256
 30
0.0
 10
33.00517746841972
 20
-83.47942214574256
 30
0.0
 10
33.82752176074885
 20
-83.00468798787512
 30
0.0
 10
33.82752176074885
 20
-83.00468798787512
 30
0.0
 10
33.90917052374927
 20
-82.95749017972722
 30
0.0
 10
33.95791862486556
 20
-82.87274083079006
 30
0.0
 10
33.95774637009129
 20
-82.77868972404275
 30
0.0
 10
33.95757411531703
 20
-82.6842941077469
 30
0.0
 10
33.90882601420075
 20
-82.6002337779068
 30
0.0
 10
33.82734950597459
 20
-82.5533804793074
 30
0.0
  0
SPLINE
  5
83
330
79
100
AcDbEntity
  8
レイヤー 1
 62
   250
420
  2299925
370
     9
100
AcDbSpline
210
0.0
220
0.0
230
1.0
 70
    11
 71
     3
 72
    23
 73
    19
 74
     0
 42
0.0000000001
 43
0.0000000001
 40
0.0
 40
0.0
 40
0.0
 40
0.0
 40
1.0
 40
1.0
 40
1.0
 40
2.0
 40
2.0
 40
2.0
 40
3.0
 40
3.0
 40
3.0
 40
4.0
 40
4.0
 40
4.0
 40
5.0
 40
5.0
 40
5.0
 40
6.0
 40
6.0
 40
6.0
 40
6.0
 10
33.0346330348186
 20
-82.75767464158272
 30
0.0
 10
33.0346330348186
 20
-82.68877273187772
 30
0.0
 10
32.97865023318329
 20
-82.63261767546815
 30
0.0
 10
32.90957606870403
 20
-82.63261767546815
 30
0.0
 10
32.90957606870403
 20
-82.63261767546815
 30
0.0
 10
31.95321756199868
 20
-82.63261767546815
 30
0.0
 10
31.95321756199868
 20
-82.63261767546815
 30
0.0
 10
31.88414339751942
 20
-82.63261767546815
 30
0.0
 10
31.82816059588411
 20
-82.68877273187772
 30
0.0
 10
31.82816059588411
 20
-82.75767464158272
 30
0.0
 10
31.82816059588411
 20
-82.82657655128771
 30
0.0
 10
31.88414339751942
 20
-82.8827316076973
 30
0.0
 10
31.95321756199868
 20
-82.8827316076973
 30
0.0
 10
31.95321756199868
 20
-82.8827316076973
 30
0.0
 10
32.90957606870403
 20
-82.8827316076973
 30
0.0
 10
32.90957606870403
 20
-82.8827316076973
 30
0.0
 10
32.97865023318329
 20
-82.8827316076973
 30
0.0
 10
33.0346330348186
 20
-82.82657655128771
 30
0.0
 10
33.0346330348186
 20
-82.75767464158272
 30
0.0
  0
SPLINE
  5
84
330
79
100
AcDbEntity
  8
レイヤー 1
 62
   250
420
  2299925
370
     9
100
AcDbSpline
210
0.0
220
0.0
230
1.0
 70
     9
 71
     3
 72
    38
 73
    34
 74
     0
 42
0.0000000001
 43
0.0000000001
 40
0.0
 40
0.0
 40
0.0
 40
0.0
 40
1.0
 40
1.0
 40
1.0
 40
2.0
 40
2.0
 40
2.0
 40
3.0
 40
3.0
 40
3.0
 40
4.0
 40
4.0
 40
4.0
 40
5.0
 40
5.0
 40
5.0
 40
6.0
 40
6.0
 40
6.0
 40
7.0
 40
7.0
 40
7.0
 40
8.0
 40
8.0
 40
8.0
 40
9.0
 40
9.0
 40
9.0
 40
10.0
 40
10.0
 40
10.0
 40
11.0
 40
11.0
 40
11.0
 40
11.0
 10
5.832159083285883
 20
-83.28408523172889
 30
0.0
 10
5.832159083285883
 20
-83.28408523172889
 30
0.0
 10
5.009814790956747
 20
-82.79074755824112
 30
0.0
 10
5.009814790956747
 20
-82.79074755824112
 30
0.0
 10
5.009814790956747
 20
-82.79074755824112
 30
0.0
 10
5.832159083285883
 20
-82.3160134003737
 30
0.0
 10
5.832159083285883
 20
-82.3160134003737
 30
0.0
 10
5.891931489954968
 20
-82.28156244552119
 30
0.0
 10
5.912429808092205
 20
-82.20508132574865
 30
0.0
 10
5.877978853239707
 20
-82.14548117385382
 30
0.0
 10
5.843355643612945
 20
-82.085881021959
 30
0.0
 10
5.767046778614662
 20
-82.06555495859602
 30
0.0
 10
5.707102117171315
 20
-82.09966140389999
 30
0.0
 10
5.707102117171315
 20
-82.09966140389999
 30
0.0
 10
4.884930079616441
 20
-82.5740510522189
 30
0.0
 10
4.884930079616441
 20
-82.5740510522189
 30
0.0
 10
4.803281316616019
 20
-82.62124886036684
 30
0.0
 10
4.754533215499734
 20
-82.70530919020691
 30
0.0
 10
4.754360960725472
 20
-82.79970480650277
 30
0.0
 10
4.754188705951209
 20
-82.8937559132501
 30
0.0
 10
4.802936807067495
 20
-82.97850526218724
 30
0.0
 10
4.884757824842179
 20
-83.02570307033516
 30
0.0
 10
4.884757824842179
 20
-83.02570307033516
 30
0.0
 10
5.707102117171315
 20
-83.50043722820258
 30
0.0
 10
5.707102117171315
 20
-83.50043722820258
 30
0.0
 10
5.726739161437238
 20
-83.51180604330391
 30
0.0
 10
5.74827100822005
 20
-83.51731819608032
 30
0.0
 10
5.769458345454337
 20
-83.51731819608032
 30
0.0
 10
5.812694293794222
 20
-83.51731819608032
 30
0.0
 10
5.85472445871427
 20
-83.49492507542619
 30
0.0
 10
5.877978853239707
 20
-83.45461745824875
 30
0.0
 10
5.912429808092205
 20
-83.39501730635394
 30
0.0
 10
5.891931489954968
 20
-83.3185361865814
 30
0.0
 10
5.832159083285883
 20
-83.28408523172889
 30
0.0
  0
SPLINE
  5
85
330
79
100
AcDbEntity
  8
レイヤー 1
 62
   250
420
  2299925
370
     9
100
AcDbSpline
210
0.0
220
0.0
230
1.0
 70
     9
 71
     3
 72
    23
 73
    19
 74
     0
 42
0.0000000001
 43
0.0000000001
 40
0.0
 40
0.0
 40
0.0
 40
0.0
 40
1.0
 40
1.0
 40
1.0
 40
2.0
 40
2.0
 40
2.0
 40
3.0
 40
3.0
 40
3.0
 40
4.0
 40
4.0
 40
4.0
 40
5.0
 40
5.0
 40
5.0
 40
6.0
 40
6.0
 40
6.0
 40
6.0
 10
6.75888976881809
 20
-82.6539772674767
 30
0.0
 10
6.75888976881809
 20
-82.6539772674767
 30
0.0
 10
5.802703516886998
 20
-82.6539772674767
 30
0.0
 10
5.802703516886998
 20
-82.6539772674767
 30
0.0
 10
5.733629352407739
 20
-82.6539772674767
 30
0.0
 10
5.677646550772428
 20
-82.71013232388627
 30
0.0
 10
5.677646550772428
 20
-82.77903423359127
 30
0.0
 10
5.677646550772428
 20
-82.84793614329627
 30
0.0
 10
5.733629352407739
 20
-82.90409119970583
 30
0.0
 10
5.802703516886998
 20
-82.90409119970583
 30
0.0
 10
5.802703516886998
 20
-82.90409119970583
 30
0.0
 10
6.75888976881809
 20
-82.90409119970583
 30
0.0
 10
6.75888976881809
 20
-82.90409119970583
 30
0.0
 10
6.827963933297349
 20
-82.90409119970583
 30
0.0
 10
6.883946734932659
 20
-82.84793614329627
 30
0.0
 10
6.883946734932659
 20
-82.77903423359127
 30
0.0
 10
6.883946734932659
 20
-82.71013232388627
 30
0.0
 10
6.827963933297349
 20
-82.6539772674767
 30
0.0
 10
6.75888976881809
 20
-82.6539772674767
 30
0.0
  0
SPLINE
  5
86
330
79
100
AcDbEntity
  8
レイヤー 1
 62
   250
420
  2299925
370
     9
100
AcDbSpline
210
0.0
220
0.0
230
1.0
 70
     9
 71
     3
 72
    17
 73
    13
 74
     0
 42
0.0000000001
 43
0.0000000001
 40
0.0
 40
0.0
 40
0.0
 40
0.0
 40
1.0
 40
1.0
 40
1.0
 40
2.0
 40
2.0
 40
2.0
 40
3.0
 40
3.0
 40
3.0
 40
4.0
 40
4.0
 40
4.0
 40
4.0
 10
5.39191894396452
 20
-55.80809223051413
 30
0.0
 10
5.507394238260738
 20
-55.95403508800802
 30
0.0
 10
5.635185748916724
 20
-56.11767712355739
 30
0.0
 10
5.756259323376474
 20
-56.28579778323758
 30
0.0
 10
5.756259323376474
 20
-56.28579778323758
 30
0.0
 10
5.756259323376474
 20
-53.28029648190562
 30
0.0
 10
5.756259323376474
 20
-53.28029648190562
 30
0.0
 10
5.224487303381378
 20
-53.62385862917216
 30
0.0
 10
4.770229931804404
 20
-54.09023843048785
 30
0.0
 10
4.659513175647187
 20
-54.64304706478976
 30
0.0
 10
4.542013887753385
 20
-55.22970376223424
 30
0.0
 10
5.074561054232662
 20
-55.40691086125678
 30
0.0
 10
5.39191894396452
 20
-55.80809223051413
 30
0.0
  0
SPLINE
  5
87
330
79
100
AcDbEntity
  8
レイヤー 1
 62
   250
420
  2299925
370
     9
100
AcDbSpline
210
0.0
220
0.0
230
1.0
 70
     9
 71
     3
 72
    26
 73
    22
 74
     0
 42
0.0000000001
 43
0.0000000001
 40
0.0
 40
0.0
 40
0.0
 40
0.0
 40
1.0
 40
1.0
 40
1.0
 40
2.0
 40
2.0
 40
2.0
 40
3.0
 40
3.0
 40
3.0
 40
4.0
 40
4.0
 40
4.0
 40
5.0
 40
5.0
 40
5.0
 40
6.0
 40
6.0
 40
6.0
 40
7.0
 40
7.0
 40
7.0
 40
7.0
 10
34.02322471615783
 20
-65.57244023697061
 30
0.0
 10
34.11540255223504
 20
-65.21918875865179
 30
0.0
 10
34.10678981352191
 20
-63.55546602143752
 30
0.0
 10
33.94021944681008
 20
-63.25927393709317
 30
0.0
 10
33.857149581922
 20
-63.11156546816309
 30
0.0
 10
33.51584827856765
 20
-62.81580402075438
 30
0.0
 10
33.36299369825648
 20
-62.71537948735935
 30
0.0
 10
33.36299369825648
 20
-62.71537948735935
 30
0.0
 10
32.71805029157093
 20
-62.44872909680101
 30
0.0
 10
32.71805029157093
 20
-62.44872909680101
 30
0.0
 10
32.71805029157093
 20
-62.44872909680101
 30
0.0
 10
32.71805029157093
 20
-68.22606809817786
 30
0.0
 10
32.71805029157093
 20
-68.22606809817786
 30
0.0
 10
32.94071111915198
 20
-68.04425318394379
 30
0.0
 10
33.19080351953433
 20
-67.88207531397566
 30
0.0
 10
33.23173556026846
 20
-67.62115239466155
 30
0.0
 10
33.28252918682911
 20
-67.29761486490303
 30
0.0
 10
33.18339656424104
 20
-66.9510382590869
 30
0.0
 10
33.27137569019561
 20
-66.61436630279085
 30
0.0
 10
33.37804445915767
 20
-66.20629474256301
 30
0.0
 10
33.91679279751039
 20
-65.98033954242419
 30
0.0
 10
34.02322471615783
 20
-65.57244023697061
 30
0.0
  0
SPLINE
  5
88
330
79
100
AcDbEntity
  8
レイヤー 1
 62
   250
420
  2299925
370
     9
100
AcDbSpline
210
0.0
220
0.0
230
1.0
 70
     9
 71
     3
 72
    77
 73
    73
 74
     0
 42
0.0000000001
 43
0.0000000001
 40
0.0
 40
0.0
 40
0.0
 40
0.0
 40
1.0
 40
1.0
 40
1.0
 40
2.0
 40
2.0
 40
2.0
 40
3.0
 40
3.0
 40
3.0
 40
4.0
 40
4.0
 40
4.0
 40
5.0
 40
5.0
 40
5.0
 40
6.0
 40
6.0
 40
6.0
 40
7.0
 40
7.0
 40
7.0
 40
8.0
 40
8.0
 40
8.0
 40
9.0
 40
9.0
 40
9.0
 40
10.0
 40
10.0
 40
10.0
 40
11.0
 40
11.0
 40
11.0
 40
12.0
 40
12.0
 40
12.0
 40
13.0
 40
13.0
 40
13.0
 40
14.0
 40
14.0
 40
14.0
 40
15.0
 40
15.0
 40
15.0
 40
16.0
 40
16.0
 40
16.0
 40
17.0
 40
17.0
 40
17.0
 40
18.0
 40
18.0
 40
18.0
 40
19.0
 40
19.0
 40
19.0
 40
20.0
 40
20.0
 40
20.0
 40
21.0
 40
21.0
 40
21.0
 40
22.0
 40
22.0
 40
22.0
 40
23.0
 40
23.0
 40
23.0
 40
24.0
 40
24.0
 40
24.0
 40
24.0
 10
26.95748459883789
 20
-67.58790722322889
 30
0.0
 10
26.96250151913828
 20
-67.06085067767924
 30
0.0
 10
26.59613714612874
 20
-66.63908486289752
 30
0.0
 10
26.37100015616767
 20
-66.19449529052603
 30
0.0
 10
26.33693677455726
 20
-66.12722980117652
 30
0.0
 10
26.21495886253264
 20
-65.99739276507617
 30
0.0
 10
26.3222305232046
 20
-65.94429523090976
 30
0.0
 10
26.3222305232046
 20
-65.94429523090976
 30
0.0
 10
28.78672264227164
 20
-68.9359300229136
 30
0.0
 10
28.78672264227164
 20
-68.9359300229136
 30
0.0
 10
29.12257638838993
 20
-69.01176518728265
 30
0.0
 10
29.4448004754947
 20
-69.22161456602793
 30
0.0
 10
29.77126633641569
 20
-69.38809880535263
 30
0.0
 10
29.73957145795139
 20
-69.29064566681363
 30
0.0
 10
29.71803961116858
 20
-69.18862777675666
 30
0.0
 10
29.71803961116858
 20
-69.08058096960052
 30
0.0
 10
29.71803961116858
 20
-69.08058096960052
 30
0.0
 10
29.71803961116858
 20
-57.4126885164628
 30
0.0
 10
29.71803961116858
 20
-57.4126885164628
 30
0.0
 10
29.53265041036857
 20
-57.59187654538936
 30
0.0
 10
29.35087855982808
 20
-57.77903135762556
 30
0.0
 10
29.16540323164094
 20
-57.9874165707896
 30
0.0
 10
29.10847302874719
 20
-58.05132309204099
 30
0.0
 10
29.04938964117516
 20
-58.16406384179579
 30
0.0
 10
28.97669812643638
 20
-58.17035114105637
 30
0.0
 10
29.00290238397106
 20
-57.43206717856732
 30
0.0
 10
28.95264705357998
 20
-56.69305113328768
 30
0.0
 10
28.75804222235693
 20
-55.9782368837919
 30
0.0
 10
28.75804222235693
 20
-55.9782368837919
 30
0.0
 10
28.54909718117653
 20
-55.86825221042531
 30
0.0
 10
28.54909718117653
 20
-55.86825221042531
 30
0.0
 10
28.4886357554104
 20
-55.85223251641888
 30
0.0
 10
28.43431090597736
 20
-55.86648659898911
 30
0.0
 10
28.3763902381316
 20
-55.8834106305604
 30
0.0
 10
28.04751281037093
 20
-55.97957185829244
 30
0.0
 10
26.79280903464295
 20
-57.71852686816586
 30
0.0
 10
26.55313804810347
 20
-58.10231050522268
 30
0.0
 10
25.61195949338
 20
-59.6094105889388
 30
0.0
 10
24.93837873047331
 20
-61.39534808849231
 30
0.0
 10
24.78963673289765
 20
-63.17848644796406
 30
0.0
 10
24.14955952358501
 20
-62.26441648834015
 30
0.0
 10
23.66444701556826
 20
-61.25190292522522
 30
0.0
 10
23.05746425476081
 20
-60.31475082585013
 30
0.0
 10
22.75468342530091
 20
-59.84725136850173
 30
0.0
 10
22.39393886430169
 20
-59.28419357513121
 30
0.0
 10
22.0558242742712
 20
-58.8498962255219
 30
0.0
 10
21.89562733420709
 20
-58.64409483397179
 30
0.0
 10
21.6894168375681
 20
-58.28309189081117
 30
0.0
 10
21.42737426222128
 20
-58.32064343160039
 30
0.0
 10
21.20497181680162
 20
-58.54504833877086
 30
0.0
 10
22.17739308120695
 20
-59.31386445999792
 30
0.0
 10
22.35369584266461
 20
-59.52367077504963
 30
0.0
 10
23.05815327385786
 20
-60.36194863399805
 30
0.0
 10
23.37764281642122
 20
-61.13640609908222
 30
0.0
 10
23.83769225478276
 20
-62.07575444682915
 30
0.0
 10
23.94276766708289
 20
-62.29029776817309
 30
0.0
 10
24.26425967139705
 20
-62.62864920851819
 30
0.0
 10
24.31180198909349
 20
-62.8040045687174
 30
0.0
 10
24.3781846727249
 20
-63.04886473033153
 30
0.0
 10
24.15231559997321
 20
-63.34075044531933
 30
0.0
 10
24.3383507561767
 20
-63.64951712818484
 30
0.0
 10
24.38074696249206
 20
-63.71988320347107
 30
0.0
 10
24.51394296669052
 20
-63.73568757900965
 30
0.0
 10
24.58405065981536
 20
-63.86905583798239
 30
0.0
 10
24.73005811284961
 20
-64.14681666148066
 30
0.0
 10
24.6785754671919
 20
-64.53848095446
 30
0.0
 10
24.7977111754412
 20
-64.85280285379548
 30
0.0
 10
24.85371550892329
 20
-65.0005974501127
 30
0.0
 10
26.4695514188926
 20
-67.1900417583761
 30
0.0
 10
26.66124945079997
 20
-67.39907292694363
 30
0.0
 10
26.74470688893014
 20
-67.49010957514136
 30
0.0
 10
26.81106804071477
 20
-67.61327173873905
 30
0.0
 10
26.95748459883789
 20
-67.58790722322889
 30
0.0
  0
SPLINE
  5
89
330
79
100
AcDbEntity
  8
レイヤー 1
 62
   250
420
  2299925
370
     9
100
AcDbSpline
210
0.0
220
0.0
230
1.0
 70
     9
 71
     3
 72
    32
 73
    28
 74
     0
 42
0.0000000001
 43
0.0000000001
 40
0.0
 40
0.0
 40
0.0
 40
0.0
 40
1.0
 40
1.0
 40
1.0
 40
2.0
 40
2.0
 40
2.0
 40
3.0
 40
3.0
 40
3.0
 40
4.0
 40
4.0
 40
4.0
 40
5.0
 40
5.0
 40
5.0
 40
6.0
 40
6.0
 40
6.0
 40
7.0
 40
7.0
 40
7.0
 40
8.0
 40
8.0
 40
8.0
 40
9.0
 40
9.0
 40
9.0
 40
9.0
 10
34.32320640553596
 20
-55.02859631328278
 30
0.0
 10
33.98018255443898
 20
-55.00723672127423
 30
0.0
 10
33.35894571106131
 20
-55.23297660294523
 30
0.0
 10
32.71805029157093
 20
-55.52667099306278
 30
0.0
 10
32.71805029157093
 20
-55.52667099306278
 30
0.0
 10
32.71805029157093
 20
-62.15585291686121
 30
0.0
 10
32.71805029157093
 20
-62.15585291686121
 30
0.0
 10
32.74145540902384
 20
-62.160632986847
 30
0.0
 10
32.76516197233171
 20
-62.16377663647729
 30
0.0
 10
32.78854555793785
 20
-62.16868589754376
 30
0.0
 10
33.01116332182534
 20
-62.21541000506246
 30
0.0
 10
33.51324292510694
 20
-62.43288165756887
 30
0.0
 10
33.65199414577537
 20
-62.42926430730936
 30
0.0
 10
33.99114226445143
 20
-62.42047931382196
 30
0.0
 10
33.89625141567959
 20
-61.64378253667239
 30
0.0
 10
33.94217884486732
 20
-61.38057724159931
 30
0.0
 10
34.07057324723323
 20
-60.64453259117567
 30
0.0
 10
34.48585797613331
 20
-59.85801729189313
 30
0.0
 10
34.64704538114944
 20
-58.94627277172176
 30
0.0
 10
34.73078273328779
 20
-58.47244295141922
 30
0.0
 10
34.89179788352966
 20
-57.92040946360149
 30
0.0
 10
34.95064442078708
 20
-57.53076916421974
 30
0.0
 10
35.02060139098443
 20
-57.06783445838929
 30
0.0
 10
35.07006004304455
 20
-55.90080836276091
 30
0.0
 10
34.9167963576445
 20
-55.48128186004461
 30
0.0
 10
34.7942801494503
 20
-55.1459448782491
 30
0.0
 10
34.67133330432045
 20
-55.05034347853342
 30
0.0
 10
34.32320640553596
 20
-55.02859631328278
 30
0.0
  0
SPLINE
  5
8A
330
79
100
AcDbEntity
  8
レイヤー 1
 62
   250
420
  2299925
370
     9
100
AcDbSpline
210
0.0
220
0.0
230
1.0
 70
     9
 71
     3
 72
   116
 73
   112
 74
     0
 42
0.0000000001
 43
0.0000000001
 40
0.0
 40
0.0
 40
0.0
 40
0.0
 40
1.0
 40
1.0
 40
1.0
 40
2.0
 40
2.0
 40
2.0
 40
3.0
 40
3.0
 40
3.0
 40
4.0
 40
4.0
 40
4.0
 40
5.0
 40
5.0
 40
5.0
 40
6.0
 40
6.0
 40
6.0
 40
7.0
 40
7.0
 40
7.0
 40
8.0
 40
8.0
 40
8.0
 40
9.0
 40
9.0
 40
9.0
 40
10.0
 40
10.0
 40
10.0
 40
11.0
 40
11.0
 40
11.0
 40
12.0
 40
12.0
 40
12.0
 40
13.0
 40
13.0
 40
13.0
 40
14.0
 40
14.0
 40
14.0
 40
15.0
 40
15.0
 40
15.0
 40
16.0
 40
16.0
 40
16.0
 40
17.0
 40
17.0
 40
17.0
 40
18.0
 40
18.0
 40
18.0
 40
19.0
 40
19.0
 40
19.0
 40
20.0
 40
20.0
 40
20.0
 40
21.0
 40
21.0
 40
21.0
 40
22.0
 40
22.0
 40
22.0
 40
23.0
 40
23.0
 40
23.0
 40
24.0
 40
24.0
 40
24.0
 40
25.0
 40
25.0
 40
25.0
 40
26.0
 40
26.0
 40
26.0
 40
27.0
 40
27.0
 40
27.0
 40
28.0
 40
28.0
 40
28.0
 40
29.0
 40
29.0
 40
29.0
 40
30.0
 40
30.0
 40
30.0
 40
31.0
 40
31.0
 40
31.0
 40
32.0
 40
32.0
 40
32.0
 40
33.0
 40
33.0
 40
33.0
 40
34.0
 40
34.0
 40
34.0
 40
35.0
 40
35.0
 40
35.0
 40
36.0
 40
36.0
 40
36.0
 40
37.0
 40
37.0
 40
37.0
 40
37.0
 10
9.36424322953828
 20
-78.06166498563867
 30
0.0
 10
9.184753754756762
 20
-77.80672791973017
 30
0.0
 10
9.015255056882471
 20
-77.56591574531121
 30
0.0
 10
8.818023340351917
 20
-77.53766596233217
 30
0.0
 10
8.804759722733706
 20
-77.53594341458954
 30
0.0
 10
8.791496105115493
 20
-77.53490988594396
 30
0.0
 10
8.778576997045806
 20
-77.53490988594396
 30
0.0
 10
8.719149099925248
 20
-77.53490988594396
 30
0.0
 10
8.665233355581088
 20
-77.55385791111284
 30
0.0
 10
8.632849458019739
 20
-77.58245220364042
 30
0.0
 10
8.564119803089004
 20
-77.61724766804144
 30
0.0
 10
8.50021328183762
 20
-77.66685704302904
 30
0.0
 10
8.438373817877385
 20
-77.714743870274
 30
0.0
 10
8.301948036661492
 20
-77.82050830167118
 30
0.0
 10
8.237007986764533
 20
-77.85978239020302
 30
0.0
 10
8.186881847454147
 20
-77.8291210403843
 30
0.0
 10
8.070437620052702
 20
-77.76263069751898
 30
0.0
 10
7.940213010710259
 20
-77.61173551526503
 30
0.0
 10
7.814294770724377
 20
-77.46600797623897
 30
0.0
 10
7.646174111044185
 20
-77.27170459087088
 30
0.0
 10
7.472369043813332
 20
-77.07051101453228
 30
0.0
 10
7.279788206187865
 20
-77.00229812392435
 30
0.0
 10
7.127514985739822
 20
-76.94648757706329
 30
0.0
 10
6.958360797414055
 20
-76.99919753798761
 30
0.0
 10
6.794718761864688
 20
-77.04984044162078
 30
0.0
 10
6.65312533742092
 20
-77.09324864473494
 30
0.0
 10
6.506192014975014
 20
-77.13837939559171
 30
0.0
 10
6.403355914740306
 20
-77.10289491209363
 30
0.0
 10
6.300692069279861
 20
-77.06741042859556
 30
0.0
 10
6.181147255941692
 20
-76.94889914390296
 30
0.0
 10
6.06556430241156
 20
-76.83417746424415
 30
0.0
 10
5.909501476929743
 20
-76.6791481674079
 30
0.0
 10
5.747926498671525
 20
-76.51895122734379
 30
0.0
 10
5.574465940989195
 20
-76.49621359714114
 30
0.0
 10
5.435284083385102
 20
-76.46451871867684
 30
0.0
 10
5.297652518749371
 20
-76.48932340617064
 30
0.0
 10
5.176040648120052
 20
-76.51068299817919
 30
0.0
 10
5.123330687195729
 20
-76.5203292655379
 30
0.0
 10
5.07148200014272
 20
-76.52963102334806
 30
0.0
 10
5.007575478891335
 20
-76.53514317612446
 30
0.0
 10
4.863742742382155
 20
-76.56546001639466
 30
0.0
 10
4.624997625254341
 20
-76.45831754680338
 30
0.0
 10
4.393831718194077
 20
-76.35840977773115
 30
0.0
 10
4.320967948681042
 20
-76.32671489926685
 30
0.0
 10
4.247587414845221
 20
-76.29502002080255
 30
0.0
 10
4.177651976494649
 20
-76.26745925692055
 30
0.0
 10
4.177651976494649
 20
-76.26745925692055
 30
0.0
 10
4.021933660561357
 20
-76.20165793315227
 30
0.0
 10
4.021933660561357
 20
-76.20165793315227
 30
0.0
 10
4.021933660561357
 20
-76.20165793315227
 30
0.0
 10
3.724449665410033
 20
-76.19166715624506
 30
0.0
 10
3.724449665410033
 20
-76.19166715624506
 30
0.0
 10
3.724449665410033
 20
-76.19166715624506
 30
0.0
 10
3.724449665410033
 20
-76.08383566755674
 30
0.0
 10
3.724449665410033
 20
-76.08383566755674
 30
0.0
 10
3.724449665410033
 20
-76.08383566755674
 30
0.0
 10
3.973013304670809
 20
-76.08383566755674
 30
0.0
 10
3.973013304670809
 20
-76.08383566755674
 30
0.0
 10
3.973013304670809
 20
-76.08383566755674
 30
0.0
 10
4.175240409654974
 20
-76.00942160507535
 30
0.0
 10
4.175240409654974
 20
-76.00942160507535
 30
0.0
 10
4.247759669619483
 20
-75.98048280299924
 30
0.0
 10
4.32148471300383
 20
-75.94878792453494
 30
0.0
 10
4.394692992065389
 20
-75.91709304607064
 30
0.0
 10
4.625514389577128
 20
-75.8171852769984
 30
0.0
 10
4.864259506704942
 20
-75.71383241244091
 30
0.0
 10
5.021528115606597
 20
-75.74208219541995
 30
0.0
 10
5.07148200014272
 20
-75.74587180045373
 30
0.0
 10
5.123158432421467
 20
-75.75517355826391
 30
0.0
 10
5.17586839334579
 20
-75.7648198256226
 30
0.0
 10
5.297480263975109
 20
-75.78617941763114
 30
0.0
 10
5.435628592933627
 20
-75.81098410512495
 30
0.0
 10
5.563097125887871
 20
-75.78135628395179
 30
0.0
 10
5.747926498671525
 20
-75.75655159645799
 30
0.0
 10
5.909501476929743
 20
-75.59635465639388
 30
0.0
 10
6.06556430241156
 20
-75.44132535955764
 30
0.0
 10
6.181147255941692
 20
-75.32660367989882
 30
0.0
 10
6.300692069279861
 20
-75.20809239520622
 30
0.0
 10
6.403183659966044
 20
-75.17260791170816
 30
0.0
 10
6.506364269749277
 20
-75.13781244730712
 30
0.0
 10
6.65312533742092
 20
-75.18259868861537
 30
0.0
 10
6.794718761864688
 20
-75.225662382181
 30
0.0
 10
6.958360797414055
 20
-75.27596077626565
 30
0.0
 10
7.127859495288348
 20
-75.32867073718996
 30
0.0
 10
7.278926932316553
 20
-75.27354920942598
 30
0.0
 10
7.472369043813332
 20
-75.20533631881803
 30
0.0
 10
7.646346365818448
 20
-75.00414274247943
 30
0.0
 10
7.81446702549864
 20
-74.80949484756282
 30
0.0
 10
7.940385265484522
 20
-74.66411181808528
 30
0.0
 10
8.070609874826965
 20
-74.51321663583134
 30
0.0
 10
8.18981017861661
 20
-74.44500374522339
 30
0.0
 10
8.238041515410108
 20
-74.41640945269582
 30
0.0
 10
8.30246480098428
 20
-74.45533903167913
 30
0.0
 10
8.438029308328861
 20
-74.56075895352778
 30
0.0
 10
8.500041027063359
 20
-74.60864578077276
 30
0.0
 10
8.564119803089004
 20
-74.65825515576035
 30
0.0
 10
8.611145356462666
 20
-74.67892572867185
 30
0.0
 10
8.67229580132585
 20
-74.7278460845624
 30
0.0
 10
8.744126042193309
 20
-74.74817214792537
 30
0.0
 10
8.818023340351917
 20
-74.73783686146962
 30
0.0
 10
9.015255056882471
 20
-74.70958707849057
 30
0.0
 10
9.184753754756762
 20
-74.4687749040716
 30
0.0
 10
9.36424322953828
 20
-74.21383783816313
 30
0.0
 10
9.418675738205227
 20
-74.13632318974499
 30
0.0
 10
9.480170692616937
 20
-74.04881776441965
 30
0.0
 10
9.538220551543396
 20
-73.97681526877794
 30
0.0
 10
9.538220551543396
 20
-73.97681526877794
 30
0.0
 10
9.539081825414708
 20
-78.29972108366942
 30
0.0
 10
9.539081825414708
 20
-78.29972108366942
 30
0.0
 10
9.480687456939724
 20
-78.22737407847919
 30
0.0
 10
9.419020247753751
 20
-78.13952414360532
 30
0.0
 10
9.36424322953828
 20
-78.06166498563867
 30
0.0
  0
SPLINE
  5
8B
330
79
100
AcDbEntity
  8
レイヤー 1
 62
   250
420
  2299925
370
     9
100
AcDbSpline
210
0.0
220
0.0
230
1.0
 70
     9
 71
     3
 72
   140
 73
   136
 74
     0
 42
0.0000000001
 43
0.0000000001
 40
0.0
 40
0.0
 40
0.0
 40
0.0
 40
1.0
 40
1.0
 40
1.0
 40
2.0
 40
2.0
 40
2.0
 40
3.0
 40
3.0
 40
3.0
 40
4.0
 40
4.0
 40
4.0
 40
5.0
 40
5.0
 40
5.0
 40
6.0
 40
6.0
 40
6.0
 40
7.0
 40
7.0
 40
7.0
 40
8.0
 40
8.0
 40
8.0
 40
9.0
 40
9.0
 40
9.0
 40
10.0
 40
10.0
 40
10.0
 40
11.0
 40
11.0
 40
11.0
 40
12.0
 40
12.0
 40
12.0
 40
13.0
 40
13.0
 40
13.0
 40
14.0
 40
14.0
 40
14.0
 40
15.0
 40
15.0
 40
15.0
 40
16.0
 40
16.0
 40
16.0
 40
17.0
 40
17.0
 40
17.0
 40
18.0
 40
18.0
 40
18.0
 40
19.0
 40
19.0
 40
19.0
 40
20.0
 40
20.0
 40
20.0
 40
21.0
 40
21.0
 40
21.0
 40
22.0
 40
22.0
 40
22.0
 40
23.0
 40
23.0
 40
23.0
 40
24.0
 40
24.0
 40
24.0
 40
25.0
 40
25.0
 40
25.0
 40
26.0
 40
26.0
 40
26.0
 40
27.0
 40
27.0
 40
27.0
 40
28.0
 40
28.0
 40
28.0
 40
29.0
 40
29.0
 40
29.0
 40
30.0
 40
30.0
 40
30.0
 40
31.0
 40
31.0
 40
31.0
 40
32.0
 40
32.0
 40
32.0
 40
33.0
 40
33.0
 40
33.0
 40
34.0
 40
34.0
 40
34.0
 40
35.0
 40
35.0
 40
35.0
 40
36.0
 40
36.0
 40
36.0
 40
37.0
 40
37.0
 40
37.0
 40
38.0
 40
38.0
 40
38.0
 40
39.0
 40
39.0
 40
39.0
 40
40.0
 40
40.0
 40
40.0
 40
41.0
 40
41.0
 40
41.0
 40
42.0
 40
42.0
 40
42.0
 40
43.0
 40
43.0
 40
43.0
 40
44.0
 40
44.0
 40
44.0
 40
45.0
 40
45.0
 40
45.0
 40
45.0
 10
9.775415375702847
 20
-73.72153369332092
 30
0.0
 10
9.775415375702847
 20
-73.72153369332092
 30
0.0
 10
9.747165592723799
 20
-73.66262256052315
 30
0.0
 10
9.747165592723799
 20
-73.66262256052315
 30
0.0
 10
9.747165592723799
 20
-73.66262256052315
 30
0.0
 10
9.658626638752878
 20
-73.56960498242141
 30
0.0
 10
9.658626638752878
 20
-73.56960498242141
 30
0.0
 10
9.658626638752878
 20
-73.56960498242141
 30
0.0
 10
9.576461111429669
 20
-73.60922358050178
 30
0.0
 10
9.576461111429669
 20
-73.60922358050178
 30
0.0
 10
9.435384451308689
 20
-73.67778098065826
 30
0.0
 10
9.30137023693247
 20
-73.86829476099257
 30
0.0
 10
9.159604557714439
 20
-74.06983284687967
 30
0.0
 10
9.045399642378407
 20
-74.23209684423494
 30
0.0
 10
8.872972613341653
 20
-74.47738764278473
 30
0.0
 10
8.782883366402369
 20
-74.49013449608016
 30
0.0
 10
8.782883366402369
 20
-74.49013449608016
 30
0.0
 10
8.745676335161672
 20
-74.46980843271719
 30
0.0
 10
8.745676335161672
 20
-74.46980843271719
 30
0.0
 10
8.693999902882923
 20
-74.44362570702928
 30
0.0
 10
8.643012489701225
 20
-74.40297358030334
 30
0.0
 10
8.59150831219674
 20
-74.36301047267445
 30
0.0
 10
8.45249870936691
 20
-74.25517898398613
 30
0.0
 10
8.261640419484068
 20
-74.10841791631447
 30
0.0
 10
8.062858409985153
 20
-74.22968527739527
 30
0.0
 10
7.909207151343011
 20
-74.31753521226915
 30
0.0
 10
7.764857650511042
 20
-74.48462234330375
 30
0.0
 10
7.625331283358424
 20
-74.64585281201346
 30
0.0
 10
7.478397960912518
 20
-74.8160405289848
 30
0.0
 10
7.326641504787263
 20
-74.991395889184
 30
0.0
 10
7.194694347702195
 20
-75.03824918778341
 30
0.0
 10
7.120969304317847
 20
-75.06408740392278
 30
0.0
 10
6.992811752266554
 20
-75.02446880584241
 30
0.0
 10
6.86809929570051
 20
-74.98657275550467
 30
0.0
 10
6.696533540535067
 20
-74.93386279458033
 30
0.0
 10
6.50240240994124
 20
-74.87391813313699
 30
0.0
 10
6.321707151739886
 20
-74.93627436142002
 30
0.0
 10
6.16512756193528
 20
-74.99036236053844
 30
0.0
 10
6.025084430459875
 20
-75.129199708594
 30
0.0
 10
5.889519923115293
 20
-75.26355843251875
 30
0.0
 10
5.768424816808762
 20
-75.38379226495397
 30
0.0
 10
5.631310016495818
 20
-75.51987353662133
 30
0.0
 10
5.518138629805361
 20
-75.53537646630497
 30
0.0
 10
5.429427421060178
 20
-75.55604703921646
 30
0.0
 10
5.327797104245307
 20
-75.53813254269316
 30
0.0
 10
5.22013787033125
 20
-75.51849549842724
 30
0.0
 10
5.15864291591954
 20
-75.50747119287443
 30
0.0
 10
5.098181490153406
 20
-75.49679139687016
 30
0.0
 10
5.053739758393683
 20
-75.49437983003048
 30
0.0
 10
4.835837468951631
 20
-75.45338319375601
 30
0.0
 10
4.572976683427068
 20
-75.56741585431779
 30
0.0
 10
4.295129732541669
 20
-75.687649686753
 30
0.0
 10
4.224333020319784
 20
-75.71831103657173
 30
0.0
 10
4.153019543775113
 20
-75.74897238639045
 30
0.0
 10
4.080155774262078
 20
-75.77825569801508
 30
0.0
 10
4.080155774262078
 20
-75.77825569801508
 30
0.0
 10
3.947864107628485
 20
-75.8337217353276
 30
0.0
 10
3.947864107628485
 20
-75.8337217353276
 30
0.0
 10
3.947864107628485
 20
-75.8337217353276
 30
0.0
 10
3.474335733180895
 20
-75.8337217353276
 30
0.0
 10
3.474335733180895
 20
-75.8337217353276
 30
0.0
 10
3.474335733180895
 20
-75.8337217353276
 30
0.0
 10
3.474335733180895
 20
-76.44178108847419
 30
0.0
 10
3.474335733180895
 20
-76.44178108847419
 30
0.0
 10
3.474335733180895
 20
-76.44178108847419
 30
0.0
 10
3.947691852854223
 20
-76.44178108847419
 30
0.0
 10
3.947691852854223
 20
-76.44178108847419
 30
0.0
 10
3.947691852854223
 20
-76.44178108847419
 30
0.0
 10
4.082567341101754
 20
-76.49862516398082
 30
0.0
 10
4.082567341101754
 20
-76.49862516398082
 30
0.0
 10
4.152847289000851
 20
-76.52653043741134
 30
0.0
 10
4.223816255996997
 20
-76.55753629677859
 30
0.0
 10
4.294440713444618
 20
-76.58785313704878
 30
0.0
 10
4.572287664330018
 20
-76.70843147903252
 30
0.0
 10
4.83445943075753
 20
-76.82349766823988
 30
0.0
 10
5.039787121678421
 20
-76.78284554151392
 30
0.0
 10
5.098181490153406
 20
-76.77871142693162
 30
0.0
 10
5.15864291591954
 20
-76.76803163092735
 30
0.0
 10
5.22013787033125
 20
-76.75700732537456
 30
0.0
 10
5.327797104245307
 20
-76.73771479065715
 30
0.0
 10
5.42891065673739
 20
-76.71945578458533
 30
0.0
 10
5.529679699680948
 20
-76.74219341478798
 30
0.0
 10
5.631310016495818
 20
-76.75562928718045
 30
0.0
 10
5.768424816808762
 20
-76.89171055884782
 30
0.0
 10
5.889519923115293
 20
-77.01194439128304
 30
0.0
 10
6.025084430459875
 20
-77.14630311520778
 30
0.0
 10
6.16512756193528
 20
-77.28514046326336
 30
0.0
 10
6.321879406514148
 20
-77.33922846238178
 30
0.0
 10
6.50171339084419
 20
-77.4015846906648
 30
0.0
 10
6.696533540535067
 20
-77.34198453876998
 30
0.0
 10
6.86809929570051
 20
-77.28893006829713
 30
0.0
 10
6.992811752266554
 20
-77.25068950841086
 30
0.0
 10
7.120797049543585
 20
-77.21175992942753
 30
0.0
 10
7.195555621573507
 20
-77.2375981455669
 30
0.0
 10
7.326469250013
 20
-77.28410693461778
 30
0.0
 10
7.478225706138256
 20
-77.45980680436552
 30
0.0
 10
7.625159028584161
 20
-77.62965001178834
 30
0.0
 10
7.76468539573678
 20
-77.79122499004656
 30
0.0
 10
7.909207151343011
 20
-77.95831212108118
 30
0.0
 10
8.060102333596953
 20
-78.04443950821242
 30
0.0
 10
8.263018457678169
 20
-78.16777392658436
 30
0.0
 10
8.453015473689697
 20
-78.01997933026715
 30
0.0
 10
8.591680566971003
 20
-77.91249235112736
 30
0.0
 10
8.643184744475489
 20
-77.87252924349845
 30
0.0
 10
8.694172157657186
 20
-77.8318771167725
 30
0.0
 10
8.745848589935933
 20
-77.8056943910846
 30
0.0
 10
8.745848589935933
 20
-77.8056943910846
 30
0.0
 10
8.782883366402369
 20
-77.78536832772163
 30
0.0
 10
8.782883366402369
 20
-77.78536832772163
 30
0.0
 10
8.872972613341653
 20
-77.79811518101706
 30
0.0
 10
9.045399642378407
 20
-78.04340597956684
 30
0.0
 10
9.159604557714439
 20
-78.2056699769221
 30
0.0
 10
9.30137023693247
 20
-78.40720806280923
 30
0.0
 10
9.435384451308689
 20
-78.59772184314355
 30
0.0
 10
9.576461111429669
 20
-78.66627924330001
 30
0.0
 10
9.576461111429669
 20
-78.66627924330001
 30
0.0
 10
9.679297211664376
 20
-78.68350472072626
 30
0.0
 10
9.679297211664376
 20
-78.68350472072626
 30
0.0
 10
9.679297211664376
 20
-78.68350472072626
 30
0.0
 10
9.76869743950661
 20
-78.59152067127009
 30
0.0
 10
9.76869743950661
 20
-78.59152067127009
 30
0.0
 10
9.76869743950661
 20
-78.59152067127009
 30
0.0
 10
9.775415375702847
 20
-78.55396913048086
 30
0.0
 10
9.775415375702847
 20
-78.55396913048086
 30
0.0
 10
9.778860471188098
 20
-78.53536561486052
 30
0.0
 10
9.781616547576296
 20
-78.51056092736673
 30
0.0
 10
9.784200369190235
 20
-78.48575623987293
 30
0.0
 10
9.784200369190235
 20
-78.48575623987293
 30
0.0
 10
9.788334483772535
 20
-73.83453282523712
 30
0.0
 10
9.788334483772535
 20
-73.83453282523712
 30
0.0
 10
9.788334483772535
 20
-73.83453282523712
 30
0.0
 10
9.784200369190235
 20
-73.7900910934774
 30
0.0
 10
9.784200369190235
 20
-73.7900910934774
 30
0.0
 10
9.781616547576296
 20
-73.76494189643508
 30
0.0
 10
9.778860471188098
 20
-73.74013720894128
 30
0.0
 10
9.775415375702847
 20
-73.72153369332092
 30
0.0
  0
SPLINE
  5
8C
330
79
100
AcDbEntity
  8
レイヤー 1
 62
   250
420
  2299925
370
     9
100
AcDbSpline
210
0.0
220
0.0
230
1.0
 70
     9
 71
     3
 72
   149
 73
   145
 74
     0
 42
0.0000000001
 43
0.0000000001
 40
0.0
 40
0.0
 40
0.0
 40
0.0
 40
1.0
 40
1.0
 40
1.0
 40
2.0
 40
2.0
 40
2.0
 40
3.0
 40
3.0
 40
3.0
 40
4.0
 40
4.0
 40
4.0
 40
5.0
 40
5.0
 40
5.0
 40
6.0
 40
6.0
 40
6.0
 40
7.0
 40
7.0
 40
7.0
 40
8.0
 40
8.0
 40
8.0
 40
9.0
 40
9.0
 40
9.0
 40
10.0
 40
10.0
 40
10.0
 40
11.0
 40
11.0
 40
11.0
 40
12.0
 40
12.0
 40
12.0
 40
13.0
 40
13.0
 40
13.0
 40
14.0
 40
14.0
 40
14.0
 40
15.0
 40
15.0
 40
15.0
 40
16.0
 40
16.0
 40
16.0
 40
17.0
 40
17.0
 40
17.0
 40
18.0
 40
18.0
 40
18.0
 40
19.0
 40
19.0
 40
19.0
 40
20.0
 40
20.0
 40
20.0
 40
21.0
 40
21.0
 40
21.0
 40
22.0
 40
22.0
 40
22.0
 40
23.0
 40
23.0
 40
23.0
 40
24.0
 40
24.0
 40
24.0
 40
25.0
 40
25.0
 40
25.0
 40
26.0
 40
26.0
 40
26.0
 40
27.0
 40
27.0
 40
27.0
 40
28.0
 40
28.0
 40
28.0
 40
29.0
 40
29.0
 40
29.0
 40
30.0
 40
30.0
 40
30.0
 40
31.0
 40
31.0
 40
31.0
 40
32.0
 40
32.0
 40
32.0
 40
33.0
 40
33.0
 40
33.0
 40
34.0
 40
34.0
 40
34.0
 40
35.0
 40
35.0
 40
35.0
 40
36.0
 40
36.0
 40
36.0
 40
37.0
 40
37.0
 40
37.0
 40
38.0
 40
38.0
 40
38.0
 40
39.0
 40
39.0
 40
39.0
 40
40.0
 40
40.0
 40
40.0
 40
41.0
 40
41.0
 40
41.0
 40
42.0
 40
42.0
 40
42.0
 40
43.0
 40
43.0
 40
43.0
 40
44.0
 40
44.0
 40
44.0
 40
45.0
 40
45.0
 40
45.0
 40
46.0
 40
46.0
 40
46.0
 40
47.0
 40
47.0
 40
47.0
 40
48.0
 40
48.0
 40
48.0
 40
48.0
 10
21.85219759924615
 20
-73.87036181828371
 30
0.0
 10
21.79173617348002
 20
-73.86795025144405
 30
0.0
 10
21.71249897731927
 20
-73.89068788164668
 30
0.0
 10
21.66409538575151
 20
-74.04709521667704
 30
0.0
 10
21.58537495391355
 20
-74.36990066364494
 30
0.0
 10
21.43964741488749
 20
-75.33349387086932
 30
0.0
 10
21.29874300954077
 20
-76.26504769008088
 30
0.0
 10
21.19952425956557
 20
-76.92030485137539
 30
0.0
 10
21.10547315281825
 20
-77.54317811510856
 30
0.0
 10
21.03932731950145
 20
-77.91283686067588
 30
0.0
 10
20.95509473488709
 20
-77.55730300659809
 30
0.0
 10
20.85243088942665
 20
-76.93615229060755
 30
0.0
 10
20.77147114552328
 20
-76.44557069350797
 30
0.0
 10
20.52566358265071
 20
-74.95591140568594
 30
0.0
 10
20.45882873023685
 20
-74.68202631460858
 30
0.0
 10
20.32464226108638
 20
-74.61312440490357
 30
0.0
 10
20.32464226108638
 20
-74.61312440490357
 30
0.0
 10
20.25108947247629
 20
-74.584530112376
 30
0.0
 10
20.25108947247629
 20
-74.584530112376
 30
0.0
 10
20.25108947247629
 20
-74.584530112376
 30
0.0
 10
20.19527892561525
 20
-74.61140185716096
 30
0.0
 10
20.19527892561525
 20
-74.61140185716096
 30
0.0
 10
20.0705664690492
 20
-74.67100200905578
 30
0.0
 10
20.00803798599191
 20
-74.89527772514555
 30
0.0
 10
19.77721658848017
 20
-76.11242996008432
 30
0.0
 10
19.70159674257894
 20
-76.51068299817919
 30
0.0
 10
19.6030670117008
 20
-77.03020339735487
 30
0.0
 10
19.53313157335022
 20
-77.25654617073577
 30
0.0
 10
19.51573384114971
 20
-77.20693679574818
 30
0.0
 10
19.49885287327199
 20
-77.15112624888714
 30
0.0
 10
19.4873118033964
 20
-77.1121966699038
 30
0.0
 10
19.4873118033964
 20
-77.1121966699038
 30
0.0
 10
19.46044005861145
 20
-77.02469124457846
 30
0.0
 10
19.46044005861145
 20
-77.02469124457846
 30
0.0
 10
19.41358676001205
 20
-76.88550938697438
 30
0.0
 10
19.36914502825233
 20
-76.69189502070333
 30
0.0
 10
19.32194722010441
 20
-76.48691183933097
 30
0.0
 10
19.21893886509544
 20
-76.03801589760291
 30
0.0
 10
19.12161491763713
 20
-75.61426915291718
 30
0.0
 10
18.94729308608349
 20
-75.44649300278551
 30
0.0
 10
18.94729308608349
 20
-75.44649300278551
 30
0.0
 10
18.90612419503475
 20
-75.42031027709761
 30
0.0
 10
18.90612419503475
 20
-75.42031027709761
 30
0.0
 10
18.8599599155324
 20
-75.4020512710258
 30
0.0
 10
18.81086730486759
 20
-75.40515185696252
 30
0.0
 10
18.76711459220492
 20
-75.42788948716516
 30
0.0
 10
18.64498595725281
 20
-75.49059022499671
 30
0.0
 10
18.58814188174619
 20
-75.69626242546613
 30
0.0
 10
18.48995666041657
 20
-76.08418017710526
 30
0.0
 10
18.44396463568848
 20
-76.26608121872646
 30
0.0
 10
18.37092861140119
 20
-76.55512472993891
 30
0.0
 10
18.30891689266669
 20
-76.65985563269051
 30
0.0
 10
18.30392150421308
 20
-76.65262093217148
 30
0.0
 10
18.29823709666242
 20
-76.64331917436131
 30
0.0
 10
18.29220817956323
 20
-76.63263937835704
 30
0.0
 10
18.14062397821224
 20
-76.30742236454945
 30
0.0
 10
17.98387213363337
 20
-75.97152555473759
 30
0.0
 10
17.73772006121227
 20
-75.95326654866576
 30
0.0
 10
17.54565598790959
 20
-75.93190695665722
 30
0.0
 10
17.42146029566633
 20
-76.12552132292826
 30
0.0
 10
17.38253071668301
 20
-76.18443245572603
 30
0.0
 10
17.22457308868431
 20
-76.41111973865547
 30
0.0
 10
17.06644320591134
 20
-76.36426644005607
 30
0.0
 10
16.77722743992462
 20
-76.25367887497955
 30
0.0
 10
16.58550787617046
 20
-76.18029834114373
 30
0.0
 10
16.36829460582546
 20
-76.09727153994921
 30
0.0
 10
16.15452643096571
 20
-76.17926481249816
 30
0.0
 10
16.15452643096571
 20
-76.17926481249816
 30
0.0
 10
16.24444342313073
 20
-76.41284228639809
 30
0.0
 10
16.24444342313073
 20
-76.41284228639809
 30
0.0
 10
16.3681223510512
 20
-76.36564447825017
 30
0.0
 10
16.52349615743597
 20
-76.42455561104795
 30
0.0
 10
16.68782721208238
 20
-76.48725634887949
 30
0.0
 10
16.95103250715547
 20
-76.58785313704878
 30
0.0
 10
17.31070047581555
 20
-76.7260014660073
 30
0.0
 10
17.58940870057227
 20
-76.3246478419757
 30
0.0
 10
17.65073140020971
 20
-76.23231928297101
 30
0.0
 10
17.6939673485496
 20
-76.20406949999196
 30
0.0
 10
17.71928880036618
 20
-76.20269146179786
 30
0.0
 10
17.81919656943843
 20
-76.20992616231688
 30
0.0
 10
17.98559468137599
 20
-76.56683805458875
 30
0.0
 10
18.06931050166757
 20
-76.74563851027322
 30
0.0
 10
18.14510260234306
 20
-76.88378683923175
 30
0.0
 10
18.23622537792792
 20
-76.94476502932066
 30
0.0
 10
18.33509961835459
 20
-76.9340852333164
 30
0.0
 10
18.530264277594
 20
-76.9092805458226
 30
0.0
 10
18.60932921898048
 20
-76.63263937835704
 30
0.0
 10
18.73249138257816
 20
-76.14550287674271
 30
0.0
 10
18.76453077059099
 20
-76.01906787243404
 30
0.0
 10
18.80793897370513
 20
-75.84715760772008
 30
0.0
 10
18.84686855268845
 20
-75.73829259038618
 30
0.0
 10
18.93609652575643
 20
-75.92398323704114
 30
0.0
 10
19.01343891940028
 20
-76.26091357549857
 30
0.0
 10
19.07820671452298
 20
-76.54306689574053
 30
0.0
 10
19.126782560865
 20
-76.75425124898635
 30
0.0
 10
19.17260233081883
 20
-76.95372227758231
 30
0.0
 10
19.22272847012921
 20
-77.1025504025451
 30
0.0
 10
19.22272847012921
 20
-77.1025504025451
 30
0.0
 10
19.24770541239728
 20
-77.18419916554553
 30
0.0
 10
19.24770541239728
 20
-77.18419916554553
 30
0.0
 10
19.30920036680898
 20
-77.38883783736937
 30
0.0
 10
19.36242709205609
 20
-77.56557123576269
 30
0.0
 10
19.5024702235315
 20
-77.59209847099912
 30
0.0
 10
19.54277784070892
 20
-77.60036670016372
 30
0.0
 10
19.62149827254688
 20
-77.59898866196961
 30
0.0
 10
19.69246723954303
 20
-77.50872716025607
 30
0.0
 10
19.78014491964264
 20
-77.40124018111628
 30
0.0
 10
19.86041564444896
 20
-77.01504497721977
 30
0.0
 10
20.02285189657849
 20
-76.15893874913519
 30
0.0
 10
20.09433762789742
 20
-75.78204530304884
 30
0.0
 10
20.1849436391595
 20
-75.30489957834174
 30
0.0
 10
20.25694613480121
 20
-75.02929193952176
 30
0.0
 10
20.3387671525759
 20
-75.36002110610574
 30
0.0
 10
20.44315354577897
 20
-75.99185161810057
 30
0.0
 10
20.52463005400513
 20
-76.48622282023392
 30
0.0
 10
20.80247700489053
 20
-78.16880745522993
 30
0.0
 10
20.86793381911027
 20
-78.40583002461513
 30
0.0
 10
21.0579308351218
 20
-78.40583002461513
 30
0.0
 10
21.05861985421885
 20
-78.40583002461513
 30
0.0
 10
21.05913661854164
 20
-78.40583002461513
 30
0.0
 10
21.05982563763869
 20
-78.40583002461513
 30
0.0
 10
21.21433817015215
 20
-78.40479649596955
 30
0.0
 10
21.24431050087382
 20
-78.20429193872801
 30
0.0
 10
21.26325852604269
 20
-78.07682340577376
 30
0.0
 10
21.32940435935949
 20
-77.73506993363698
 30
0.0
 10
21.43465202643387
 20
-77.03916064561652
 30
0.0
 10
21.5461008653817
 20
-76.3025992308701
 30
0.0
 10
21.65858323297511
 20
-75.55811409650761
 30
0.0
 10
21.77433844127951
 20
-74.79364740833067
 30
0.0
 10
21.85374789221452
 20
-74.36404400132001
 30
0.0
 10
21.9273006808246
 20
-74.70614198300532
 30
0.0
 10
22.0072268960824
 20
-75.2766497953627
 30
0.0
 10
22.05683627106999
 20
-75.63011659214933
 30
0.0
 10
22.10334506012086
 20
-75.96153477783037
 30
0.0
 10
22.14020758181304
 20
-76.22336203470935
 30
0.0
 10
22.16690707182372
 20
-76.32705940881537
 30
0.0
 10
22.16690707182372
 20
-76.32705940881537
 30
0.0
 10
22.40909728443679
 20
-76.26504769008088
 30
0.0
 10
22.40909728443679
 20
-76.26504769008088
 30
0.0
 10
22.38584288991135
 20
-76.17478618836734
 30
0.0
 10
22.34829134912213
 20
-75.90606874051784
 30
0.0
 10
22.30453863645946
 20
-75.59532112774831
 30
0.0
 10
22.08853114953429
 20
-74.05536344584163
 30
0.0
 10
22.02186855189471
 20
-73.88414220022472
 30
0.0
 10
21.85219759924615
 20
-73.87036181828371
 30
0.0
  0
SPLINE
  5
8D
330
79
100
AcDbEntity
  8
レイヤー 1
 62
   250
420
  2299925
370
     9
100
AcDbSpline
210
0.0
220
0.0
230
1.0
 70
     9
 71
     3
 72
    23
 73
    19
 74
     0
 42
0.0000000001
 43
0.0000000001
 40
0.0
 40
0.0
 40
0.0
 40
0.0
 40
1.0
 40
1.0
 40
1.0
 40
2.0
 40
2.0
 40
2.0
 40
3.0
 40
3.0
 40
3.0
 40
4.0
 40
4.0
 40
4.0
 40
5.0
 40
5.0
 40
5.0
 40
6.0
 40
6.0
 40
6.0
 40
6.0
 10
31.01442904226809
 20
-77.20555875755408
 30
0.0
 10
29.41280415117545
 20
-77.35059727748311
 30
0.0
 10
28.12692226130594
 20
-77.43259055003204
 30
0.0
 10
28.11417540801052
 20
-77.43362407867762
 30
0.0
 10
28.11417540801052
 20
-77.43362407867762
 30
0.0
 10
28.13002284724267
 20
-77.68304899180972
 30
0.0
 10
28.13002284724267
 20
-77.68304899180972
 30
0.0
 10
28.14276970053809
 20
-77.68235997271266
 30
0.0
 10
29.43192443111858
 20
-77.60002219061519
 30
0.0
 10
31.03682216292222
 20
-77.45498367068617
 30
0.0
 10
32.69735818681264
 20
-77.30477750752928
 30
0.0
 10
34.42007818421183
 20
-74.89217713920881
 30
0.0
 10
34.49259744417633
 20
-74.78951329374837
 30
0.0
 10
34.49259744417633
 20
-74.78951329374837
 30
0.0
 10
34.28830328190102
 20
-74.64516379291641
 30
0.0
 10
34.28830328190102
 20
-74.64516379291641
 30
0.0
 10
34.27125005924903
 20
-74.66962397086168
 30
0.0
 10
32.55972662217691
 20
-77.06637689994998
 30
0.0
 10
31.01442904226809
 20
-77.20555875755408
 30
0.0
  0
ENDBLK
  5
7C
330
79
100
AcDbEntity
  8
0
100
AcDbBlockEnd
  0
ENDSEC
  0
SECTION
  2
ENTITIES
  0
INSERT
  5
7A
330
70
100
AcDbEntity
  8
レイヤー 1
100
AcDbBlockReference
  2
Block_0
 10
0.0
 20
0.0
 30
0.0
  0
ENDSEC
  0
SECTION
  2
OBJECTS
  0
DICTIONARY
  5
C
330
0
100
AcDbDictionary
281
     1
  3
ACAD_COLOR
350
63
  3
ACAD_DETAILVIEWSTYLE
350
6A
  3
ACAD_GROUP
350
D
  3
ACAD_LAYOUT
350
62
  3
ACAD_MATERIAL
350
10
  3
ACAD_MLEADERSTYLE
350
66
  3
ACAD_MLINESTYLE
350
5F
  3
ACAD_PLOTSETTINGS
350
61
  3
ACAD_PLOTSTYLENAME
350
E
  3
ACAD_SCALELIST
350
42
  3
ACAD_SECTIONVIEWSTYLE
350
68
  3
ACAD_TABLESTYLE
350
64
  3
ACAD_VISUALSTYLE
350
29
  3
ACDB_RECOMPOSE_DATA
350
96
  3
AcDbVariableDictionary
350
8E
  0
DICTIONARY
  5
63
102
{ACAD_REACTORS
330
C
102
}
330
C
100
AcDbDictionary
281
     1
  0
DICTIONARY
  5
6A
102
{ACAD_REACTORS
330
C
102
}
330
C
100
AcDbDictionary
281
     1
  3
Imperial24
350
6B
  0
DICTIONARY
  5
D
102
{ACAD_REACTORS
330
C
102
}
330
C
100
AcDbDictionary
281
     1
  0
DICTIONARY
  5
62
102
{ACAD_REACTORS
330
C
102
}
330
C
100
AcDbDictionary
281
     1
  3
Layout1
350
6F
  3
Layout2
350
77
  3
Model
350
73
  0
DICTIONARY
  5
10
102
{ACAD_REACTORS
330
C
102
}
330
C
100
AcDbDictionary
281
     1
  3
ByBlock
350
19
  3
ByLayer
350
11
  3
Global
350
21
  0
DICTIONARY
  5
66
102
{ACAD_REACTORS
330
C
102
}
330
C
100
AcDbDictionary
281
     1
  3
Standard
350
67
  0
DICTIONARY
  5
5F
102
{ACAD_REACTORS
330
C
102
}
330
C
100
AcDbDictionary
281
     1
  3
Standard
350
60
  0
DICTIONARY
  5
61
102
{ACAD_REACTORS
330
C
102
}
330
C
100
AcDbDictionary
281
     1
  0
ACDBDICTIONARYWDFLT
  5
E
102
{ACAD_REACTORS
330
C
102
}
330
C
100
AcDbDictionary
281
     1
  3
Normal
350
F
100
AcDbDictionaryWithDefault
340
F
  0
DICTIONARY
  5
42
102
{ACAD_REACTORS
330
C
102
}
330
C
100
AcDbDictionary
281
     1
  3
A0
350
43
  3
A1
350
44
  3
A2
350
45
  3
A3
350
46
  3
A4
350
47
  3
A5
350
48
  3
A6
350
49
  3
A7
350
4A
  3
A8
350
4B
  3
A9
350
4C
  3
B0
350
4D
  3
B1
350
4E
  3
B2
350
4F
  3
B3
350
50
  3
B4
350
51
  3
B5
350
52
  3
B6
350
53
  0
DICTIONARY
  5
68
102
{ACAD_REACTORS
330
C
102
}
330
C
100
AcDbDictionary
281
     1
  3
Imperial24
350
69
  0
DICTIONARY
  5
64
102
{ACAD_REACTORS
330
C
102
}
330
C
100
AcDbDictionary
281
     1
  3
Standard
350
65
  0
DICTIONARY
  5
29
102
{ACAD_REACTORS
330
C
102
}
330
C
100
AcDbDictionary
281
     1
  3
2dWireframe
350
2F
  3
Basic
350
2E
  3
Brighten
350
35
  3
ColorChange
350
39
  3
Conceptual
350
32
  3
Dim
350
34
  3
EdgeColorOff
350
41
  3
Facepattern
350
38
  3
Flat
350
2A
  3
FlatWithEdges
350
2B
  3
Gouraud
350
2C
  3
GouraudWithEdges
350
2D
  3
Hidden
350
31
  3
JitterOff
350
3F
  3
Linepattern
350
37
  3
OverhangOff
350
40
  3
Realistic
350
33
  3
Shaded
350
3E
  3
Shaded with edges
350
3D
  3
Shades of Gray
350
3A
  3
Sketchy
350
3B
  3
Thicken
350
36
  3
Wireframe
350
30
  3
X-Ray
350
3C
  0
XRECORD
  5
96
102
{ACAD_REACTORS
330
C
102
}
330
C
100
AcDbXrecord
280
     1
 90
        1
330
65
  0
DICTIONARY
  5
8E
102
{ACAD_REACTORS
330
C
102
}
330
C
100
AcDbDictionary
281
     1
  3
CANNOSCALE
350
93
  3
CMLEADERSTYLE
350
90
  3
CTABLESTYLE
350
8F
  3
CVIEWDETAILSTYLE
350
91
  3
CVIEWSECTIONSTYLE
350
92
  0
ACDBDETAILVIEWSTYLE
  5
6B
102
{ACAD_REACTORS
330
6A
102
}
330
6A
100
AcDbModelDocViewStyle
 70
     0
  3
Imperial24
290
     1
300
Imperial24
 90
        0
100
AcDbDetailViewStyle
 70
     0
 71
     0
 90
        3
 71
     1
340
55
 62
   256
 40
0.24
340
0
 62
   256
 40
0.24
300

 40
0.36
280
     3
 71
     2
340
5D
 90
       25
 62
   256
 71
     3
340
55
 62
   256
 40
0.24
 90
        1
 40
0.75
 90
        1
300
%<\AcVar ViewType \f "%tc1">% %<\AcVar ViewDetailId>%\PSCALE %<\AcVar ViewScale \f "%sn">%
 71
     4
340
5D
 90
       25
 62
   256
340
5D
 90
       25
 62
   256
280
     0
  0
LAYOUT
  5
6F
102
{ACAD_REACTORS
330
62
102
}
330
62
100
AcDbPlotSettings
  1

  2

  4

  6

 40
0.0
 41
0.0
 42
0.0
 43
0.0
 44
0.0
 45
0.0
 46
0.0
 47
0.0
 48
0.0
 49
0.0
140
0.0
141
0.0
142
1.0
143
1.0
 70
   688
 72
     0
 73
     0
 74
     5
  7

 75
    16
147
1.0
 76
     0
 77
     2
 78
   300
148
0.0
149
0.0
100
AcDbLayout
  1
Layout1
 70
     1
 71
     1
 10
0.0
 20
0.0
 11
12.0
 21
9.0
 12
0.0
 22
0.0
 32
0.0
 14
0.0
 24
0.0
 34
0.0
 15
0.0
 25
0.0
 35
0.0
146
0.0
 13
0.0
 23
0.0
 33
0.0
 16
1.0
 26
0.0
 36
0.0
 17
0.0
 27
1.0
 37
0.0
 76
     0
330
6C
  0
LAYOUT
  5
77
102
{ACAD_REACTORS
330
62
102
}
330
62
100
AcDbPlotSettings
  1

  2

  4

  6

 40
0.0
 41
0.0
 42
0.0
 43
0.0
 44
0.0
 45
0.0
 46
0.0
 47
0.0
 48
0.0
 49
0.0
140
0.0
141
0.0
142
1.0
143
1.0
 70
   688
 72
     0
 73
     0
 74
     5
  7

 75
    16
147
1.0
 76
     0
 77
     2
 78
   300
148
0.0
149
0.0
100
AcDbLayout
  1
Layout2
 70
     1
 71
     2
 10
0.0
 20
0.0
 11
12.0
 21
9.0
 12
0.0
 22
0.0
 32
0.0
 14
0.0
 24
0.0
 34
0.0
 15
0.0
 25
0.0
 35
0.0
146
0.0
 13
0.0
 23
0.0
 33
0.0
 16
1.0
 26
0.0
 36
0.0
 17
0.0
 27
1.0
 37
0.0
 76
     0
330
74
  0
LAYOUT
  5
73
102
{ACAD_REACTORS
330
62
102
}
330
62
100
AcDbPlotSettings
  1

  2

  4

  6

 40
0.0
 41
0.0
 42
0.0
 43
0.0
 44
0.0
 45
0.0
 46
0.0
 47
0.0
 48
0.0
 49
0.0
140
0.0
141
0.0
142
1.0
143
1.0
 70
  1712
 72
     0
 73
     0
 74
     0
  7

 75
     0
147
1.0
 76
     0
 77
     2
 78
   300
148
0.0
149
0.0
100
AcDbLayout
  1
Model
 70
     1
 71
     0
 10
0.0
 20
0.0
 11
12.0
 21
9.0
 12
0.0
 22
0.0
 32
0.0
 14
0.0
 24
0.0
 34
0.0
 15
0.0
 25
0.0
 35
0.0
146
0.0
 13
0.0
 23
0.0
 33
0.0
 16
1.0
 26
0.0
 36
0.0
 17
0.0
 27
1.0
 37
0.0
 76
     0
330
70
  0
MATERIAL
  5
19
102
{ACAD_XDICTIONARY
360
1A
102
}
102
{ACAD_REACTORS
330
10
102
}
330
10
100
AcDbMaterial
  1
ByBlock
 72
     0
 43
0.0208333333333333
 43
0.0
 43
0.0
 43
0.0
 43
0.0
 43
0.0208333333333333
 43
0.0
 43
0.0
 43
0.0
 43
0.0
 43
1.0
 43
0.0
 43
0.0
 43
0.0
 43
0.0
 43
1.0
 77
     0
 47
0.0208333333333333
 47
0.0
 47
0.0
 47
0.0
 47
0.0
 47
0.0208333333333333
 47
0.0
 47
0.0
 47
0.0
 47
0.0
 47
1.0
 47
0.0
 47
0.0
 47
0.0
 47
0.0
 47
1.0
171
     0
 49
0.0208333333333333
 49
0.0
 49
0.0
 49
0.0
 49
0.0
 49
0.0208333333333333
 49
0.0
 49
0.0
 49
0.0
 49
0.0
 49
1.0
 49
0.0
 49
0.0
 49
0.0
 49
0.0
 49
1.0
175
     0
142
0.0208333333333333
142
0.0
142
0.0
142
0.0
142
0.0
142
0.0208333333333333
142
0.0
142
0.0
142
0.0
142
0.0
142
1.0
142
0.0
142
0.0
142
0.0
142
0.0
142
1.0
179
     0
144
0.0208333333333333
144
0.0
144
0.0
144
0.0
144
0.0
144
0.0208333333333333
144
0.0
144
0.0
144
0.0
144
0.0
144
1.0
144
0.0
144
0.0
144
0.0
144
0.0
144
1.0
147
0.0208333333333333
147
0.0
147
0.0
147
0.0
147
0.0
147
0.0208333333333333
147
0.0
147
0.0
147
0.0
147
0.0
147
1.0
147
0.0
147
0.0
147
0.0
147
0.0
147
1.0
  0
MATERIAL
  5
11
102
{ACAD_XDICTIONARY
360
12
102
}
102
{ACAD_REACTORS
330
10
102
}
330
10
100
AcDbMaterial
  1
ByLayer
 72
     0
 43
0.0208333333333333
 43
0.0
 43
0.0
 43
0.0
 43
0.0
 43
0.0208333333333333
 43
0.0
 43
0.0
 43
0.0
 43
0.0
 43
1.0
 43
0.0
 43
0.0
 43
0.0
 43
0.0
 43
1.0
 77
     0
 47
0.0208333333333333
 47
0.0
 47
0.0
 47
0.0
 47
0.0
 47
0.0208333333333333
 47
0.0
 47
0.0
 47
0.0
 47
0.0
 47
1.0
 47
0.0
 47
0.0
 47
0.0
 47
0.0
 47
1.0
171
     0
 49
0.0208333333333333
 49
0.0
 49
0.0
 49
0.0
 49
0.0
 49
0.0208333333333333
 49
0.0
 49
0.0
 49
0.0
 49
0.0
 49
1.0
 49
0.0
 49
0.0
 49
0.0
 49
0.0
 49
1.0
175
     0
142
0.0208333333333333
142
0.0
142
0.0
142
0.0
142
0.0
142
0.0208333333333333
142
0.0
142
0.0
142
0.0
142
0.0
142
1.0
142
0.0
142
0.0
142
0.0
142
0.0
142
1.0
179
     0
144
0.0208333333333333
144
0.0
144
0.0
144
0.0
144
0.0
144
0.0208333333333333
144
0.0
144
0.0
144
0.0
144
0.0
144
1.0
144
0.0
144
0.0
144
0.0
144
0.0
144
1.0
147
0.0208333333333333
147
0.0
147
0.0
147
0.0
147
0.0
147
0.0208333333333333
147
0.0
147
0.0
147
0.0
147
0.0
147
1.0
147
0.0
147
0.0
147
0.0
147
0.0
147
1.0
  0
MATERIAL
  5
21
102
{ACAD_XDICTIONARY
360
22
102
}
102
{ACAD_REACTORS
330
10
102
}
330
10
100
AcDbMaterial
  1
Global
 72
     0
 43
0.0208333333333333
 43
0.0
 43
0.0
 43
0.0
 43
0.0
 43
0.0208333333333333
 43
0.0
 43
0.0
 43
0.0
 43
0.0
 43
1.0
 43
0.0
 43
0.0
 43
0.0
 43
0.0
 43
1.0
 77
     0
 47
0.0208333333333333
 47
0.0
 47
0.0
 47
0.0
 47
0.0
 47
0.0208333333333333
 47
0.0
 47
0.0
 47
0.0
 47
0.0
 47
1.0
 47
0.0
 47
0.0
 47
0.0
 47
0.0
 47
1.0
171
     0
 49
0.0208333333333333
 49
0.0
 49
0.0
 49
0.0
 49
0.0
 49
0.0208333333333333
 49
0.0
 49
0.0
 49
0.0
 49
0.0
 49
1.0
 49
0.0
 49
0.0
 49
0.0
 49
0.0
 49
1.0
175
     0
142
0.0208333333333333
142
0.0
142
0.0
142
0.0
142
0.0
142
0.0208333333333333
142
0.0
142
0.0
142
0.0
142
0.0
142
1.0
142
0.0
142
0.0
142
0.0
142
0.0
142
1.0
179
     0
144
0.0208333333333333
144
0.0
144
0.0
144
0.0
144
0.0
144
0.0208333333333333
144
0.0
144
0.0
144
0.0
144
0.0
144
1.0
144
0.0
144
0.0
144
0.0
144
0.0
144
1.0
147
0.0208333333333333
147
0.0
147
0.0
147
0.0
147
0.0
147
0.0208333333333333
147
0.0
147
0.0
147
0.0
147
0.0
147
1.0
147
0.0
147
0.0
147
0.0
147
0.0
147
1.0
  0
MLEADERSTYLE
  5
67
102
{ACAD_REACTORS
330
66
102
}
330
66
100
AcDbMLeaderStyle
179
     2
170
     2
171
     1
172
     0
 90
        2
 40
0.0
 41
0.0
173
     1
 91
-1056964608
340
5B
 92
       -2
290
     1
 42
0.09
291
     1
 43
0.36
  3
Standard
 44
0.18
300

342
55
174
     1
178
     6
175
     1
176
     0
 93
-1056964608
 45
0.18
292
     0
297
     0
 46
0.18
 94
-1056964608
 47
1.0
 49
1.0
140
1.0
293
     1
141
0.0
294
     1
177
     0
142
1.0
295
     1
296
     0
143
0.125
271
     0
272
     9
273
     9
298
     1
  0
MLINESTYLE
  5
60
102
{ACAD_REACTORS
330
5F
102
}
330
5F
100
AcDbMlineStyle
  2
STANDARD
 70
     0
  3

 62
   256
 51
90.0
 52
90.0
 71
     2
 49
0.5
 62
   256
  6
BYLAYER
 49
-0.5
 62
   256
  6
BYLAYER
  0
ACDBPLACEHOLDER
  5
F
102
{ACAD_REACTORS
330
E
102
}
330
E
  0
SCALE
  5
43
102
{ACAD_REACTORS
330
42
102
}
330
42
100
AcDbScale
 70
     0
300
1:1
140
1.0
141
1.0
290
     1
  0
SCALE
  5
44
102
{ACAD_REACTORS
330
42
102
}
330
42
100
AcDbScale
 70
     0
300
1/128" = 1'-0"
140
0.0078125
141
12.0
290
     0
  0
SCALE
  5
45
102
{ACAD_REACTORS
330
42
102
}
330
42
100
AcDbScale
 70
     0
300
1/64" = 1'-0"
140
0.015625
141
12.0
290
     0
  0
SCALE
  5
46
102
{ACAD_REACTORS
330
42
102
}
330
42
100
AcDbScale
 70
     0
300
1/32" = 1'-0"
140
0.03125
141
12.0
290
     0
  0
SCALE
  5
47
102
{ACAD_REACTORS
330
42
102
}
330
42
100
AcDbScale
 70
     0
300
1/16" = 1'-0"
140
0.0625
141
12.0
290
     0
  0
SCALE
  5
48
102
{ACAD_REACTORS
330
42
102
}
330
42
100
AcDbScale
 70
     0
300
3/32" = 1'-0"
140
0.09375
141
12.0
290
     0
  0
SCALE
  5
49
102
{ACAD_REACTORS
330
42
102
}
330
42
100
AcDbScale
 70
     0
300
1/8" = 1'-0"
140
0.125
141
12.0
290
     0
  0
SCALE
  5
4A
102
{ACAD_REACTORS
330
42
102
}
330
42
100
AcDbScale
 70
     0
300
3/16" = 1'-0"
140
0.1875
141
12.0
290
     0
  0
SCALE
  5
4B
102
{ACAD_REACTORS
330
42
102
}
330
42
100
AcDbScale
 70
     0
300
1/4" = 1'-0"
140
0.25
141
12.0
290
     0
  0
SCALE
  5
4C
102
{ACAD_REACTORS
330
42
102
}
330
42
100
AcDbScale
 70
     0
300
3/8" = 1'-0"
140
0.375
141
12.0
290
     0
  0
SCALE
  5
4D
102
{ACAD_REACTORS
330
42
102
}
330
42
100
AcDbScale
 70
     0
300
1/2" = 1'-0"
140
0.5
141
12.0
290
     0
  0
SCALE
  5
4E
102
{ACAD_REACTORS
330
42
102
}
330
42
100
AcDbScale
 70
     0
300
3/4" = 1'-0"
140
0.75
141
12.0
290
     0
  0
SCALE
  5
4F
102
{ACAD_REACTORS
330
42
102
}
330
42
100
AcDbScale
 70
     0
300
1" = 1'-0"
140
1.0
141
12.0
290
     0
  0
SCALE
  5
50
102
{ACAD_REACTORS
330
42
102
}
330
42
100
AcDbScale
 70
     0
300
1-1/2" = 1'-0"
140
1.5
141
12.0
290
     0
  0
SCALE
  5
51
102
{ACAD_REACTORS
330
42
102
}
330
42
100
AcDbScale
 70
     0
300
3" = 1'-0"
140
3.0
141
12.0
290
     0
  0
SCALE
  5
52
102
{ACAD_REACTORS
330
42
102
}
330
42
100
AcDbScale
 70
     0
300
6" = 1'-0"
140
6.0
141
12.0
290
     0
  0
SCALE
  5
53
102
{ACAD_REACTORS
330
42
102
}
330
42
100
AcDbScale
 70
     0
300
1'-0" = 1'-0"
140
12.0
141
12.0
290
     0
  0
ACDBSECTIONVIEWSTYLE
  5
69
102
{ACAD_REACTORS
330
68
102
}
330
68
100
AcDbModelDocViewStyle
 70
     0
  3
Imperial24
290
     1
300
Imperial24
 90
        0
100
AcDbSectionViewStyle
 70
     0
 71
     0
 90
       78
 71
     1
340
55
 62
   256
 40
0.24
340
0
340
0
 62
   256
 40
0.24
300
I, O, Q, S, X, Z
 40
0.48
 90
        3
 40
0.18
 90
        1
 71
     2
340
5D
 90
       25
 62
   256
340
5D
 90
       50
 62
   256
 40
0.24
 40
0.0
 40
0.24
 71
     3
340
55
 62
   256
 40
0.24
 90
        1
 40
0.75
 90
        1
300
%<\AcVar ViewType \f "%tc1">% %<\AcVar ViewSectionStartId>%-%<\AcVar ViewSectionEndId>%\PSCALE %<\AcVar ViewScale \f "%sn">%
 71
     4
 62
   256
 62
   257
300
ANSI31
 40
1.0
 90
        0
290
     0
290
     0
 90
        6
 40
0.0
 40
1.570796326794896
 40
0.2617993877991494
 40
1.308996938995747
 40
-0.2617993877991494
 40
1.832595714594046
  0
TABLESTYLE
  5
65
102
{ACAD_XDICTIONARY
360
94
102
}
102
{ACAD_REACTORS
330
64
102
}
330
64
100
AcDbTableStyle
280
     0
  3
Standard
 70
     0
 71
     0
 40
0.06
 41
0.06
280
     0
281
     0
  7
Standard
140
0.18
170
     2
 62
     0
 63
     7
283
     0
 90
      512
 91
        0
  1

274
    -2
284
     1
 64
     0
275
    -2
285
     1
 65
     0
276
    -2
286
     1
 66
     0
277
    -2
287
     1
 67
     0
278
    -2
288
     1
 68
     0
279
    -2
289
     1
 69
     0
  7
Standard
140
0.25
170
     5
 62
     0
 63
     7
283
     0
 90
      512
 91
        0
  1

274
    -2
284
     1
 64
     0
275
    -2
285
     1
 65
     0
276
    -2
286
     1
 66
     0
277
    -2
287
     1
 67
     0
278
    -2
288
     1
 68
     0
279
    -2
289
     1
 69
     0
  7
Standard
140
0.18
170
     5
 62
     0
 63
     7
283
     0
 90
      512
 91
        0
  1

274
    -2
284
     1
 64
     0
275
    -2
285
     1
 65
     0
276
    -2
286
     1
 66
     0
277
    -2
287
     1
 67
     0
278
    -2
288
     1
 68
     0
279
    -2
289
     1
 69
     0
  0
VISUALSTYLE
  5
2F
102
{ACAD_REACTORS
330
29
102
}
330
29
100
AcDbVisualStyle
  2
2dWireframe
 70
     4
177
     3
291
     0
 70
    58
 90
        0
176
     1
 90
        2
176
     1
 90
        0
176
     1
 90
        0
176
     1
 40
0.6
176
     1
 40
30.0
176
     1
 62
     7
420
 16777215
176
     1
 90
        1
176
     1
 90
        4
176
     1
 62
     7
176
     1
 62
   257
176
     1
 90
        1
176
     1
 90
        1
176
     1
 40
1.0
176
     1
 90
        0
176
     1
 62
   257
176
     1
 40
1.0
176
     1
 90
        1
176
     1
 90
        6
176
     1
 90
        2
176
     1
 62
     7
176
     1
 90
        5
176
     1
 90
        0
176
     1
 90
        0
176
     1
290
     0
176
     1
 90
        1
176
     1
 40
0.0
176
     1
 90
        0
176
     1
290
     1
176
     1
290
     1
176
     1
290
     0
176
     1
290
     0
176
     1
290
     0
176
     1
290
     0
176
     1
290
     0
176
     1
290
     0
176
     1
290
     0
176
     1
 90
       50
176
     1
 40
0.0
176
     1
 40
1.0
176
     1
 90
        0
176
     1
 62
    18
420
        0
176
     1
 90
       50
176
     1
 90
        3
176
     1
 62
     5
420
      255
176
     1
290
     0
176
     1
 90
       50
176
     1
 90
       50
176
     1
 90
       50
176
     1
290
     0
176
     1
 90
       50
176
     1
 62
   256
176
     0
 40
1.0
176
     0
 90
        2
176
     1
  1
strokes_ogs.tif
176
     1
290
     0
176
     1
 40
1.0
176
     1
 40
1.0
176
     1
  0
VISUALSTYLE
  5
2E
102
{ACAD_REACTORS
330
29
102
}
330
29
100
AcDbVisualStyle
  2
Basic
 70
     7
177
     3
291
     1
 70
    58
 90
        1
176
     1
 90
        0
176
     1
 90
        1
176
     1
 90
        0
176
     1
 40
0.6
176
     1
 40
30.0
176
     1
 62
     7
420
 16777215
176
     1
 90
        0
176
     1
 90
        4
176
     1
 62
     7
176
     1
 62
   257
176
     1
 90
        1
176
     1
 90
        1
176
     1
 40
1.0
176
     1
 90
        8
176
     1
 62
     7
176
     1
 40
1.0
176
     1
 90
        1
176
     1
 90
        6
176
     1
 90
        2
176
     1
 62
     7
176
     1
 90
        5
176
     1
 90
        0
176
     1
 90
        0
176
     1
290
     0
176
     1
 90
        1
176
     1
 40
0.0
176
     1
 90
        0
176
     1
290
     0
176
     1
290
     1
176
     1
290
     1
176
     1
290
     0
176
     1
290
     0
176
     1
290
     0
176
     1
290
     0
176
     1
290
     0
176
     1
290
     0
176
     1
 90
       50
176
     1
 40
0.0
176
     1
 40
1.0
176
     1
 90
        0
176
     1
 62
    18
420
        0
176
     1
 90
       50
176
     1
 90
        3
176
     1
 62
     5
420
      255
176
     1
290
     0
176
     1
 90
       50
176
     1
 90
       50
176
     1
 90
       50
176
     1
290
     0
176
     1
 90
       50
176
     1
 62
   256
176
     0
 40
1.0
176
     0
 90
        2
176
     1
  1
strokes_ogs.tif
176
     1
290
     0
176
     1
 40
1.0
176
     1
 40
1.0
176
     1
  0
VISUALSTYLE
  5
35
102
{ACAD_REACTORS
330
29
102
}
330
29
100
AcDbVisualStyle
  2
Brighten
 70
    12
177
     3
291
     1
 70
    58
 90
        2
176
     1
 90
        2
176
     1
 90
        0
176
     1
 90
        0
176
     1
 40
0.6
176
     1
 40
30.0
176
     1
 62
     7
420
 16777215
176
     1
 90
        1
176
     1
 90
        4
176
     1
 62
     7
176
     1
 62
   257
176
     1
 90
        1
176
     1
 90
        1
176
     1
 40
1.0
176
     1
 90
        8
176
     1
 62
     7
176
     1
 40
1.0
176
     1
 90
        1
176
     1
 90
        6
176
     1
 90
        2
176
     1
 62
     7
176
     1
 90
        5
176
     1
 90
        0
176
     1
 90
        0
176
     1
290
     0
176
     1
 90
        1
176
     1
 40
50.0
176
     1
 90
        0
176
     1
290
     0
176
     1
290
     1
176
     1
290
     1
176
     1
290
     0
176
     1
290
     0
176
     1
290
     0
176
     1
290
     0
176
     1
290
     0
176
     1
290
     0
176
     1
 90
       50
176
     1
 40
0.0
176
     1
 40
1.0
176
     1
 90
        0
176
     1
 62
    18
420
        0
176
     1
 90
       50
176
     1
 90
        3
176
     1
 62
     5
420
      255
176
     1
290
     0
176
     1
 90
       50
176
     1
 90
       50
176
     1
 90
       50
176
     1
290
     0
176
     1
 90
       50
176
     1
 62
   256
176
     0
 40
1.0
176
     0
 90
        2
176
     1
  1
strokes_ogs.tif
176
     1
290
     0
176
     1
 40
1.0
176
     1
 40
1.0
176
     1
  0
VISUALSTYLE
  5
39
102
{ACAD_REACTORS
330
29
102
}
330
29
100
AcDbVisualStyle
  2
ColorChange
 70
    16
177
     3
291
     1
 70
    58
 90
        2
176
     1
 90
        2
176
     1
 90
        3
176
     1
 90
        0
176
     1
 40
0.6
176
     1
 40
30.0
176
     1
 62
     8
420
  8421504
176
     1
 90
        1
176
     1
 90
        4
176
     1
 62
     7
176
     1
 62
   257
176
     1
 90
        1
176
     1
 90
        1
176
     1
 40
1.0
176
     1
 90
        8
176
     1
 62
     8
420
  8421504
176
     1
 40
1.0
176
     1
 90
        1
176
     1
 90
        6
176
     1
 90
        2
176
     1
 62
     7
176
     1
 90
        5
176
     1
 90
        0
176
     1
 90
        0
176
     1
290
     0
176
     1
 90
        1
176
     1
 40
0.0
176
     1
 90
        0
176
     1
290
     0
176
     1
290
     1
176
     1
290
     1
176
     1
290
     0
176
     1
290
     0
176
     1
290
     0
176
     1
290
     0
176
     1
290
     0
176
     1
290
     0
176
     1
 90
       50
176
     1
 40
0.0
176
     1
 40
1.0
176
     1
 90
        0
176
     1
 62
    18
420
        0
176
     1
 90
       50
176
     1
 90
        3
176
     1
 62
     5
420
      255
176
     1
290
     0
176
     1
 90
       50
176
     1
 90
       50
176
     1
 90
       50
176
     1
290
     0
176
     1
 90
       50
176
     1
 62
   256
176
     0
 40
1.0
176
     0
 90
        2
176
     1
  1
strokes_ogs.tif
176
     1
290
     0
176
     1
 40
1.0
176
     1
 40
1.0
176
     1
  0
VISUALSTYLE
  5
32
102
{ACAD_REACTORS
330
29
102
}
330
29
100
AcDbVisualStyle
  2
Conceptual
 70
     9
177
     3
291
     0
 70
    58
 90
        3
176
     1
 90
        2
176
     1
 90
        0
176
     1
 90
        0
176
     1
 40
0.6
176
     1
 40
30.0
176
     1
 62
     7
420
 16777215
176
     1
 90
        2
176
     1
 90
        2
176
     1
 62
     7
176
     1
 62
   257
176
     1
 90
        1
176
     1
 90
        1
176
     1
 40
179.0
176
     1
 90
        8
176
     1
 62
     7
176
     1
 40
1.0
176
     1
 90
        1
176
     1
 90
        6
176
     1
 90
        2
176
     1
 62
     7
176
     1
 90
        3
176
     1
 90
        0
176
     1
 90
        0
176
     1
290
     0
176
     1
 90
        1
176
     1
 40
0.0
176
     1
 90
        0
176
     1
290
     0
176
     1
290
     1
176
     1
290
     1
176
     1
290
     0
176
     1
290
     0
176
     1
290
     0
176
     1
290
     0
176
     1
290
     0
176
     1
290
     0
176
     1
 90
       50
176
     1
 40
0.0
176
     1
 40
1.0
176
     1
 90
        0
176
     1
 62
    18
420
        0
176
     1
 90
       50
176
     1
 90
        3
176
     1
 62
     5
420
      255
176
     1
290
     0
176
     1
 90
       50
176
     1
 90
       50
176
     1
 90
       50
176
     1
290
     0
176
     1
 90
       50
176
     1
 62
   256
176
     0
 40
1.0
176
     0
 90
        2
176
     1
  1
strokes_ogs.tif
176
     1
290
     0
176
     1
 40
1.0
176
     1
 40
1.0
176
     1
  0
VISUALSTYLE
  5
34
102
{ACAD_REACTORS
330
29
102
}
330
29
100
AcDbVisualStyle
  2
Dim
 70
    11
177
     3
291
     1
 70
    58
 90
        2
176
     1
 90
        2
176
     1
 90
        0
176
     1
 90
        0
176
     1
 40
0.6
176
     1
 40
30.0
176
     1
 62
     7
420
 16777215
176
     1
 90
        1
176
     1
 90
        4
176
     1
 62
     7
176
     1
 62
   257
176
     1
 90
        1
176
     1
 90
        1
176
     1
 40
1.0
176
     1
 90
        8
176
     1
 62
     7
176
     1
 40
1.0
176
     1
 90
        1
176
     1
 90
        6
176
     1
 90
        2
176
     1
 62
     7
176
     1
 90
        5
176
     1
 90
        0
176
     1
 90
        0
176
     1
290
     0
176
     1
 90
        1
176
     1
 40
-50.0
176
     1
 90
        0
176
     1
290
     0
176
     1
290
     1
176
     1
290
     1
176
     1
290
     0
176
     1
290
     0
176
     1
290
     0
176
     1
290
     0
176
     1
290
     0
176
     1
290
     0
176
     1
 90
       50
176
     1
 40
0.0
176
     1
 40
1.0
176
     1
 90
        0
176
     1
 62
    18
420
        0
176
     1
 90
       50
176
     1
 90
        3
176
     1
 62
     5
420
      255
176
     1
290
     0
176
     1
 90
       50
176
     1
 90
       50
176
     1
 90
       50
176
     1
290
     0
176
     1
 90
       50
176
     1
 62
   256
176
     0
 40
1.0
176
     0
 90
        2
176
     1
  1
strokes_ogs.tif
176
     1
290
     0
176
     1
 40
1.0
176
     1
 40
1.0
176
     1
  0
VISUALSTYLE
  5
41
102
{ACAD_REACTORS
330
29
102
}
330
29
100
AcDbVisualStyle
  2
EdgeColorOff
 70
    22
177
     3
291
     1
 70
    58
 90
        2
176
     0
 90
        2
176
     0
 90
        0
176
     0
 90
        0
176
     0
 40
0.6
176
     0
 40
30.0
176
     0
 62
     7
420
 16777215
176
     0
 90
        1
176
     0
 90
        4
176
     0
 62
     7
176
     0
 62
   257
176
     0
 90
        1
176
     0
 90
        1
176
     0
 40
1.0
176
     0
 90
        8
176
     2
 62
     7
176
     0
 40
1.0
176
     0
 90
        1
176
     0
 90
        6
176
     0
 90
        2
176
     0
 62
     7
176
     0
 90
        5
176
     0
 90
        0
176
     0
 90
        0
176
     0
290
     0
176
     0
 90
        1
176
     0
 40
0.0
176
     0
 90
        0
176
     0
290
     0
176
     0
290
     1
176
     0
290
     1
176
     0
290
     0
176
     0
290
     0
176
     0
290
     0
176
     0
290
     0
176
     0
290
     0
176
     0
290
     0
176
     0
 90
       50
176
     0
 40
0.0
176
     0
 40
1.0
176
     0
 90
        0
176
     0
 62
    18
420
        0
176
     0
 90
       50
176
     0
 90
        3
176
     0
 62
     5
420
      255
176
     0
290
     0
176
     0
 90
       50
176
     0
 90
       50
176
     0
 90
       50
176
     0
290
     0
176
     0
 90
       50
176
     0
 62
   256
176
     0
 40
1.0
176
     0
 90
        2
176
     0
  1
strokes_ogs.tif
176
     0
290
     0
176
     0
 40
1.0
176
     0
 40
1.0
176
     0
  0
VISUALSTYLE
  5
38
102
{ACAD_REACTORS
330
29
102
}
330
29
100
AcDbVisualStyle
  2
Facepattern
 70
    15
177
     3
291
     1
 70
    58
 90
        2
176
     1
 90
        2
176
     1
 90
        0
176
     1
 90
        0
176
     1
 40
0.6
176
     1
 40
30.0
176
     1
 62
     7
420
 16777215
176
     1
 90
        1
176
     1
 90
        4
176
     1
 62
     7
176
     1
 62
   257
176
     1
 90
        1
176
     1
 90
        1
176
     1
 40
1.0
176
     1
 90
        8
176
     1
 62
     7
176
     1
 40
1.0
176
     1
 90
        1
176
     1
 90
        6
176
     1
 90
        2
176
     1
 62
     7
176
     1
 90
        5
176
     1
 90
        0
176
     1
 90
        0
176
     1
290
     0
176
     1
 90
        1
176
     1
 40
0.0
176
     1
 90
        0
176
     1
290
     0
176
     1
290
     1
176
     1
290
     1
176
     1
290
     0
176
     1
290
     0
176
     1
290
     0
176
     1
290
     0
176
     1
290
     0
176
     1
290
     0
176
     1
 90
       50
176
     1
 40
0.0
176
     1
 40
1.0
176
     1
 90
        0
176
     1
 62
    18
420
        0
176
     1
 90
       50
176
     1
 90
        3
176
     1
 62
     5
420
      255
176
     1
290
     0
176
     1
 90
       50
176
     1
 90
       50
176
     1
 90
       50
176
     1
290
     0
176
     1
 90
       50
176
     1
 62
   256
176
     0
 40
1.0
176
     0
 90
        2
176
     1
  1
strokes_ogs.tif
176
     1
290
     0
176
     1
 40
1.0
176
     1
 40
1.0
176
     1
  0
VISUALSTYLE
  5
2A
102
{ACAD_REACTORS
330
29
102
}
330
29
100
AcDbVisualStyle
  2
Flat
 70
     0
177
     3
291
     1
 70
    58
 90
        2
176
     1
 90
        1
176
     1
 90
        1
176
     1
 90
        2
176
     1
 40
0.6
176
     1
 40
30.0
176
     1
 62
     7
420
 16777215
176
     1
 90
        0
176
     1
 90
        0
176
     1
 62
     7
176
     1
 62
   257
176
     1
 90
        1
176
     1
 90
        1
176
     1
 40
1.0
176
     1
 90
        8
176
     1
 62
     7
176
     1
 40
1.0
176
     1
 90
        1
176
     1
 90
        6
176
     1
 90
        2
176
     1
 62
     7
176
     1
 90
        5
176
     1
 90
        0
176
     1
 90
        0
176
     1
290
     0
176
     1
 90
       13
176
     1
 40
0.0
176
     1
 90
        0
176
     1
290
     0
176
     1
290
     1
176
     1
290
     1
176
     1
290
     0
176
     1
290
     0
176
     1
290
     0
176
     1
290
     0
176
     1
290
     0
176
     1
290
     0
176
     1
 90
       50
176
     1
 40
0.0
176
     1
 40
1.0
176
     1
 90
        0
176
     1
 62
    18
420
        0
176
     1
 90
       50
176
     1
 90
        3
176
     1
 62
     5
420
      255
176
     1
290
     0
176
     1
 90
       50
176
     1
 90
       50
176
     1
 90
       50
176
     1
290
     0
176
     1
 90
       50
176
     1
 62
   256
176
     0
 40
1.0
176
     0
 90
        2
176
     1
  1
strokes_ogs.tif
176
     1
290
     0
176
     1
 40
1.0
176
     1
 40
1.0
176
     1
  0
VISUALSTYLE
  5
2B
102
{ACAD_REACTORS
330
29
102
}
330
29
100
AcDbVisualStyle
  2
FlatWithEdges
 70
     1
177
     3
291
     1
 70
    58
 90
        2
176
     1
 90
        1
176
     1
 90
        1
176
     1
 90
        2
176
     1
 40
0.6
176
     1
 40
30.0
176
     1
 62
     7
420
 16777215
176
     1
 90
        1
176
     1
 90
        0
176
     1
 62
     7
176
     1
 62
   257
176
     1
 90
        1
176
     1
 90
        1
176
     1
 40
1.0
176
     1
 90
        0
176
     1
 62
   257
176
     1
 40
1.0
176
     1
 90
        1
176
     1
 90
        6
176
     1
 90
        2
176
     1
 62
     7
176
     1
 90
        5
176
     1
 90
        0
176
     1
 90
        0
176
     1
290
     0
176
     1
 90
       13
176
     1
 40
0.0
176
     1
 90
        0
176
     1
290
     0
176
     1
290
     1
176
     1
290
     1
176
     1
290
     0
176
     1
290
     0
176
     1
290
     0
176
     1
290
     0
176
     1
290
     0
176
     1
290
     0
176
     1
 90
       50
176
     1
 40
0.0
176
     1
 40
1.0
176
     1
 90
        0
176
     1
 62
    18
420
        0
176
     1
 90
       50
176
     1
 90
        3
176
     1
 62
     5
420
      255
176
     1
290
     0
176
     1
 90
       50
176
     1
 90
       50
176
     1
 90
       50
176
     1
290
     0
176
     1
 90
       50
176
     1
 62
   256
176
     0
 40
1.0
176
     0
 90
        2
176
     1
  1
strokes_ogs.tif
176
     1
290
     0
176
     1
 40
1.0
176
     1
 40
1.0
176
     1
  0
VISUALSTYLE
  5
2C
102
{ACAD_REACTORS
330
29
102
}
330
29
100
AcDbVisualStyle
  2
Gouraud
 70
     2
177
     3
291
     1
 70
    58
 90
        2
176
     1
 90
        2
176
     1
 90
        1
176
     1
 90
        2
176
     1
 40
0.6
176
     1
 40
30.0
176
     1
 62
     7
420
 16777215
176
     1
 90
        0
176
     1
 90
        0
176
     1
 62
     7
176
     1
 62
   257
176
     1
 90
        1
176
     1
 90
        1
176
     1
 40
1.0
176
     1
 90
        0
176
     1
 62
     7
176
     1
 40
1.0
176
     1
 90
        1
176
     1
 90
        6
176
     1
 90
        2
176
     1
 62
     7
176
     1
 90
        5
176
     1
 90
        0
176
     1
 90
        0
176
     1
290
     0
176
     1
 90
       13
176
     1
 40
0.0
176
     1
 90
        0
176
     1
290
     0
176
     1
290
     1
176
     1
290
     1
176
     1
290
     0
176
     1
290
     0
176
     1
290
     0
176
     1
290
     0
176
     1
290
     0
176
     1
290
     0
176
     1
 90
       50
176
     1
 40
0.0
176
     1
 40
1.0
176
     1
 90
        0
176
     1
 62
    18
420
        0
176
     1
 90
       50
176
     1
 90
        3
176
     1
 62
     5
420
      255
176
     1
290
     0
176
     1
 90
       50
176
     1
 90
       50
176
     1
 90
       50
176
     1
290
     0
176
     1
 90
       50
176
     1
 62
   256
176
     0
 40
1.0
176
     0
 90
        2
176
     1
  1
strokes_ogs.tif
176
     1
290
     0
176
     1
 40
1.0
176
     1
 40
1.0
176
     1
  0
VISUALSTYLE
  5
2D
102
{ACAD_REACTORS
330
29
102
}
330
29
100
AcDbVisualStyle
  2
GouraudWithEdges
 70
     3
177
     3
291
     1
 70
    58
 90
        2
176
     1
 90
        2
176
     1
 90
        1
176
     1
 90
        2
176
     1
 40
0.6
176
     1
 40
30.0
176
     1
 62
     7
420
 16777215
176
     1
 90
        1
176
     1
 90
        0
176
     1
 62
     7
176
     1
 62
   257
176
     1
 90
        1
176
     1
 90
        1
176
     1
 40
1.0
176
     1
 90
        0
176
     1
 62
   257
176
     1
 40
1.0
176
     1
 90
        1
176
     1
 90
        6
176
     1
 90
        2
176
     1
 62
     7
176
     1
 90
        5
176
     1
 90
        0
176
     1
 90
        0
176
     1
290
     0
176
     1
 90
       13
176
     1
 40
0.0
176
     1
 90
        0
176
     1
290
     0
176
     1
290
     1
176
     1
290
     1
176
     1
290
     0
176
     1
290
     0
176
     1
290
     0
176
     1
290
     0
176
     1
290
     0
176
     1
290
     0
176
     1
 90
       50
176
     1
 40
0.0
176
     1
 40
1.0
176
     1
 90
        0
176
     1
 62
    18
420
        0
176
     1
 90
       50
176
     1
 90
        3
176
     1
 62
     5
420
      255
176
     1
290
     0
176
     1
 90
       50
176
     1
 90
       50
176
     1
 90
       50
176
     1
290
     0
176
     1
 90
       50
176
     1
 62
   256
176
     0
 40
1.0
176
     0
 90
        2
176
     1
  1
strokes_ogs.tif
176
     1
290
     0
176
     1
 40
1.0
176
     1
 40
1.0
176
     1
  0
VISUALSTYLE
  5
31
102
{ACAD_REACTORS
330
29
102
}
330
29
100
AcDbVisualStyle
  2
Hidden
 70
     6
177
     3
291
     0
 70
    58
 90
        1
176
     1
 90
        2
176
     1
 90
        2
176
     1
 90
        0
176
     1
 40
0.6
176
     1
 40
30.0
176
     1
 62
     7
420
 16777215
176
     1
 90
        2
176
     1
 90
        2
176
     1
 62
     7
176
     1
 62
   257
176
     1
 90
        2
176
     1
 90
        1
176
     1
 40
40.0
176
     1
 90
        0
176
     1
 62
   257
176
     1
 40
1.0
176
     1
 90
        1
176
     1
 90
        6
176
     1
 90
        2
176
     1
 62
     7
176
     1
 90
        3
176
     1
 90
        0
176
     1
 90
        0
176
     1
290
     0
176
     1
 90
        1
176
     1
 40
0.0
176
     1
 90
        0
176
     1
290
     0
176
     1
290
     1
176
     1
290
     1
176
     1
290
     0
176
     1
290
     0
176
     1
290
     0
176
     1
290
     0
176
     1
290
     0
176
     1
290
     0
176
     1
 90
       50
176
     1
 40
0.0
176
     1
 40
1.0
176
     1
 90
        0
176
     1
 62
    18
420
        0
176
     1
 90
       50
176
     1
 90
        3
176
     1
 62
     5
420
      255
176
     1
290
     0
176
     1
 90
       50
176
     1
 90
       50
176
     1
 90
       50
176
     1
290
     0
176
     1
 90
       50
176
     1
 62
   256
176
     0
 40
1.0
176
     0
 90
        2
176
     1
  1
strokes_ogs.tif
176
     1
290
     0
176
     1
 40
1.0
176
     1
 40
1.0
176
     1
  0
VISUALSTYLE
  5
3F
102
{ACAD_REACTORS
330
29
102
}
330
29
100
AcDbVisualStyle
  2
JitterOff
 70
    20
177
     3
291
     1
 70
    58
 90
        2
176
     0
 90
        2
176
     0
 90
        0
176
     0
 90
        0
176
     0
 40
0.6
176
     0
 40
30.0
176
     0
 62
     7
420
 16777215
176
     0
 90
        1
176
     0
 90
        4
176
     0
 62
     7
176
     0
 62
   257
176
     0
 90
        1
176
     0
 90
        1
176
     0
 40
1.0
176
     0
 90
       10
176
     2
 62
     7
176
     0
 40
1.0
176
     0
 90
        1
176
     0
 90
        6
176
     0
 90
        2
176
     0
 62
     7
176
     0
 90
        5
176
     0
 90
        0
176
     0
 90
        0
176
     0
290
     0
176
     0
 90
        1
176
     0
 40
0.0
176
     0
 90
        0
176
     0
290
     0
176
     0
290
     1
176
     0
290
     1
176
     0
290
     0
176
     0
290
     0
176
     0
290
     0
176
     0
290
     0
176
     0
290
     0
176
     0
290
     0
176
     0
 90
       50
176
     0
 40
0.0
176
     0
 40
1.0
176
     0
 90
        0
176
     0
 62
    18
420
        0
176
     0
 90
       50
176
     0
 90
        3
176
     0
 62
     5
420
      255
176
     0
290
     0
176
     0
 90
       50
176
     0
 90
       50
176
     0
 90
       50
176
     0
290
     0
176
     0
 90
       50
176
     0
 62
   256
176
     0
 40
1.0
176
     0
 90
        2
176
     0
  1
strokes_ogs.tif
176
     0
290
     0
176
     0
 40
1.0
176
     0
 40
1.0
176
     0
  0
VISUALSTYLE
  5
37
102
{ACAD_REACTORS
330
29
102
}
330
29
100
AcDbVisualStyle
  2
Linepattern
 70
    14
177
     3
291
     1
 70
    58
 90
        2
176
     1
 90
        2
176
     1
 90
        0
176
     1
 90
        0
176
     1
 40
0.6
176
     1
 40
30.0
176
     1
 62
     7
420
 16777215
176
     1
 90
        1
176
     1
 90
        4
176
     1
 62
     7
176
     1
 62
   257
176
     1
 90
        7
176
     1
 90
        7
176
     1
 40
1.0
176
     1
 90
        8
176
     1
 62
     7
176
     1
 40
1.0
176
     1
 90
        1
176
     1
 90
        6
176
     1
 90
        2
176
     1
 62
     7
176
     1
 90
        5
176
     1
 90
        0
176
     1
 90
        0
176
     1
290
     0
176
     1
 90
        1
176
     1
 40
0.0
176
     1
 90
        0
176
     1
290
     0
176
     1
290
     1
176
     1
290
     1
176
     1
290
     0
176
     1
290
     0
176
     1
290
     0
176
     1
290
     0
176
     1
290
     0
176
     1
290
     0
176
     1
 90
       50
176
     1
 40
0.0
176
     1
 40
1.0
176
     1
 90
        0
176
     1
 62
    18
420
        0
176
     1
 90
       50
176
     1
 90
        3
176
     1
 62
     5
420
      255
176
     1
290
     0
176
     1
 90
       50
176
     1
 90
       50
176
     1
 90
       50
176
     1
290
     0
176
     1
 90
       50
176
     1
 62
   256
176
     0
 40
1.0
176
     0
 90
        2
176
     1
  1
strokes_ogs.tif
176
     1
290
     0
176
     1
 40
1.0
176
     1
 40
1.0
176
     1
  0
VISUALSTYLE
  5
40
102
{ACAD_REACTORS
330
29
102
}
330
29
100
AcDbVisualStyle
  2
OverhangOff
 70
    21
177
     3
291
     1
 70
    58
 90
        2
176
     0
 90
        2
176
     0
 90
        0
176
     0
 90
        0
176
     0
 40
0.6
176
     0
 40
30.0
176
     0
 62
     7
420
 16777215
176
     0
 90
        1
176
     0
 90
        4
176
     0
 62
     7
176
     0
 62
   257
176
     0
 90
        1
176
     0
 90
        1
176
     0
 40
1.0
176
     0
 90
        9
176
     2
 62
     7
176
     0
 40
1.0
176
     0
 90
        1
176
     0
 90
        6
176
     0
 90
        2
176
     0
 62
     7
176
     0
 90
        5
176
     0
 90
        0
176
     0
 90
        0
176
     0
290
     0
176
     0
 90
        1
176
     0
 40
0.0
176
     0
 90
        0
176
     0
290
     0
176
     0
290
     1
176
     0
290
     1
176
     0
290
     0
176
     0
290
     0
176
     0
290
     0
176
     0
290
     0
176
     0
290
     0
176
     0
290
     0
176
     0
 90
       50
176
     0
 40
0.0
176
     0
 40
1.0
176
     0
 90
        0
176
     0
 62
    18
420
        0
176
     0
 90
       50
176
     0
 90
        3
176
     0
 62
     5
420
      255
176
     0
290
     0
176
     0
 90
       50
176
     0
 90
       50
176
     0
 90
       50
176
     0
290
     0
176
     0
 90
       50
176
     0
 62
   256
176
     0
 40
1.0
176
     0
 90
        2
176
     0
  1
strokes_ogs.tif
176
     0
290
     0
176
     0
 40
1.0
176
     0
 40
1.0
176
     0
  0
VISUALSTYLE
  5
33
102
{ACAD_REACTORS
330
29
102
}
330
29
100
AcDbVisualStyle
  2
Realistic
 70
     8
177
     3
291
     0
 70
    58
 90
        2
176
     1
 90
        3
176
     1
 90
        0
176
     1
 90
        2
176
     1
 40
0.6
176
     1
 40
30.0
176
     1
 62
     7
420
 16777215
176
     1
 90
        0
176
     1
 90
        0
176
     1
 62
     7
176
     1
 62
   257
176
     1
 90
        1
176
     1
 90
        1
176
     1
 40
1.0
176
     1
 90
        8
176
     1
 62
   257
176
     1
 40
1.0
176
     1
 90
        1
176
     1
 90
        6
176
     1
 90
        2
176
     1
 62
     7
176
     1
 90
        3
176
     1
 90
        0
176
     1
 90
        0
176
     1
290
     0
176
     1
 90
       13
176
     1
 40
0.0
176
     1
 90
        0
176
     1
290
     0
176
     1
290
     1
176
     1
290
     1
176
     1
290
     0
176
     1
290
     0
176
     1
290
     0
176
     1
290
     0
176
     1
290
     0
176
     1
290
     0
176
     1
 90
       50
176
     1
 40
0.0
176
     1
 40
1.0
176
     1
 90
        0
176
     1
 62
    18
420
        0
176
     1
 90
       50
176
     1
 90
        3
176
     1
 62
     5
420
      255
176
     1
290
     0
176
     1
 90
       50
176
     1
 90
       50
176
     1
 90
       50
176
     1
290
     0
176
     1
 90
       50
176
     1
 62
   256
176
     0
 40
1.0
176
     0
 90
        2
176
     1
  1
strokes_ogs.tif
176
     1
290
     0
176
     1
 40
1.0
176
     1
 40
1.0
176
     1
  0
VISUALSTYLE
  5
3E
102
{ACAD_REACTORS
330
29
102
}
330
29
100
AcDbVisualStyle
  2
Shaded
 70
    27
177
     3
291
     0
 70
    58
 90
        2
176
     1
 90
        2
176
     1
 90
        1
176
     1
 90
        2
176
     1
 40
0.6
176
     1
 40
30.0
176
     1
 62
     7
420
 16777215
176
     1
 90
        0
176
     1
 90
        4
176
     1
 62
     7
176
     1
 62
   257
176
     1
 90
        1
176
     1
 90
        1
176
     1
 40
1.0
176
     1
 90
        8
176
     1
 62
   257
176
     1
 40
1.0
176
     1
 90
        1
176
     1
 90
        6
176
     1
 90
        2
176
     1
 62
     8
420
  7895160
176
     1
 90
        3
176
     1
 90
        0
176
     1
 90
        0
176
     1
290
     0
176
     1
 90
        5
176
     1
 40
0.0
176
     1
 90
        0
176
     1
290
     0
176
     1
290
     1
176
     1
290
     1
176
     1
290
     0
176
     1
290
     0
176
     1
290
     0
176
     1
290
     0
176
     1
290
     0
176
     1
290
     0
176
     1
 90
       50
176
     1
 40
0.0
176
     1
 40
1.0
176
     1
 90
        0
176
     1
 62
    18
420
        0
176
     1
 90
       50
176
     1
 90
        3
176
     1
 62
     5
420
      255
176
     1
290
     0
176
     1
 90
       50
176
     1
 90
       50
176
     1
 90
       50
176
     1
290
     0
176
     1
 90
       50
176
     1
 62
   256
176
     0
 40
1.0
176
     0
 90
        2
176
     1
  1
strokes_ogs.tif
176
     1
290
     0
176
     1
 40
1.0
176
     1
 40
1.0
176
     1
  0
VISUALSTYLE
  5
3D
102
{ACAD_REACTORS
330
29
102
}
330
29
100
AcDbVisualStyle
  2
Shaded with edges
 70
    26
177
     3
291
     0
 70
    58
 90
        2
176
     1
 90
        2
176
     1
 90
        1
176
     1
 90
        2
176
     1
 40
0.6
176
     1
 40
30.0
176
     1
 62
     7
420
 16777215
176
     1
 90
        1
176
     1
 90
        2
176
     1
 62
     7
176
     1
 62
   257
176
     1
 90
        2
176
     1
 90
        1
176
     1
 40
1.0
176
     1
 90
        8
176
     1
 62
   257
176
     1
 40
1.0
176
     1
 90
        1
176
     1
 90
        6
176
     1
 90
        2
176
     1
 62
     7
176
     1
 90
        3
176
     1
 90
        0
176
     1
 90
        0
176
     1
290
     0
176
     1
 90
        5
176
     1
 40
0.0
176
     1
 90
        0
176
     1
290
     0
176
     1
290
     1
176
     1
290
     1
176
     1
290
     0
176
     1
290
     0
176
     1
290
     0
176
     1
290
     0
176
     1
290
     0
176
     1
290
     0
176
     1
 90
       50
176
     1
 40
0.0
176
     1
 40
1.0
176
     1
 90
        0
176
     1
 62
    18
420
        0
176
     1
 90
       50
176
     1
 90
        3
176
     1
 62
     5
420
      255
176
     1
290
     0
176
     1
 90
       50
176
     1
 90
       50
176
     1
 90
       50
176
     1
290
     0
176
     1
 90
       50
176
     1
 62
   256
176
     0
 40
1.0
176
     0
 90
        2
176
     1
  1
strokes_ogs.tif
176
     1
290
     0
176
     1
 40
1.0
176
     1
 40
1.0
176
     1
  0
VISUALSTYLE
  5
3A
102
{ACAD_REACTORS
330
29
102
}
330
29
100
AcDbVisualStyle
  2
Shades of Gray
 70
    23
177
     3
291
     0
 70
    58
 90
        2
176
     1
 90
        2
176
     1
 90
        3
176
     1
 90
        0
176
     1
 40
0.6
176
     1
 40
30.0
176
     1
 62
     7
420
 16777215
176
     1
 90
        2
176
     1
 90
        2
176
     1
 62
     7
176
     1
 62
     7
176
     1
 90
        1
176
     1
 90
        1
176
     1
 40
40.0
176
     1
 90
        8
176
     1
 62
     7
176
     1
 40
1.0
176
     1
 90
        1
176
     1
 90
        6
176
     1
 90
        2
176
     1
 62
     7
176
     1
 90
        3
176
     1
 90
        0
176
     1
 90
        0
176
     1
290
     0
176
     1
 90
        1
176
     1
 40
0.0
176
     1
 90
        0
176
     1
290
     0
176
     1
290
     1
176
     1
290
     1
176
     1
290
     0
176
     1
290
     0
176
     1
290
     0
176
     1
290
     0
176
     1
290
     0
176
     1
290
     0
176
     1
 90
       50
176
     1
 40
0.0
176
     1
 40
1.0
176
     1
 90
        0
176
     1
 62
    18
420
        0
176
     1
 90
       50
176
     1
 90
        3
176
     1
 62
     5
420
      255
176
     1
290
     0
176
     1
 90
       50
176
     1
 90
       50
176
     1
 90
       50
176
     1
290
     0
176
     1
 90
       50
176
     1
 62
   256
176
     0
 40
1.0
176
     0
 90
        2
176
     1
  1
strokes_ogs.tif
176
     1
290
     0
176
     1
 40
1.0
176
     1
 40
1.0
176
     1
  0
VISUALSTYLE
  5
3B
102
{ACAD_REACTORS
330
29
102
}
330
29
100
AcDbVisualStyle
  2
Sketchy
 70
    24
177
     3
291
     0
 70
    58
 90
        1
176
     1
 90
        2
176
     1
 90
        2
176
     1
 90
        0
176
     1
 40
0.6
176
     1
 40
30.0
176
     1
 62
     7
420
 16777215
176
     1
 90
        2
176
     1
 90
        2
176
     1
 62
     7
176
     1
 62
     7
176
     1
 90
        1
176
     1
 90
        1
176
     1
 40
40.0
176
     1
 90
       11
176
     1
 62
     7
176
     1
 40
1.0
176
     1
 90
        1
176
     1
 90
        6
176
     1
 90
        2
176
     1
 62
     7
176
     1
 90
        6
176
     1
 90
        0
176
     1
 90
        0
176
     1
290
     0
176
     1
 90
        1
176
     1
 40
0.0
176
     1
 90
        0
176
     1
290
     0
176
     1
290
     1
176
     1
290
     1
176
     1
290
     0
176
     1
290
     0
176
     1
290
     0
176
     1
290
     0
176
     1
290
     0
176
     1
290
     0
176
     1
 90
       50
176
     1
 40
0.0
176
     1
 40
1.0
176
     1
 90
        0
176
     1
 62
    18
420
        0
176
     1
 90
       50
176
     1
 90
        3
176
     1
 62
     5
420
      255
176
     1
290
     0
176
     1
 90
       50
176
     1
 90
       50
176
     1
 90
       50
176
     1
290
     0
176
     1
 90
       50
176
     1
 62
   256
176
     0
 40
1.0
176
     0
 90
        2
176
     1
  1
strokes_ogs.tif
176
     1
290
     0
176
     1
 40
1.0
176
     1
 40
1.0
176
     1
  0
VISUALSTYLE
  5
36
102
{ACAD_REACTORS
330
29
102
}
330
29
100
AcDbVisualStyle
  2
Thicken
 70
    13
177
     3
291
     1
 70
    58
 90
        2
176
     1
 90
        2
176
     1
 90
        0
176
     1
 90
        0
176
     1
 40
0.6
176
     1
 40
30.0
176
     1
 62
     7
420
 16777215
176
     1
 90
        1
176
     1
 90
        4
176
     1
 62
     7
176
     1
 62
   257
176
     1
 90
        1
176
     1
 90
        1
176
     1
 40
1.0
176
     1
 90
       12
176
     1
 62
     7
176
     1
 40
1.0
176
     1
 90
        1
176
     1
 90
        6
176
     1
 90
        2
176
     1
 62
     7
176
     1
 90
        5
176
     1
 90
        0
176
     1
 90
        0
176
     1
290
     0
176
     1
 90
        1
176
     1
 40
0.0
176
     1
 90
        0
176
     1
290
     0
176
     1
290
     1
176
     1
290
     1
176
     1
290
     0
176
     1
290
     0
176
     1
290
     0
176
     1
290
     0
176
     1
290
     0
176
     1
290
     0
176
     1
 90
       50
176
     1
 40
0.0
176
     1
 40
1.0
176
     1
 90
        0
176
     1
 62
    18
420
        0
176
     1
 90
       50
176
     1
 90
        3
176
     1
 62
     5
420
      255
176
     1
290
     0
176
     1
 90
       50
176
     1
 90
       50
176
     1
 90
       50
176
     1
290
     0
176
     1
 90
       50
176
     1
 62
   256
176
     0
 40
1.0
176
     0
 90
        2
176
     1
  1
strokes_ogs.tif
176
     1
290
     0
176
     1
 40
1.0
176
     1
 40
1.0
176
     1
  0
VISUALSTYLE
  5
30
102
{ACAD_REACTORS
330
29
102
}
330
29
100
AcDbVisualStyle
  2
Wireframe
 70
     5
177
     3
291
     0
 70
    58
 90
        0
176
     1
 90
        2
176
     1
 90
        0
176
     1
 90
        0
176
     1
 40
0.6
176
     1
 40
30.0
176
     1
 62
     7
420
 16777215
176
     1
 90
        1
176
     1
 90
        4
176
     1
 62
     7
176
     1
 62
   257
176
     1
 90
        1
176
     1
 90
        1
176
     1
 40
1.0
176
     1
 90
        0
176
     1
 62
   257
176
     1
 40
1.0
176
     1
 90
        1
176
     1
 90
        6
176
     1
 90
        2
176
     1
 62
     7
176
     1
 90
        3
176
     1
 90
        0
176
     1
 90
        0
176
     1
290
     0
176
     1
 90
        1
176
     1
 40
0.0
176
     1
 90
        0
176
     1
290
     0
176
     1
290
     1
176
     1
290
     1
176
     1
290
     0
176
     1
290
     0
176
     1
290
     0
176
     1
290
     0
176
     1
290
     0
176
     1
290
     0
176
     1
 90
       50
176
     1
 40
0.0
176
     1
 40
1.0
176
     1
 90
        0
176
     1
 62
    18
420
        0
176
     1
 90
       50
176
     1
 90
        3
176
     1
 62
     5
420
      255
176
     1
290
     0
176
     1
 90
       50
176
     1
 90
       50
176
     1
 90
       50
176
     1
290
     0
176
     1
 90
       50
176
     1
 62
   256
176
     0
 40
1.0
176
     0
 90
        2
176
     1
  1
strokes_ogs.tif
176
     1
290
     0
176
     1
 40
1.0
176
     1
 40
1.0
176
     1
  0
VISUALSTYLE
  5
3C
102
{ACAD_REACTORS
330
29
102
}
330
29
100
AcDbVisualStyle
  2
X-Ray
 70
    25
177
     3
291
     0
 70
    58
 90
        2
176
     1
 90
        2
176
     1
 90
        1
176
     1
 90
        1
176
     1
 40
0.5
176
     1
 40
30.0
176
     1
 62
     7
420
 16777215
176
     1
 90
        1
176
     1
 90
        0
176
     1
 62
     7
176
     1
 62
   257
176
     1
 90
        1
176
     1
 90
        1
176
     1
 40
1.0
176
     1
 90
        8
176
     1
 62
     7
176
     1
 40
1.0
176
     1
 90
        1
176
     1
 90
        6
176
     1
 90
        2
176
     1
 62
     7
176
     1
 90
        3
176
     1
 90
        0
176
     1
 90
        0
176
     1
290
     0
176
     1
 90
       13
176
     1
 40
0.0
176
     1
 90
        0
176
     1
290
     0
176
     1
290
     1
176
     1
290
     1
176
     1
290
     0
176
     1
290
     0
176
     1
290
     0
176
     1
290
     0
176
     1
290
     0
176
     1
290
     0
176
     1
 90
       50
176
     1
 40
0.0
176
     1
 40
1.0
176
     1
 90
        0
176
     1
 62
    18
420
        0
176
     1
 90
       50
176
     1
 90
        3
176
     1
 62
     5
420
      255
176
     1
290
     0
176
     1
 90
       50
176
     1
 90
       50
176
     1
 90
       50
176
     1
290
     0
176
     1
 90
       50
176
     1
 62
   256
176
     0
 40
1.0
176
     0
 90
        2
176
     1
  1
strokes_ogs.tif
176
     1
290
     0
176
     1
 40
1.0
176
     1
 40
1.0
176
     1
  0
DICTIONARYVAR
  5
93
102
{ACAD_REACTORS
330
8E
102
}
330
8E
100
DictionaryVariables
280
     0
  1
1:1
  0
DICTIONARYVAR
  5
90
102
{ACAD_REACTORS
330
8E
102
}
330
8E
100
DictionaryVariables
280
     0
  1
STANDARD
  0
DICTIONARYVAR
  5
8F
102
{ACAD_REACTORS
330
8E
102
}
330
8E
100
DictionaryVariables
280
     0
  1
STANDARD
  0
DICTIONARYVAR
  5
91
102
{ACAD_REACTORS
330
8E
102
}
330
8E
100
DictionaryVariables
280
     0
  1
Imperial24
  0
DICTIONARYVAR
  5
92
102
{ACAD_REACTORS
330
8E
102
}
330
8E
100
DictionaryVariables
280
     0
  1
Imperial24
  0
DICTIONARY
  5
1A
330
19
100
AcDbDictionary
280
     1
281
     1
  3
BUMPTILE
360
1C
  3
DIFFUSETILE
360
1B
  3
OPACITYTILE
360
1F
  3
REFLECTIONTILE
360
1E
  3
REFRACTIONTILE
360
20
  3
SPECULARTILE
360
1D
  0
DICTIONARY
  5
12
330
11
100
AcDbDictionary
280
     1
281
     1
  3
BUMPTILE
360
14
  3
DIFFUSETILE
360
13
  3
OPACITYTILE
360
17
  3
REFLECTIONTILE
360
16
  3
REFRACTIONTILE
360
18
  3
SPECULARTILE
360
15
  0
DICTIONARY
  5
22
330
21
100
AcDbDictionary
280
     1
281
     1
  3
BUMPTILE
360
24
  3
DIFFUSETILE
360
23
  3
OPACITYTILE
360
27
  3
REFLECTIONTILE
360
26
  3
REFRACTIONTILE
360
28
  3
SPECULARTILE
360
25
  0
DICTIONARY
  5
94
330
65
100
AcDbDictionary
280
     1
281
     1
  3
ACAD_ROUNDTRIP_2008_TABLESTYLE_CELLSTYLEMAP
360
95
  0
XRECORD
  5
1C
102
{ACAD_REACTORS
330
1A
102
}
330
1A
100
AcDbXrecord
280
     1
270
     1
271
     1
  0
XRECORD
  5
1B
102
{ACAD_REACTORS
330
1A
102
}
330
1A
100
AcDbXrecord
280
     1
270
     1
271
     1
  0
XRECORD
  5
1F
102
{ACAD_REACTORS
330
1A
102
}
330
1A
100
AcDbXrecord
280
     1
270
     1
271
     1
  0
XRECORD
  5
1E
102
{ACAD_REACTORS
330
1A
102
}
330
1A
100
AcDbXrecord
280
     1
270
     1
271
     1
  0
XRECORD
  5
20
102
{ACAD_REACTORS
330
1A
102
}
330
1A
100
AcDbXrecord
280
     1
270
     1
271
     1
  0
XRECORD
  5
1D
102
{ACAD_REACTORS
330
1A
102
}
330
1A
100
AcDbXrecord
280
     1
270
     1
271
     1
  0
XRECORD
  5
14
102
{ACAD_REACTORS
330
12
102
}
330
12
100
AcDbXrecord
280
     1
270
     1
271
     1
  0
XRECORD
  5
13
102
{ACAD_REACTORS
330
12
102
}
330
12
100
AcDbXrecord
280
     1
270
     1
271
     1
  0
XRECORD
  5
17
102
{ACAD_REACTORS
330
12
102
}
330
12
100
AcDbXrecord
280
     1
270
     1
271
     1
  0
XRECORD
  5
16
102
{ACAD_REACTORS
330
12
102
}
330
12
100
AcDbXrecord
280
     1
270
     1
271
     1
  0
XRECORD
  5
18
102
{ACAD_REACTORS
330
12
102
}
330
12
100
AcDbXrecord
280
     1
270
     1
271
     1
  0
XRECORD
  5
15
102
{ACAD_REACTORS
330
12
102
}
330
12
100
AcDbXrecord
280
     1
270
     1
271
     1
  0
XRECORD
  5
24
102
{ACAD_REACTORS
330
22
102
}
330
22
100
AcDbXrecord
280
     1
270
     1
271
     1
  0
XRECORD
  5
23
102
{ACAD_REACTORS
330
22
102
}
330
22
100
AcDbXrecord
280
     1
270
     1
271
     1
  0
XRECORD
  5
27
102
{ACAD_REACTORS
330
22
102
}
330
22
100
AcDbXrecord
280
     1
270
     1
271
     1
  0
XRECORD
  5
26
102
{ACAD_REACTORS
330
22
102
}
330
22
100
AcDbXrecord
280
     1
270
     1
271
     1
  0
XRECORD
  5
28
102
{ACAD_REACTORS
330
22
102
}
330
22
100
AcDbXrecord
280
     1
270
     1
271
     1
  0
XRECORD
  5
25
102
{ACAD_REACTORS
330
22
102
}
330
22
100
AcDbXrecord
280
     1
270
     1
271
     1
  0
CELLSTYLEMAP
  5
95
102
{ACAD_REACTORS
330
94
102
}
330
94
100
AcDbCellStyleMap
 90
        3
300
CELLSTYLE
  1
TABLEFORMAT_BEGIN
 90
        5
170
     1
 91
        0
 92
    32768
 62
   257
 93
        1
300
CONTENTFORMAT
  1
CONTENTFORMAT_BEGIN
 90
        0
 91
        0
 92
      512
 93
        0
300

 40
0.0
140
1.0
 94
        5
 62
     0
340
55
144
0.25
309
CONTENTFORMAT_END
171
     0
 94
        0
309
TABLEFORMAT_END
  1
CELLSTYLE_BEGIN
 90
        1
 91
        1
300
_TITLE
309
CELLSTYLE_END
300
CELLSTYLE
  1
TABLEFORMAT_BEGIN
 90
        5
170
     1
 91
        0
 92
        0
 62
   257
 93
        1
300
CONTENTFORMAT
  1
CONTENTFORMAT_BEGIN
 90
        0
 91
        0
 92
      512
 93
        0
300

 40
0.0
140
1.0
 94
        5
 62
     0
340
55
144
0.18
309
CONTENTFORMAT_END
171
     0
 94
        0
309
TABLEFORMAT_END
  1
CELLSTYLE_BEGIN
 90
        2
 91
        1
300
_HEADER
309
CELLSTYLE_END
300
CELLSTYLE
  1
TABLEFORMAT_BEGIN
 90
        5
170
     1
 91
        0
 92
        0
 62
   257
 93
        1
300
CONTENTFORMAT
  1
CONTENTFORMAT_BEGIN
 90
        0
 91
        0
 92
      512
 93
        0
300

 40
0.0
140
1.0
 94
        2
 62
     0
340
55
144
0.18
309
CONTENTFORMAT_END
171
     0
 94
        0
309
TABLEFORMAT_END
  1
CELLSTYLE_BEGIN
 90
        3
 91
        2
300
_DATA
309
CELLSTYLE_END
  0
ENDSEC
  0
EOF
