<?xml version="1.0" encoding="UTF-8"?>
<svg id="_レイヤー_1" data-name="レイヤー 1" xmlns="http://www.w3.org/2000/svg" width="12.55mm" height="34.91mm" viewBox="0 0 35.59 98.94">
  <defs>
    <style>
      .cls-1 {
        fill: #040000;
      }
    </style>
  </defs>
  <path class="cls-1" d="M2.35.33C.72-.22-.35-.29.11,1.8c.86,3.92,4.6,6.24,7.96,7.88.78.38,1.62.73,2.49.86-.11.19-.48.01-.67.2-.12.12-.2.49-.2.67h-.34c.3.44.22.13.4.1.09-.02.21.14.34.16.45.09.55-.18.91-.35l-.88,1.6c-.46,1.38-.79,2.86-1.01,4.3-.31,2.04-.81,6.49.52,8.17.59.74,1.09-.37,1.42-.73.69-.74,1.77-1.62,2.11-2.59.22-.62.11-1,.62-1.55.57-.61,1.22-.92,1.63-1.76.44-.91.51-1.44,0-2.31-.09-.15-.74-.95-.68-1.02.89.51,1.85,1.75,2.97,1.12.09-.34.34-.61.68-.72.65-1.05,1.17-2.86,1.55-3.68.44-.96,1-1.54,1.21-2.62.08-.41.3-1.71.02-1.98-.5-.48-2.76.37-3.47.22.34-.38.97-.81,1.5-1.29h-.48c-.57,0-1.03-.46-1.03-1.03v-1.03c0-.41.23-.75.57-.92-.25-.09-.49-.17-.68-.26-2.11-1.02-3.04-2.01-5.66-1.82-2.23.16-2.22,1.55-2.12,3.45l-.17.04c-.84-1.16-.48-3.77-2.39-3.75-.33,0-.81.23-1.13.18-.28-.04-.45-.52-.79-.52-.31,0-.72.48-1.19.41-.34-.05-1.26-.7-1.76-.86Z"/>
  <g>
    <polygon class="cls-1" points="32.97 96.48 27.19 96.48 27.19 88.92 24.87 88.92 24.87 96.48 18.76 96.48 18.76 87.83 16.47 87.83 16.47 98.94 35.26 98.94 35.26 87.55 32.97 87.55 32.97 96.48"/>
    <path class="cls-1" d="M24.83,64.52c-.85.38-1.5.94-1.95,1.68s-.68,1.64-.68,2.7c0,.58.1,1.18.29,1.79.19.61.56,1.2,1.1,1.75.35.36.8.66,1.32.92-.74.32-1.35.79-1.81,1.41-.6.81-.9,1.75-.9,2.81,0,.68.12,1.32.37,1.93.25.61.58,1.13,1.01,1.56.27.27.57.47.9.62h-1.95v2.38h12.74v-2.38h-6.9c-1.27,0-2.24-.35-2.89-1.05-.65-.7-.98-1.56-.98-2.56,0-.57.15-1.07.44-1.51.29-.44.7-.78,1.24-1.01s1.16-.36,1.87-.36h7.23v-2.38h-6.38c-1.44,0-2.53-.29-3.29-.88-.75-.58-1.12-1.44-1.1-2.57,0-.62.15-1.16.45-1.62s.72-.81,1.25-1.05c.54-.25,1.15-.37,1.84-.37h7.23v-2.38h-7.36c-1.2,0-2.22.19-3.07.58Z"/>
    <rect class="cls-1" x="22.52" y="57.59" width="12.74" height="2.38"/>
    <path class="cls-1" d="M34.2,44.89c-.27-.29-.59-.5-.93-.66h1.99v-2.38h-12.74v2.38h7.01c.85.02,1.57.22,2.14.6.57.38,1,.87,1.27,1.47.27.59.41,1.22.41,1.88,0,.6-.15,1.14-.44,1.6-.29.47-.7.83-1.23,1.08-.53.26-1.15.38-1.85.38h-7.31v2.38h7.36c1.18,0,2.2-.21,3.05-.62.85-.41,1.51-1,1.96-1.78.45-.78.68-1.69.68-2.75,0-.58-.11-1.21-.34-1.86s-.58-1.23-1.05-1.72Z"/>
    <path class="cls-1" d="M28.85,25.63c-1.33,0-2.49.27-3.49.82-1,.55-1.78,1.31-2.33,2.27-.55.97-.83,2.05-.83,3.26s.28,2.33.83,3.33c.55,1,1.34,1.79,2.35,2.37,1.01.58,2.17.88,3.48.88s2.48-.29,3.5-.88c1.03-.58,1.82-1.38,2.39-2.38.56-1,.85-2.11.85-3.31s-.3-2.42-.9-3.48c-.6-1.06-1.44-1.85-2.51-2.38l-.82,2.05c.64.35,1.13.85,1.47,1.52.35.67.52,1.4.52,2.21s-.16,1.58-.49,2.22c-.33.64-.82,1.14-1.47,1.49-.43.23-.93.38-1.47.46v-10.39c-.45-.04-.81-.05-1.06-.05ZM24.95,34.19c-.35-.63-.52-1.36-.52-2.2,0-.71.14-1.35.41-1.9.27-.56.67-1.02,1.19-1.38.52-.37,1.13-.59,1.84-.68v8.04c-.51-.08-.98-.21-1.38-.41-.68-.34-1.2-.82-1.54-1.45Z"/>
    <polygon class="cls-1" points="22.52 23.69 24.57 23.69 24.57 21.39 35.26 21.39 35.26 19.01 24.57 19.01 24.57 16.24 22.52 16.24 22.52 19.01 17.72 19.01 17.72 21.39 22.52 21.39 22.52 23.69"/>
  </g>
</svg>